<svg xmlns="http://www.w3.org/2000/svg" width="50" height="60" viewBox="0 0 50 60" fill="none">
  <g clip-path="url(#clip0_485_503)">
    <path d="M41.8929 12.0713C44.6526 10.4603 45.9129 7.97361 46.1624 5.92126C46.2897 4.87475 46.1504 3.97547 45.8502 3.37047C45.5549 2.77547 45.1435 2.51804 44.68 2.54259L44.6797 2.54261C41.4566 2.71139 38.766 2.58924 24.8692 0.822566C17.99 -0.0519778 13.7385 0.974134 11.0466 2.49095C8.35809 4.0058 7.15846 6.04587 6.4457 7.35727L6.33866 7.55423L6.1204 7.60534C4.31003 8.02927 3.02577 8.90883 2.12708 10.7084C1.20485 12.5551 0.677601 15.3933 0.513077 19.7597L0.513071 19.7599C0.350663 24.0364 1.72402 28.6912 3.29473 32.9267C3.83187 34.3751 4.38684 35.7613 4.90834 37.064C5.14898 37.6651 5.3825 38.2484 5.60385 38.8118C6.29864 40.5803 6.87749 42.1619 7.14233 43.4205L7.14235 43.4206C7.56616 45.4368 7.65895 48.5454 7.62548 51.4975C7.59185 54.4637 7.42957 57.322 7.32782 58.8624L7.32776 58.8633C7.3049 59.1999 7.57702 59.4998 7.94633 59.4998H27.1211C27.4572 59.4998 27.7229 59.2435 27.7392 58.9224C27.7829 58.0331 27.8816 56.6975 28.1038 55.3912C28.3218 54.1088 28.6724 52.7639 29.267 51.9229L29.267 51.9228C29.7251 51.2753 30.3657 50.9872 31.093 50.9131C31.793 50.8417 32.598 50.9649 33.4475 51.1427C33.8517 51.2272 34.2721 51.3252 34.7091 51.4271C36.1542 51.7638 37.7804 52.1428 39.5985 52.2182C40.7532 52.266 41.535 52.0876 42.0643 51.8127C42.5841 51.5427 42.8926 51.1635 43.0793 50.7381C43.4493 49.8955 43.3495 48.8769 43.2766 48.1328C43.2719 48.085 43.2673 48.0383 43.263 47.9929L41.8929 12.0713ZM41.8929 12.0713H41.124L41.599 12.8353L41.8929 12.0713ZM49.0955 35.048C48.9171 34.7521 48.6568 34.3493 48.3511 33.8764C47.7574 32.958 46.9927 31.775 46.3249 30.5961C45.8107 29.6885 45.3317 28.7474 44.9968 27.8681C44.6668 27.0019 44.4529 26.1364 44.5297 25.4016L44.5297 25.4014C44.673 24.0352 44.5361 22.7219 44.3158 21.4488C44.2197 20.8937 44.109 20.3519 43.9992 19.8153C43.9829 19.7354 43.9666 19.6557 43.9503 19.576C43.8258 18.965 43.7058 18.3593 43.6203 17.7691C43.4652 16.698 42.9698 15.4724 42.4946 14.4905C42.2595 14.0049 42.0345 13.5891 41.8684 13.2951C41.7854 13.1482 41.7173 13.0321 41.6704 12.9532C41.6469 12.9138 41.6287 12.8837 41.6166 12.8638L41.603 12.8417L41.5998 12.8365L41.5991 12.8354L41.5991 12.8354L49.0955 35.048ZM49.0955 35.048C49.4475 35.6322 49.5233 36.0174 49.4961 36.2613C49.4717 36.4795 49.3559 36.6622 49.1024 36.8347C48.8354 37.0163 48.4474 37.1619 47.9602 37.2814C47.4785 37.3996 46.9405 37.4833 46.3923 37.5623C45.735 37.657 45.2586 37.9438 45.0254 38.4386C44.8135 38.8884 44.8606 39.3999 44.9477 39.818C45.0189 40.1599 45.1359 40.5174 45.2354 40.8216C45.2597 40.8959 45.2829 40.967 45.3042 41.0339C45.3615 41.2137 45.4054 41.3644 45.4314 41.49C45.459 41.6232 45.4565 41.684 45.4539 41.6988C45.4122 41.9447 45.2448 42.1397 45.0323 42.2901C44.9297 42.3628 44.8289 42.4158 44.7537 42.4505C44.7166 42.4676 44.687 42.4796 44.6682 42.4869C44.6588 42.4905 44.6523 42.4928 44.649 42.494L44.6489 42.4941L44.6486 42.4942L44.648 42.4944L44.6472 42.4947L44.6465 42.4949L43.7599 42.7858L44.4926 43.3594L44.4927 43.3595C44.4926 43.3594 44.4929 43.3596 44.4939 43.3605C44.4964 43.3626 44.5019 43.3673 44.5099 43.3746C44.5259 43.3894 44.5506 43.4137 44.5789 43.4462C44.6372 43.5133 44.7005 43.6037 44.7404 43.7085C44.7787 43.8086 44.7956 43.9205 44.7682 44.0485C44.7405 44.1778 44.6596 44.3608 44.4417 44.5886C44.4416 44.5887 44.4414 44.5889 44.4412 44.5891L44.8024 44.9349M49.0955 35.048L43.263 47.9926L43.7607 47.9452M44.8024 44.9349C43.7634 46.0169 43.6417 46.7025 43.7607 47.9452M44.8024 44.9349C45.4256 44.2839 45.3284 43.728 45.1358 43.3751L44.8024 44.9349ZM43.7607 47.9452C43.7654 47.9944 43.7706 48.0462 43.776 48.1002C43.9261 49.6065 44.2556 52.9117 39.5778 52.7178C37.7077 52.6402 36.0189 52.2464 34.5679 51.908C32.2592 51.3696 30.5525 50.9715 29.6752 52.2116L43.7607 47.9452ZM45.2775 42.7283C45.5565 42.5412 45.8698 42.236 45.9469 41.7826C45.9909 41.5236 45.8562 41.1113 45.7064 40.6529C45.3589 39.5895 44.9304 38.278 46.4636 38.0572L45.2775 42.7283ZM45.2775 42.7283C45.244 42.6929 45.2136 42.6634 45.1884 42.6401C45.1691 42.6223 45.1526 42.6079 45.1399 42.5971L45.1236 42.5835L45.1176 42.5788L45.1153 42.5769L45.1143 42.5761L45.1138 42.5757C45.1136 42.5755 45.1133 42.5754 44.8051 42.9691C44.4969 43.3628 44.4967 43.3626 44.4964 43.3624L44.4969 43.3628L45.2775 42.7283Z" fill="white" stroke="white"/>
  </g>
  <defs>
    <clipPath id="clip0_485_503">
      <rect width="50" height="60" fill="white"/>
    </clipPath>
  </defs>
</svg>