<svg xmlns="http://www.w3.org/2000/svg" preserveAspectRatio="none" viewBox="0 0 64 54" fill="none">
  <g clip-path="url(#clip0_485_514)">
    <path d="M54.7097 1.6156C48.3097 -1.61336 40.4288 0.203362 35.4449 5.24903L32.0089 8.61435L28.2374 4.84686C20.4907 -2.8245 7.15392 -1.34524 1.63085 9.28696C-1.06243 14.4667 -0.254906 20.6588 2.84329 25.5034H16.7863L20.8956 14.8712C21.164 14.1315 21.9068 13.7271 22.7143 13.66C23.5218 13.66 24.1951 14.1986 24.4658 14.9382L30.8658 33.2394L34.6374 19.5794C34.8387 18.7727 35.512 18.2342 36.3218 18.1672C37.1293 18.1001 37.8721 18.5716 38.2076 19.2442L41.1045 25.5011H47.7058C48.784 25.5011 49.5915 26.3747 49.5915 27.3848C49.5915 28.3949 48.7169 29.2686 47.7058 29.2686H39.892C39.1516 29.2686 38.4783 28.8641 38.1405 28.1244L36.9951 25.6351L33.02 40.1689C32.8187 40.9755 32.076 41.5141 31.2685 41.5811H31.2014C30.3938 41.5811 29.6511 41.0425 29.3827 40.3029L22.6472 21.1257L19.9539 28.1244C19.6855 28.8641 18.9428 29.3356 18.1353 29.3356H6.00858L29.8547 53.0893C31 54.3004 32.8858 54.3004 34.0982 53.0893L59.0897 28.1244C66.9035 20.5201 65.3532 7.06344 54.712 1.61328L54.7097 1.6156Z" fill="white"/>
  </g>
  <defs>
    <clipPath id="clip0_485_514">
      <rect width="64" height="54" fill="white"/>
    </clipPath>
  </defs>
</svg>