<svg xmlns="http://www.w3.org/2000/svg" preserveAspectRatio="none" viewBox="0 0 48 66" fill="none">
  <path d="M14.2203 2.03472C14.5343 0.019009 17.3301 -0.499961 18.4933 1.19609C19.2456 2.29044 20.3507 3.56155 21.5527 3.76086C25.3682 4.39641 33.1738 4.07676 40.5605 0.25217C42.0495 -0.518764 43.8874 0.575586 43.8215 2.21147C43.744 4.15949 43.2476 6.46477 43.6819 8.54817C44.3489 11.741 49.5952 16.1861 40.3201 18.8862C29.2225 22.1166 23.5264 22.3911 20.3352 17.382C17.5046 12.9369 13.6386 19.0592 12.4211 21.5036C10.2496 25.8697 4.05332 21.1238 1.78883 17.4271C-0.475667 13.7304 0.730253 7.81485 6.16271 11.2822C11.5952 14.7495 14.3288 9.66133 14.2707 7.19058C14.2397 5.95332 13.9527 3.77214 14.2203 2.03472Z" fill="white"/>
  <path d="M16.6793 23.3463C17.1291 21.3569 19.9559 21.0184 20.9989 22.7859C21.6697 23.9254 22.6895 25.268 23.8722 25.5425C27.6334 26.4262 35.4467 26.618 43.0816 23.2861C44.621 22.6167 46.3775 23.8276 46.1992 25.456C45.9859 27.3965 45.3306 29.6604 45.6175 31.7701C46.0596 35.0005 50.9879 39.7766 41.5422 41.8637C30.2469 44.3608 24.543 44.263 21.7085 39.0545C19.192 34.4327 14.9112 40.288 13.5269 42.646C11.053 46.8579 5.20176 41.7208 3.20095 37.8812C1.20013 34.0416 2.81707 28.2238 7.99748 32.0409C13.1779 35.858 16.2606 30.9578 16.3691 28.4871C16.4234 27.2536 16.2877 25.0574 16.6793 23.3425V23.3463Z" fill="white"/>
  <path d="M17.8431 44.7182C18.4713 42.7739 21.3174 42.6761 22.1976 44.5264C22.7676 45.7185 23.6595 47.14 24.8111 47.5161C28.4793 48.712 36.2421 49.5619 44.1485 46.8881C45.7421 46.3503 47.3823 47.7041 47.0605 49.3099C46.6766 51.2241 45.8197 53.4278 45.9166 55.5489C46.0678 58.8056 50.5503 63.9765 40.9533 65.2626C29.4758 66.797 23.8029 66.2216 21.4454 60.795C19.3515 55.9813 14.5627 61.4531 12.9729 63.6869C10.1345 67.677 4.76413 62.0623 3.11229 58.0723C1.46046 54.0784 3.59311 48.4224 8.41291 52.6569C13.2288 56.8952 16.7419 52.2733 17.0715 49.8214C17.2382 48.5954 17.2964 46.3954 17.8392 44.7219L17.8431 44.7182Z" fill="white"/>
</svg>