<svg xmlns="http://www.w3.org/2000/svg" preserveAspectRatio="none" viewBox="0 0 42 60" fill="none">
  <g clip-path="url(#clip0_485_524)">
    <path d="M30.9897 17.9676C26.7965 13.5835 24.0252 8.13068 22.9709 2.17653C22.8258 1.21412 21.9866 0.5 21.0024 0.5C20.0182 0.5 19.1428 1.21412 18.9953 2.17653C17.9748 8.13068 15.2035 13.5835 10.9764 17.9676C5.98031 23.21 0 31.0889 0 39.1429C0 54.1157 10.8289 59.5 21 59.5C31.1711 59.5 41.9976 54.1536 41.9976 39.1429C41.9976 31.0889 36.0173 23.21 30.9873 17.9676H30.9897ZM32.1142 41.1812C32.1142 41.6919 31.691 42.1034 31.1711 42.1034H24.6902V48.4406C24.6902 48.949 24.267 49.3628 23.7471 49.3628H18.2505C17.7305 49.3628 17.3073 48.9514 17.3073 48.4406V42.1034H10.8265C10.3065 42.1034 9.88335 41.6919 9.88335 41.1812V35.8064C9.88335 35.298 10.3065 34.8842 10.8265 34.8842H17.3073V28.5469C17.3073 28.0385 17.7281 27.6247 18.2505 27.6247H23.7471C24.267 27.6247 24.6902 28.0362 24.6902 28.5469V34.8842H31.1711C31.691 34.8842 32.1142 35.298 32.1142 35.8064V41.1812Z" fill="white"/>
  </g>
  <defs>
    <clipPath id="clip0_485_524">
      <rect width="42" height="59" fill="white" transform="translate(0 0.5)"/>
    </clipPath>
  </defs>
</svg>