<svg width="67" height="40" viewBox="0 0 67 40" fill="none" xmlns="http://www.w3.org/2000/svg">
<rect width="67" height="40" rx="20" fill="#144F2D"/>
<path d="M20.8707 16.9033C20.7602 15.7776 19.8693 15.1215 18.4328 15.1215C16.948 15.1215 16.1193 15.8052 16.1193 16.7376C16.0986 17.7735 17.1552 18.2293 18.3776 18.5124L19.6552 18.8232C22.0723 19.3688 23.8748 20.605 23.8886 22.9669C23.8748 25.5497 21.8582 27.2003 18.4121 27.2003C15.0005 27.2003 12.8182 25.6188 12.7353 22.5939H15.5875C15.6842 24.0166 16.8168 24.7279 18.3776 24.7279C19.9176 24.7279 20.9121 24.0166 20.919 22.953C20.9121 21.9931 20.0419 21.5442 18.5019 21.1644L16.9549 20.7845C14.5723 20.2044 13.1013 19.0166 13.1082 16.9309C13.0944 14.3688 15.3665 12.663 18.4535 12.663C21.5889 12.663 23.6538 14.3964 23.6952 16.9033H20.8707ZM34.857 17.7873C34.6153 16.2196 33.4136 15.2666 31.77 15.2666C29.5669 15.2666 28.1097 16.9517 28.1097 19.9282C28.1097 22.9807 29.5876 24.5898 31.7562 24.5898C33.3584 24.5898 34.5669 23.7058 34.857 22.1865L37.8266 22.2003C37.4951 24.8108 35.299 27.1934 31.7078 27.1934C27.9233 27.1934 25.1332 24.5345 25.1332 19.9282C25.1332 15.3149 27.9716 12.663 31.7078 12.663C34.9675 12.663 37.426 14.5345 37.8266 17.7873H34.857ZM42.4103 12.8564V27H39.4752V12.8564H42.4103ZM44.4073 27V12.8564H53.8962V15.2873H47.3423V18.7127H53.4059V21.1367H47.3423V24.5691H53.9238V27H44.4073Z" fill="white"/>
</svg>
