<svg preserveAspectRatio="none" viewBox="0 0 60 61" fill="none" xmlns="http://www.w3.org/2000/svg">
<path d="M59.2398 60.0224H0.760199C0.339556 60.0224 0 59.6828 0 59.2622C0 58.8415 0.339556 58.502 0.760199 58.502H59.2398C59.6604 58.502 60 58.8415 60 59.2622C60 59.6828 59.6604 60.0224 59.2398 60.0224Z" fill="#3F3F3F"/>
<path d="M35.2899 33.9934C34.8845 33.9934 34.479 33.9376 34.0888 33.8211C32.989 33.5018 32.0768 32.772 31.5244 31.7635C30.972 30.76 30.8453 29.5994 31.1646 28.4997L33.3286 21.07C33.8607 19.2506 35.5535 17.9785 37.4489 17.9785C37.8543 17.9785 38.2598 18.0343 38.65 18.1508C40.9205 18.8097 42.2331 21.1967 41.5692 23.4722L39.4051 30.9019C38.873 32.7213 37.1803 33.9934 35.2848 33.9934H35.2899ZM37.4489 19.4989C36.2275 19.4989 35.1328 20.3199 34.7882 21.4957L32.6241 28.9254C32.4164 29.6349 32.4975 30.385 32.8573 31.0337C33.212 31.6824 33.7999 32.1537 34.5145 32.3615C34.7679 32.4375 35.0314 32.473 35.2899 32.473C36.5113 32.473 37.606 31.652 37.9506 30.4762L40.1147 23.0465C40.5404 21.5768 39.694 20.0361 38.2293 19.6104C37.9759 19.5344 37.7124 19.4989 37.454 19.4989H37.4489Z" fill="#018C3B"/>
<path d="M27.4317 57.4326C27.3608 57.4326 27.2898 57.4225 27.2189 57.4022C26.8185 57.2856 26.5854 56.865 26.7019 56.4595L32.5859 36.2534C32.7024 35.848 33.1231 35.6199 33.5285 35.7365C33.9289 35.8531 34.162 36.2737 34.0454 36.6791L28.1615 56.8852C28.0652 57.2197 27.7611 57.4326 27.4317 57.4326Z" fill="#018C3B"/>
<path d="M52.558 39.9629C52.2894 39.9629 52.0157 39.9224 51.7573 39.8463C51.0224 39.6335 50.4143 39.1469 50.0494 38.4729C49.6794 37.8039 49.5983 37.0285 49.8112 36.2937L51.0984 31.8693C51.4532 30.653 52.5834 29.8066 53.8453 29.8066C54.1139 29.8066 54.3876 29.8472 54.646 29.9232C55.3809 30.1361 55.9891 30.6226 56.354 31.2966C56.7239 31.9656 56.805 32.741 56.5921 33.4759L55.3049 37.9002C54.9501 39.1165 53.82 39.9629 52.558 39.9629ZM53.8453 31.3321C53.2523 31.3321 52.7253 31.7325 52.558 32.3001L51.2707 36.7244C51.1694 37.0691 51.2099 37.434 51.3822 37.7482C51.5546 38.0624 51.8383 38.2905 52.183 38.3918C52.8874 38.5946 53.6476 38.1688 53.8453 37.4796L55.1325 33.0552C55.2339 32.7106 55.1934 32.3457 55.0211 32.0315C54.8488 31.7173 54.5649 31.4892 54.2203 31.3879C54.0936 31.3524 53.9669 31.3321 53.8453 31.3321Z" fill="#3F3F3F"/>
<path d="M47.1274 56.5151C47.0565 56.5151 46.9855 56.5049 46.9146 56.4847C46.5091 56.3681 46.2811 55.9475 46.3976 55.542L51.1007 39.3852C51.2173 38.9798 51.643 38.7518 52.0434 38.8683C52.4488 38.9849 52.6769 39.4055 52.5603 39.811L47.8572 55.9677C47.7609 56.3022 47.4568 56.5151 47.1274 56.5151Z" fill="#3F3F3F"/>
<path d="M14.5267 39.9629C14.2581 39.9629 13.9845 39.9224 13.726 39.8463C12.9912 39.6335 12.383 39.1469 12.0181 38.4729C11.6482 37.8039 11.567 37.0285 11.7799 36.2937L13.0672 31.8693C13.422 30.653 14.5521 29.8066 15.814 29.8066C16.0826 29.8066 16.3563 29.8472 16.6148 29.9232C17.3496 30.1361 17.9578 30.6226 18.3227 31.2966C18.6927 31.9656 18.7737 32.741 18.5609 33.4759L17.2736 37.9002C16.9189 39.1165 15.7887 39.9629 14.5267 39.9629ZM15.809 31.3321C15.216 31.3321 14.6889 31.7325 14.5217 32.3001L13.2344 36.7244C13.1331 37.0691 13.1736 37.434 13.3459 37.7482C13.5182 38.0624 13.802 38.2905 14.1466 38.3918C14.8511 38.5996 15.6113 38.1688 15.809 37.4796L17.0962 33.0552C17.1976 32.7106 17.1571 32.3457 16.9847 32.0315C16.8124 31.7173 16.5286 31.4892 16.184 31.3879C16.0573 31.3524 15.9306 31.3321 15.809 31.3321Z" fill="#3F3F3F"/>
<path d="M9.09616 56.5151C9.02521 56.5151 8.95427 56.5049 8.88331 56.4847C8.47788 56.3681 8.24981 55.9475 8.36637 55.542L13.0695 39.3852C13.186 38.9798 13.6118 38.7518 14.0121 38.8683C14.4176 38.9849 14.6456 39.4055 14.529 39.811L9.82595 55.9677C9.72966 56.3022 9.42558 56.5151 9.09616 56.5151Z" fill="#3F3F3F"/>
</svg>
