<svg preserveAspectRatio="none" viewBox="0 0 60 61" fill="none" xmlns="http://www.w3.org/2000/svg">
<path d="M29.0594 60.2545C23.7763 60.2545 20.5804 57.1188 20.0586 51.4293C19.8378 48.986 20.0787 47.23 20.3345 45.3736C20.6255 43.2564 20.9316 41.0639 20.6506 37.4315C20.4851 35.2942 19.5168 33.182 18.4933 30.9443C16.8677 27.3972 15.0264 23.3735 15.5984 17.8897C15.6435 17.4532 15.6987 17.0418 15.7439 16.6605C15.9145 15.351 16.0348 14.4028 15.7539 13.4696C15.5532 12.7873 15.2171 12.2053 14.8709 11.5882C14.2136 10.4292 13.4661 9.11978 13.5012 6.96241C13.5714 3.08416 15.8894 0.269531 19.01 0.269531H19.1003C21.3982 0.314686 23.0237 2.09077 23.8315 4.14278C24.564 2.36169 25.9287 1.68437 27.1478 1.68437C27.2783 1.68437 27.4137 1.6944 27.5492 1.70945C28.5928 1.82986 29.4707 2.47205 30.0176 3.52063C30.2183 3.90193 30.3688 4.3284 30.4692 4.78998C30.5043 4.74984 30.5444 4.70469 30.5796 4.66455C31.2318 3.96215 32.0947 3.64107 33.1533 3.76649C34.8541 3.96216 35.682 5.59773 35.9379 7.1982C36.57 6.57608 37.3125 6.30015 38.2056 6.40049C39.0986 6.50084 39.8914 7.10289 40.383 8.05614C40.674 8.61305 40.8496 9.26526 40.9048 9.95763C41.5269 9.48602 42.3347 9.34555 43.2177 9.59139C45.5758 10.2486 45.4353 12.9077 45.36 14.3376L45.35 14.5533C45.2497 16.6054 44.6476 24.0307 44.3917 25.8218C44.1058 27.8437 43.6943 29.2285 43.2579 30.6885C42.9568 31.7069 42.6407 32.7605 42.3447 34.1101L42.0939 35.2591C41.1908 39.3882 40.4081 42.9554 39.8914 47.2701C38.893 55.6036 35.4813 59.9735 29.7467 60.2545C29.5059 60.2645 29.2751 60.2695 29.0493 60.2695L29.0594 60.2545ZM19.02 1.76463C16.7573 1.76463 15.0716 3.95713 15.0164 6.98247C14.9863 8.72843 15.5683 9.75193 16.1854 10.8356C16.5617 11.4979 16.953 12.1852 17.2038 13.0281C17.5751 14.2724 17.4196 15.4614 17.244 16.8412C17.1938 17.2174 17.1436 17.6138 17.0985 18.0352C16.5667 23.1126 18.2424 26.7701 19.8629 30.3071C20.9466 32.6702 21.9651 34.8978 22.1507 37.3061C22.4417 41.099 22.1156 43.4771 21.8246 45.5743C21.5688 47.4206 21.348 49.0161 21.5537 51.2888C22.0052 56.2357 24.5289 58.7493 29.0543 58.7493C29.26 58.7493 29.4657 58.7493 29.6815 58.7343C34.5732 58.4935 37.5082 54.5751 38.4063 47.0744C38.9331 42.6844 39.7208 39.0871 40.6289 34.9179L40.8797 33.769C41.1858 32.3642 41.5069 31.2805 41.8179 30.2369C42.2344 28.8321 42.6307 27.5026 42.9017 25.5911C43.1525 23.83 43.7445 16.4899 43.8449 14.463L43.8549 14.2423C43.9402 12.6669 43.9151 11.3323 42.8113 11.0263C42.6508 10.9811 42.5003 10.9611 42.3698 10.9611C41.6373 10.9611 41.3012 11.7237 41.1557 12.3609C41.1406 12.4261 41.1206 12.6819 41.1005 12.8877C40.9751 14.3276 40.7995 16.2993 39.4549 16.2993C39.4348 16.2993 39.3896 16.2993 39.3696 16.2993C39.0033 16.2692 38.3862 16.0886 38.3461 15.1955C38.3461 15.1654 38.3461 15.1303 38.3411 15.0952C38.2457 14.3978 38.5468 13.861 38.7725 13.4746C38.8729 13.299 38.9632 13.1335 39.0084 12.988C39.1689 12.4512 39.3094 11.7086 39.3946 10.941C39.485 10.1332 39.3646 9.33049 39.0535 8.73847C38.903 8.44747 38.5718 7.94575 38.045 7.88555C37.157 7.79022 36.4948 8.5428 35.968 10.2486C35.7422 10.9711 35.7974 11.4628 35.8827 12.2755C35.8827 12.2906 36.0031 13.7506 35.5014 14.3075C35.3308 14.4981 35.1 14.5985 34.8541 14.5985C34.2671 14.5985 33.9862 14.0416 33.8909 13.861C33.2186 12.5515 33.6801 11.1918 34.0815 9.98773C34.3223 9.2753 34.5481 8.60299 34.518 8.03606C34.4779 7.12294 34.1016 5.37198 32.9878 5.24153C32.4359 5.17631 32.0195 5.31177 31.6883 5.673C30.8254 6.60117 30.6548 8.83379 30.7852 10.6149C30.7852 10.655 30.8003 10.7152 30.8154 10.7955C30.9408 11.523 31.016 12.2153 30.6297 12.6769C30.3538 13.003 29.9173 13.1134 29.4657 12.9579C28.4723 12.6167 28.6178 11.3223 28.678 10.7704L28.6931 10.645C28.7734 9.76196 28.8687 8.92409 28.9741 8.04108L29.0844 7.07277C29.2149 5.9389 29.0794 4.92043 28.6981 4.19796C28.4774 3.78154 28.076 3.26476 27.3937 3.18449C26.0741 3.03397 25.1008 4.19293 24.8701 6.21985C24.7547 7.23331 24.8249 8.21168 25.0657 9.03449C25.0958 9.13985 25.8283 11.6685 25.1058 12.6318C24.7797 13.0683 24.2178 13.1987 23.6459 12.9428C22.3665 12.3659 22.6224 10.7453 22.7628 9.87737C22.7879 9.72685 22.808 9.58637 22.823 9.47098C22.9485 8.25683 23.0338 6.97243 22.7679 5.75828C22.3565 3.85679 21.0269 1.78974 19.0853 1.75462H19.02V1.76463Z" fill="#3F3F3F"/>
<path d="M30.2085 36.2128C30.2085 35.2696 29.4459 34.502 28.5027 34.502C27.5595 34.502 26.7969 35.2646 26.7969 36.2128C26.7969 37.1611 27.5595 37.9186 28.5027 37.9186C29.4459 37.9186 30.2085 37.156 30.2085 36.2128Z" fill="#018C3B"/>
<path d="M37.7398 25.0292C37.7398 24.086 36.9772 23.3184 36.034 23.3184C35.0907 23.3184 34.3281 24.081 34.3281 25.0292C34.3281 25.9775 35.0907 26.735 36.034 26.735C36.9772 26.735 37.7398 25.9724 37.7398 25.0292Z" fill="#018C3B"/>
<path d="M31.3491 49.0761C31.3491 48.1329 30.5815 47.3652 29.6433 47.3652C28.7051 47.3652 27.9375 48.1279 27.9375 49.0761C27.9375 50.0243 28.7051 50.7819 29.6433 50.7819C30.5815 50.7819 31.3491 50.0193 31.3491 49.0761Z" fill="#018C3B"/>
<path d="M25.5599 30.0266C25.3191 30.0266 25.0833 29.9112 24.9378 29.6955C24.707 29.3493 24.7923 28.8827 25.1385 28.6519C30.9985 24.6784 28.6906 17.2329 28.6656 17.1577C28.5401 16.7613 28.7559 16.3399 29.1522 16.2094C29.5486 16.079 29.97 16.2997 30.1005 16.6961C30.1255 16.7814 32.7696 25.2955 25.9864 29.8962C25.8559 29.9815 25.7104 30.0266 25.5649 30.0266H25.5599Z" fill="#3F3F3F"/>
</svg>
