<svg preserveAspectRatio="none" viewBox="0 0 60 60" fill="none" xmlns="http://www.w3.org/2000/svg">
<path d="M49.5286 53.3346H8.26222C7.98924 53.3346 7.73901 53.2038 7.57408 52.9877C7.41484 52.7716 7.36364 52.4872 7.44327 52.2313C7.76744 51.1792 15.3997 26.3261 21.4565 19.7688C22.9295 18.1764 27.0471 16.3564 29.1855 16.3564C31.3238 16.3564 35.4414 18.1764 36.9144 19.7688C37.8926 20.8266 38.9618 22.436 40.0821 24.5403C40.3039 24.9555 40.1447 25.473 39.7295 25.6948C39.3144 25.9166 38.7968 25.7574 38.575 25.3422C37.5229 23.3688 36.539 21.8844 35.6575 20.9289C34.52 19.6948 30.8291 18.0626 29.1798 18.0626C27.5305 18.0626 23.8452 19.6948 22.702 20.9289C17.6006 26.4455 10.9864 46.6692 9.41104 51.6285H48.3798C47.5039 48.6541 44.9106 40.1005 41.8736 32.5934C41.5608 31.8199 41.2423 31.0522 40.9181 30.3014C40.6395 29.6588 40.3608 29.0275 40.0764 28.4133C39.8831 27.9867 40.0708 27.4806 40.4973 27.2815C40.9238 27.0825 41.43 27.2758 41.6291 27.7024C41.9134 28.328 42.2035 28.9706 42.4821 29.6247C42.812 30.3868 43.1362 31.1659 43.4546 31.9507C47.2196 41.255 50.302 52.1346 50.3362 52.2484C50.4101 52.5043 50.3589 52.783 50.194 52.9934C50.0347 53.2038 49.7788 53.3289 49.5115 53.3289L49.5286 53.3346Z" fill="#3F3F3F"/>
<path d="M34.6158 38.1334C32.2898 38.1334 31.158 36.4728 30.1628 35.0111C29.1561 33.5382 28.4736 32.6339 27.1201 32.6339C25.7665 32.6339 25.0841 33.5382 24.0774 35.0111C23.0822 36.4728 21.9504 38.1334 19.6244 38.1334C18.2537 38.1334 17.2699 37.6784 16.4395 36.6548C16.1438 36.2908 16.2007 35.7505 16.5646 35.4547C16.9286 35.159 17.4689 35.2159 17.7646 35.5799C18.1912 36.1031 18.6462 36.4273 19.6187 36.4273C20.9722 36.4273 21.6604 35.523 22.6613 34.05C23.6566 32.5884 24.7883 30.9277 27.1144 30.9277C29.4405 30.9277 30.5665 32.5884 31.5675 34.05C32.5741 35.523 33.2566 36.4273 34.6101 36.4273C35.9637 36.4273 36.6518 35.523 37.6528 34.05C38.6537 32.5884 39.7798 30.9277 42.1116 30.9277C42.5836 30.9277 42.9646 31.3088 42.9646 31.7808C42.9646 32.2529 42.5836 32.6339 42.1116 32.6339C40.758 32.6339 40.0699 33.5382 39.0632 35.0111C38.068 36.4728 36.9362 38.1334 34.6101 38.1334H34.6158Z" fill="#3F3F3F"/>
<path d="M21.4429 13.1254C20.9709 13.1254 20.5898 12.7443 20.5898 12.2723C20.5898 11.1007 21.0391 10.4808 21.3974 9.98035C21.6875 9.57656 21.8808 9.30355 21.8808 8.68365C21.8808 8.06374 21.6875 7.79078 21.3974 7.38699C21.0391 6.88651 20.5898 6.26659 20.5898 5.09503C20.5898 3.92346 21.0391 3.29789 21.3974 2.8031C21.6875 2.39931 21.8808 2.12631 21.8808 1.5064C21.8808 1.03436 22.2619 0.65332 22.7339 0.65332C23.206 0.65332 23.587 1.03436 23.587 1.5064C23.587 2.67796 23.1377 3.30357 22.7794 3.79836C22.4894 4.20215 22.296 4.47512 22.296 5.09503C22.296 5.71493 22.4894 5.98793 22.7794 6.39172C23.1377 6.8922 23.587 7.51209 23.587 8.68365C23.587 9.85521 23.1377 10.4751 22.7794 10.9756C22.4894 11.3794 22.296 11.6467 22.296 12.2723C22.296 12.7443 21.915 13.1254 21.4429 13.1254Z" fill="#018C3B"/>
<path d="M28.0796 12.472C27.6076 12.472 27.2266 12.091 27.2266 11.619C27.2266 10.4474 27.6759 9.82747 28.0341 9.32699C28.3242 8.9232 28.5176 8.65592 28.5176 8.03033C28.5176 7.40474 28.3242 7.13742 28.0341 6.73363C27.6759 6.23316 27.2266 5.61327 27.2266 4.4417C27.2266 3.27014 27.6759 2.64453 28.0341 2.14974C28.3242 1.74595 28.5176 1.47299 28.5176 0.853081C28.5176 0.381043 28.8986 0 29.3706 0C29.8427 0 30.2237 0.381043 30.2237 0.853081C30.2237 2.02464 29.7744 2.65022 29.4161 3.14501C29.1261 3.5488 28.9327 3.8218 28.9327 4.4417C28.9327 5.06161 29.1261 5.33458 29.4161 5.73837C29.7744 6.23884 30.2237 6.85877 30.2237 8.03033C30.2237 9.20189 29.7744 9.82178 29.4161 10.3223C29.1261 10.726 28.9327 10.999 28.9327 11.619C28.9327 12.091 28.5517 12.472 28.0796 12.472Z" fill="#018C3B"/>
<path d="M34.7203 12.7963C34.2482 12.7963 33.8672 12.4152 33.8672 11.9432C33.8672 10.7716 34.3165 10.1517 34.6748 9.65121C34.9648 9.24742 35.1582 8.97445 35.1582 8.35455C35.1582 7.73464 34.9648 7.46164 34.6748 7.05785C34.3165 6.55737 33.8672 5.93749 33.8672 4.76592C33.8672 3.59436 34.3165 2.96875 34.6748 2.47396C34.9648 2.07017 35.1582 1.7972 35.1582 1.1773C35.1582 0.705261 35.5392 0.324219 36.0113 0.324219C36.4833 0.324219 36.8643 0.705261 36.8643 1.1773C36.8643 2.34886 36.4151 2.97444 36.0568 3.46922C35.7667 3.87302 35.5733 4.14602 35.5733 4.76592C35.5733 5.38583 35.7667 5.6588 36.0568 6.06259C36.4151 6.56306 36.8643 7.18298 36.8643 8.35455C36.8643 9.52611 36.4151 10.146 36.0568 10.6465C35.7667 11.0503 35.5733 11.3233 35.5733 11.9432C35.5733 12.4152 35.1923 12.7963 34.7203 12.7963Z" fill="#018C3B"/>
<path d="M59.2111 60H0.78892C0.352384 60 0 59.665 0 59.25C0 58.835 0.352384 58.5 0.78892 58.5H59.2111C59.6476 58.5 60 58.835 60 59.25C60 59.665 59.6476 60 59.2111 60Z" fill="#3F3F3F"/>
</svg>
