<svg preserveAspectRatio="none" viewBox="0 0 81 70" fill="none" xmlns="http://www.w3.org/2000/svg">
<path d="M21.7736 41.5091C21.3921 41.5091 21.0409 41.2669 20.9137 40.8854C20.7563 40.407 21.0106 39.8923 21.489 39.7349L27.1992 37.8395C27.6776 37.6821 28.1923 37.9364 28.3497 38.4148C28.5072 38.8932 28.2528 39.4079 27.7745 39.5653L22.0643 41.4606C21.9674 41.4909 21.8705 41.5091 21.7797 41.5091H21.7736Z" fill="white"/>
<path d="M51.3823 41.5091C51.2854 41.5091 51.1885 41.497 51.0976 41.4606L45.3874 39.5653C44.9091 39.4079 44.6547 38.8932 44.8122 38.4148C44.9696 37.9364 45.4843 37.6821 45.9627 37.8395L51.6729 39.7349C52.1513 39.8923 52.4056 40.407 52.2482 40.8854C52.121 41.2669 51.7698 41.5091 51.3883 41.5091H51.3823Z" fill="white"/>
<path d="M63.1511 33.1351C53.3838 33.1351 44.8699 26.886 42.036 17.9664C37.6519 25.4569 28.2419 30.3436 17.7661 30.3436C16.3128 30.3436 14.8474 30.2467 13.4002 30.059C13.1096 30.0227 12.8128 29.9803 12.5222 29.9318C12.0256 29.8531 11.6865 29.3869 11.7653 28.8903C11.844 28.3938 12.3102 28.0547 12.8068 28.1334C13.0793 28.1758 13.3578 28.2182 13.6364 28.2545C14.9988 28.4301 16.3916 28.5209 17.7661 28.5209C28.5265 28.5209 38.0577 23.1014 41.4789 15.0296C41.6364 14.6602 42.0118 14.4422 42.4115 14.4785C42.8111 14.5209 43.1321 14.8177 43.2047 15.2113C45.0032 24.5426 53.3959 31.3125 63.1511 31.3125C63.6537 31.3125 64.0594 31.7182 64.0594 32.2208C64.0594 32.7234 63.6537 33.1291 63.1511 33.1291V33.1351Z" fill="white"/>
<path d="M36.5814 69.994C29.539 69.994 22.9204 67.2509 17.9369 62.2734C13.8011 58.1315 11.1609 52.7241 10.4343 46.9412C9.84691 47.0805 9.24743 47.1531 8.63584 47.1531C4.29414 47.1531 0.757812 43.6168 0.757812 39.2751C0.757812 34.8728 4.37892 31.3062 8.81145 31.4031L8.44812 28.2422C8.44812 28.2059 8.44812 28.1756 8.44812 28.1393C8.44812 27.6367 8.46023 27.1341 8.48445 26.6436C9.27771 11.699 21.6246 0 36.5874 0C44.1082 0 51.1748 2.92473 56.4853 8.24134C61.8019 13.558 64.7267 20.6246 64.7267 28.1393C64.7267 28.1756 64.7267 28.2059 64.7267 28.2422L64.3573 31.4334C64.5814 31.4152 64.8054 31.4031 65.0234 31.4031C69.3651 31.4031 72.9014 34.9394 72.9014 39.2811C72.9014 43.6228 69.3651 47.1592 65.0234 47.1592C64.2483 47.1592 63.4853 47.0441 62.7526 46.8201C61.1722 59.9118 49.9092 70 36.5935 70L36.5814 69.994ZM11.2215 44.8339C11.385 44.8339 11.5545 44.8824 11.6999 44.9671C11.9481 45.1185 12.1056 45.3789 12.1298 45.6635C12.6021 51.4403 15.1211 56.8841 19.2267 60.9896C23.859 65.622 30.0234 68.1774 36.5814 68.1774C49.3642 68.1774 60.1125 58.1981 61.0511 45.4637C61.0753 45.1609 61.2449 44.8945 61.5052 44.7431C61.7656 44.5917 62.0866 44.5796 62.359 44.7128C63.2007 45.1246 64.0969 45.3365 65.0173 45.3365C68.3599 45.3365 71.0788 42.6176 71.0788 39.2751C71.0788 35.9325 68.3599 33.2137 65.0173 33.2137C64.539 33.2137 64.0364 33.2803 63.5338 33.4074C63.2431 33.4801 62.9404 33.4075 62.7163 33.2076C62.4923 33.0139 62.3772 32.7171 62.4135 32.4204L62.9161 28.0848C62.904 21.0727 60.167 14.4784 55.2076 9.51902C50.2362 4.54756 43.6237 1.81055 36.5935 1.81055C22.5935 1.81055 11.0459 12.7526 10.3011 26.7223C10.2829 27.1644 10.2708 27.6246 10.2647 28.0787L10.7492 32.3054C10.7794 32.59 10.6765 32.8746 10.4706 33.0683C10.2647 33.2621 9.97408 33.3529 9.68948 33.3045C9.30799 33.2379 8.96889 33.2076 8.6419 33.2076C5.29934 33.2076 2.58047 35.9265 2.58047 39.269C2.58047 42.6116 5.29934 45.3305 8.6419 45.3305C9.41093 45.3305 10.1678 45.1851 10.8884 44.8945C10.9974 44.8521 11.1125 44.8278 11.2275 44.8278L11.2215 44.8339Z" fill="white"/>
<path d="M43.1218 57.6643C42.6192 57.6643 42.2135 57.2586 42.2135 56.756C42.2135 54.0251 39.8943 51.8088 37.0482 51.8088C34.2022 51.8088 31.883 54.0311 31.883 56.756C31.883 57.2586 31.4773 57.6643 30.9747 57.6643C30.4721 57.6643 30.0664 57.2586 30.0664 56.756C30.0664 53.0259 33.197 49.9922 37.0482 49.9922C40.8995 49.9922 44.0301 53.0259 44.0301 56.756C44.0301 57.2586 43.6244 57.6643 43.1218 57.6643Z" fill="white"/>
<path d="M48.4139 51.8167C46.3187 51.8167 44.6172 50.1151 44.6172 48.0199C44.6172 46.173 47.2149 43.1877 47.7357 42.6064C48.0809 42.2249 48.7409 42.2249 49.0861 42.6064C49.6068 43.1877 52.2046 46.173 52.2046 48.0199C52.2046 50.1151 50.503 51.8167 48.4079 51.8167H48.4139ZM48.4139 44.6168C47.3724 45.9127 46.4338 47.3902 46.4338 48.0199C46.4338 49.1099 47.3179 50 48.4139 50C49.5099 50 50.394 49.1159 50.394 48.0199C50.394 47.3902 49.4615 45.9127 48.4139 44.6168Z" fill="#018C3B"/>
</svg>
