<svg preserveAspectRatio="none" viewBox="0 0 81 70" fill="none" xmlns="http://www.w3.org/2000/svg">
<path d="M6.74333 64.0058C5.31642 64.0058 3.91693 63.5009 2.78089 62.557C1.45825 61.4594 0.667969 59.9118 0.667969 58.4136V40.5501C0.667969 39.0519 1.45825 37.4988 2.78089 36.4067C4.21878 35.2158 6.07377 34.7274 7.86839 35.0621C13.1096 36.0555 17.3802 37.861 17.3802 40.8355H16.213C16.568 40.8355 16.8528 40.8355 16.3205 40.8355H15.5C15.5 39.8696 13.6419 38.108 7.51165 36.95C6.28231 36.7195 5.00357 37.0598 4.01022 37.883C3.13761 38.6074 2.58881 39.6281 2.58881 40.5501V58.4136C2.58881 59.3356 3.13212 60.3563 4.01022 61.0807C5.00906 61.9094 6.2878 62.2497 7.51165 62.0137C8.35682 61.8545 10.0472 61.5088 11.8473 60.9929C12.3577 60.8447 12.89 61.1411 13.0327 61.6515C13.1809 62.1619 12.8846 62.6942 12.3742 62.8369C10.4972 63.3747 8.74649 63.7314 7.8629 63.8961C7.48971 63.9674 7.11653 64.0003 6.74333 64.0003V64.0058Z" fill="white"/>
<path d="M35.8579 64.9991C29.2996 64.9991 22.7028 64.3735 16.2598 63.1441C15.8043 63.0563 15.4805 62.6612 15.4805 62.2002V36.7469C15.4805 36.2859 15.8097 35.8908 16.2598 35.803C29.1514 33.3443 42.5699 33.3443 55.4615 35.803C55.917 35.8908 56.2408 36.2859 56.2408 36.7469V62.2002C56.2408 62.6612 55.9116 63.0563 55.4615 63.1441C49.0185 64.3735 42.4217 64.9991 35.8634 64.9991H35.8579ZM17.3958 61.4044C29.552 63.6216 42.1583 63.6216 54.3145 61.4044V37.5426C42.1583 35.3255 29.552 35.3255 17.3958 37.5426V61.4044Z" fill="white"/>
<path d="M47.3479 46.6488C39.7359 45.864 31.9537 45.864 24.3417 46.6488C23.8148 46.6982 23.3867 46.3195 23.3867 45.7927C23.3867 45.2658 23.8148 44.7554 24.3417 44.6566C31.9537 43.3176 39.7359 43.3176 47.3479 44.6566C47.8748 44.7554 48.3028 45.2658 48.3028 45.7927C48.3028 46.3195 47.8748 46.7037 47.3479 46.6488Z" fill="white"/>
<path d="M47.3479 54.3001C39.7359 55.6392 31.9537 55.6392 24.3417 54.3001C23.8148 54.2013 23.3867 53.6909 23.3867 53.1641C23.3867 52.6372 23.8148 52.2531 24.3417 52.308C31.9537 53.0927 39.7359 53.0927 47.3479 52.308C47.8748 52.2586 48.3028 52.6372 48.3028 53.1641C48.3028 53.6909 47.8748 54.2013 47.3479 54.3001Z" fill="white"/>
<path d="M64.6356 63.0058C66.0625 63.0058 67.462 62.5009 68.598 61.557C69.9207 60.4594 70.7109 58.9118 70.7109 57.4136V39.5501C70.7109 38.0519 69.9207 36.4988 68.598 35.4067C67.1601 34.2158 65.3051 33.7274 63.5105 34.0621C58.2693 35.0555 54.3102 36.861 54.3102 39.8355H55.1659C54.8109 39.8355 54.5261 39.8355 55.0584 39.8355H56.2146C56.2146 38.8696 57.737 37.108 63.8673 35.95C65.0966 35.7195 66.3753 36.0598 67.3687 36.883C68.2413 37.6074 68.7901 38.6281 68.7901 39.5501V57.4136C68.7901 58.3356 68.2468 59.3563 67.3687 60.0807C66.3698 60.9094 65.0911 61.2497 63.8673 61.0137C63.0221 60.8545 61.3317 60.5088 59.5316 59.9929C59.0212 59.8447 58.4889 60.1411 58.3462 60.6515C58.198 61.1619 58.4943 61.6942 59.0047 61.8369C60.8817 62.3747 62.6324 62.7314 63.516 62.8961C63.8892 62.9674 64.2624 63.0003 64.6356 63.0003V63.0058Z" fill="white"/>
<path d="M28.2603 27.5329C28.2109 27.5329 28.156 27.5329 28.1066 27.5219C27.8541 27.4835 27.6291 27.3408 27.4809 27.1377L20.6921 17.7204C20.3848 17.2923 20.4781 16.6886 20.9116 16.3813L36.4211 5.20773C36.8492 4.90041 37.4529 4.99368 37.7602 5.42723C38.0675 5.8553 37.9742 6.45898 37.5407 6.7663L22.8105 17.3801L28.4743 25.2389L45.7729 12.7757C46.2009 12.4683 46.8046 12.5616 47.112 12.9952L49.0657 15.7063C49.3731 16.1343 49.2798 16.738 48.8462 17.0453C48.4181 17.3527 47.8144 17.2594 47.5071 16.8258L46.1131 14.894L28.8145 27.3573C28.6499 27.478 28.4523 27.5384 28.2548 27.5384L28.2603 27.5329Z" fill="white"/>
<path d="M48.2915 17.216C47.9951 17.216 47.6987 17.0788 47.5121 16.8209L36.6401 1.81123C36.3273 1.38317 36.4261 0.779488 36.8542 0.472161C37.2823 0.159345 37.8859 0.258137 38.1933 0.686201L49.0653 15.6959C49.3781 16.1239 49.2793 16.7276 48.8512 17.0349C48.6811 17.1557 48.4835 17.216 48.286 17.216H48.2915Z" fill="white"/>
<path d="M32.4831 17.0262C32.1868 17.0262 31.8904 16.889 31.7038 16.6256C31.3965 16.1975 31.4898 15.5938 31.9233 15.2865L35.2766 12.8718C35.7047 12.5645 36.3084 12.6578 36.6157 13.0913C36.923 13.5194 36.8297 14.1231 36.3962 14.4304L33.0429 16.8451C32.8728 16.9658 32.6752 17.0262 32.4831 17.0262Z" fill="#018C3B"/>
<path d="M35.3706 17.494C35.0742 17.494 34.7779 17.3567 34.5913 17.0933L32.1765 13.7402C31.8691 13.3121 31.9625 12.7084 32.396 12.4011C32.8241 12.0938 33.4278 12.1871 33.7351 12.6206L36.1499 15.9738C36.4572 16.4018 36.3639 17.0055 35.9304 17.3128C35.7602 17.4336 35.5627 17.494 35.3706 17.494Z" fill="#018C3B"/>
<path d="M20.3073 26.1058C20.011 26.1058 19.7146 25.9686 19.528 25.7052C19.2207 25.2771 19.314 24.6734 19.7476 24.3661L24.3027 21.0788C24.7308 20.7715 25.3345 20.8648 25.6418 21.2983C25.9492 21.7264 25.8558 22.3301 25.4223 22.6374L20.8671 25.9247C20.697 26.0455 20.4994 26.1058 20.3073 26.1058Z" fill="white"/>
<path d="M43.6574 9.04276C43.3611 9.04276 43.0647 8.90557 42.8781 8.64214C42.5653 8.21408 42.6641 7.6104 43.0976 7.30307L48.5199 3.40108C48.948 3.09375 49.5517 3.18706 49.859 3.62061C50.1718 4.04868 50.073 4.65236 49.6395 4.95969L44.2172 8.86164C44.047 8.98238 43.8495 9.04276 43.6574 9.04276Z" fill="white"/>
<path d="M51.3964 8.35201C51.1 8.35201 50.8037 8.21482 50.6171 7.9514L45.9851 1.51945C45.6777 1.09139 45.771 0.487705 46.2046 0.180377C46.6327 -0.12695 47.2364 -0.033641 47.5437 0.399911L52.1757 6.83182C52.483 7.25989 52.3897 7.86357 51.9562 8.1709C51.786 8.29163 51.5885 8.35201 51.3964 8.35201Z" fill="white"/>
</svg>
