<svg preserveAspectRatio="none" viewBox="0 0 81 70" fill="none" xmlns="http://www.w3.org/2000/svg">
<path d="M23.826 14.9423C19.7058 14.9423 16.3555 11.5917 16.3555 7.47116C16.3555 3.35065 19.7058 0 23.826 0C27.9462 0 31.2965 3.35065 31.2965 7.47116C31.2965 11.5917 27.9462 14.9423 23.826 14.9423ZM23.826 1.89218C20.7521 1.89218 18.2529 4.39161 18.2529 7.46574C18.2529 10.5399 20.7521 13.0393 23.826 13.0393C26.8999 13.0393 29.3991 10.5399 29.3991 7.46574C29.3991 4.39161 26.8999 1.89218 23.826 1.89218Z" fill="white"/>
<path d="M29.386 69.9993C26.5236 69.9993 24.1924 67.668 24.1924 64.8053V44.4792H23.4606V64.8053C23.4606 67.668 21.1348 69.9993 18.2724 69.9993C15.41 69.9993 13.0788 67.668 13.0788 64.8053V53.8046C13.068 53.7504 13.0625 53.6907 13.0625 53.6365V38.7647C13.0625 38.6996 13.0625 38.6292 13.0734 38.5587C13.0734 38.5316 13.0734 38.5045 13.0734 38.4828V38.434C13.0625 38.4015 13.0625 38.3689 13.0625 38.3364C13.0625 38.3147 13.0571 38.2713 13.0571 38.2225V31.8357L7.79306 40.3641C7.20756 41.3183 6.28052 41.9906 5.19084 42.2563C4.10116 42.522 2.96811 42.3431 2.00854 41.7521C1.04898 41.1665 0.376735 40.2394 0.116514 39.1497C-0.143708 38.0545 0.0351985 36.9268 0.620697 35.9671L8.5683 23.0851C8.83937 22.6405 9.42486 22.4995 9.87483 22.7706C10.3194 23.0471 10.4603 23.6272 10.1893 24.0772L9.60919 25.0206L2.23624 36.9593C1.91638 37.4852 1.8188 38.1033 1.95976 38.6996C2.10613 39.3015 2.47478 39.8057 3.00064 40.1256C3.52651 40.4454 4.14453 40.543 4.7463 40.4021C5.34806 40.2557 5.85224 39.887 6.17751 39.3611L12.7427 28.7291C13.0083 28.3008 13.5667 28.1544 14.0059 28.3984C14.5913 28.7237 14.9546 29.3363 14.9546 30.0086V38.2171C14.9546 38.2171 14.9546 38.2334 14.9546 38.2442L14.9654 38.331C14.9654 38.3635 14.9654 38.396 14.9654 38.4286V38.4936C14.9654 38.5316 14.9654 38.5641 14.9654 38.5912V38.6129C14.9654 38.6509 14.9654 38.6942 14.96 38.7322V53.463C14.96 53.5172 14.9708 53.5769 14.9708 53.6311V64.7999C14.9708 66.6162 16.4509 68.0963 18.267 68.0963C20.0831 68.0963 21.5577 66.6162 21.5577 64.7999V43.525C21.5577 42.9991 21.9806 42.5762 22.5064 42.5762H25.1357C25.6616 42.5762 26.0845 42.9991 26.0845 43.525V64.7999C26.0845 66.6162 27.5645 68.0963 29.3806 68.0963C31.1967 68.0963 32.6768 66.6162 32.6768 64.7999V38.1683C32.6768 38.1683 32.6768 38.1087 32.6768 38.0653V30.0086C32.6768 29.3418 33.0454 28.7237 33.6417 28.3984C34.0863 28.1544 34.6393 28.3008 34.9049 28.7291L41.4701 39.3611C41.7954 39.8924 42.2995 40.2611 42.9013 40.4021C43.5031 40.5485 44.1211 40.4454 44.6469 40.1256C45.1728 39.8057 45.5415 39.296 45.6878 38.6996C45.8342 38.0978 45.7366 37.4798 45.4114 36.9539L36.927 23.2152C36.927 23.2152 36.9108 23.1881 36.8999 23.1772L34.7314 19.6477C34.0809 18.5904 32.8611 18.0483 31.007 17.9995L30.7088 17.9886C27.391 17.8585 22.7883 17.8585 17.0418 17.9886C14.1305 18.0483 13.5342 18.8181 12.8782 19.7182L12.0108 21.1333C11.7343 21.5778 11.1543 21.7188 10.7043 21.4477C10.2597 21.1766 10.1188 20.5911 10.3899 20.1411L11.2789 18.6935C11.2789 18.6935 11.3061 18.6501 11.3223 18.6284C12.3036 17.2838 13.4095 16.1669 16.9984 16.091C22.7883 15.9609 27.4235 15.9663 30.7847 16.0964L31.0721 16.1073C33.5659 16.1724 35.3494 17.0344 36.347 18.6555L38.4992 22.1579C38.4992 22.1579 38.5155 22.1796 38.5209 22.1905L47.0215 35.9617C47.6124 36.9213 47.7913 38.049 47.5257 39.1442C47.2654 40.234 46.5932 41.1611 45.6336 41.7467C44.6741 42.3322 43.5464 42.5111 42.4568 42.2509C41.3671 41.9906 40.44 41.3183 39.8545 40.3587L34.5634 31.7869L34.5796 38.0707C34.5796 38.0707 34.5796 38.1304 34.5796 38.1738V64.8053C34.5796 67.668 32.2485 69.9993 29.386 69.9993Z" fill="white"/>
<path d="M57.6067 40.1922C57.3194 40.1922 57.0375 40.0621 56.8477 39.8127C56.5333 39.3952 56.6146 38.7989 57.032 38.4844L58.8427 37.1127L46.4659 20.7228C46.3141 20.5222 46.2491 20.2674 46.2816 20.018C46.3141 19.7686 46.4497 19.5409 46.6503 19.3891L55.5845 12.6444C56.002 12.33 56.5983 12.4113 56.9128 12.8288L67.9505 27.4403C68.2649 27.8578 68.1836 28.4542 67.7662 28.7687C67.3487 29.0831 66.7524 29.0018 66.438 28.5843L55.9749 14.7318L48.5586 20.3324L60.9354 36.7224C61.2498 37.1398 61.1685 37.7362 60.751 38.0507L58.1813 39.9916C58.0079 40.1218 57.8073 40.1814 57.6121 40.1814L57.6067 40.1922Z" fill="white"/>
<path d="M57.6089 40.1922C57.3216 40.1922 57.0397 40.062 56.8553 39.8181C56.5409 39.4006 56.6222 38.8042 57.0397 38.4897L71.2705 27.6842C71.688 27.3643 72.2843 27.4511 72.5988 27.8632C72.9132 28.2806 72.8319 28.877 72.4144 29.1915L58.1836 39.997C58.0101 40.1271 57.8095 40.1922 57.6089 40.1922Z" fill="white"/>
<path d="M51.692 17.7305C51.4046 17.7305 51.1227 17.6003 50.933 17.3564L47.6639 13.0353C47.3495 12.6178 47.4308 12.0214 47.8483 11.7069C48.2657 11.3925 48.862 11.4738 49.1765 11.8913L52.4455 16.2124C52.7599 16.6299 52.6786 17.2263 52.2612 17.5407C52.0877 17.6708 51.8871 17.7305 51.692 17.7305Z" fill="white"/>
<path d="M69.2655 40.6874C68.9782 40.6874 68.6963 40.5573 68.5065 40.3079L64.6249 35.168C64.3104 34.7506 64.3918 34.1542 64.8092 33.8397C65.2266 33.5253 65.823 33.6066 66.1374 34.0241L70.0191 39.1639C70.3335 39.5814 70.2522 40.1777 69.8347 40.4922C69.6613 40.6223 69.4607 40.682 69.2655 40.682V40.6874Z" fill="white"/>
<path d="M66.2198 42.992C65.9325 42.992 65.6506 42.8619 65.4608 42.6125C65.1464 42.195 65.2277 41.5986 65.6452 41.2841L71.7441 36.6757C72.1615 36.3612 72.7579 36.4426 73.0723 36.86C73.3867 37.2775 73.3054 37.8739 72.888 38.1883L66.789 42.7968C66.6156 42.9269 66.415 42.9866 66.2198 42.9866V42.992Z" fill="white"/>
<path d="M56.9089 27.5461C56.6162 27.5461 56.3235 27.4106 56.1391 27.1504C55.8355 26.7275 55.9277 26.1311 56.356 25.8274L59.6684 23.4419C60.0913 23.1383 60.6876 23.2304 60.9912 23.6588C61.2948 24.0816 61.2026 24.678 60.7743 24.9817L57.4619 27.3672C57.2939 27.4865 57.0987 27.5461 56.9089 27.5461Z" fill="#018C3B"/>
<path d="M59.7631 28.0065C59.4703 28.0065 59.1776 27.8709 58.9933 27.6106L56.6079 24.298C56.3043 23.8751 56.3965 23.2787 56.8247 22.9751C57.2476 22.6715 57.8439 22.7636 58.1475 23.192L60.5329 26.5046C60.8365 26.9275 60.7443 27.5239 60.316 27.8275C60.148 27.9468 59.9528 28.0065 59.7631 28.0065Z" fill="#018C3B"/>
<path d="M50.0531 65.7282C46.166 65.7282 43 62.5619 43 58.6746C43 55.1233 48.6219 46.5082 49.2616 45.5377C49.4351 45.272 49.7332 45.1094 50.0531 45.1094C50.3729 45.1094 50.6711 45.2666 50.8446 45.5377C50.8934 45.6136 52.1023 47.4461 53.4522 49.7938C53.7125 50.2492 53.5552 50.8293 53.1053 51.0896C52.6499 51.3498 52.0698 51.1926 51.8096 50.7426C51.1536 49.5986 50.5193 48.5684 50.0477 47.8202C48.1123 50.9052 44.892 56.4896 44.892 58.68C44.892 61.5264 47.2069 63.836 50.0477 63.836C52.8884 63.836 55.2033 61.521 55.2033 58.68C55.2033 58.1107 54.9322 56.6305 53.1324 53.1661C52.8884 52.6998 53.0727 52.1305 53.539 51.8865C54.0052 51.6426 54.5744 51.8269 54.8184 52.2932C56.3526 55.248 57.1007 57.3408 57.1007 58.6854C57.1007 62.5782 53.9347 65.7391 50.0477 65.7391L50.0531 65.7282Z" fill="white"/>
</svg>
