<svg preserveAspectRatio="none" viewBox="0 0 80 70" fill="none" xmlns="http://www.w3.org/2000/svg">
<path d="M62.3972 33.1351C52.6299 33.1351 44.116 26.886 41.2821 17.9664C36.898 25.4569 27.488 30.3436 17.0122 30.3436C15.5589 30.3436 14.0935 30.2467 12.6463 30.059C12.3496 30.0227 12.0589 29.9803 11.7683 29.9318C11.2717 29.8531 10.9326 29.3869 11.0114 28.8903C11.0901 28.3938 11.5563 28.0547 12.0529 28.1334C12.3253 28.1758 12.6039 28.2182 12.8824 28.2545C14.2449 28.4301 15.6376 28.5209 17.0122 28.5209C27.7726 28.5209 37.3038 23.1014 40.725 15.0296C40.8825 14.6602 41.2639 14.4422 41.6575 14.4785C42.0572 14.5209 42.3781 14.8177 42.4569 15.2113C44.2553 24.5426 52.648 31.3125 62.4032 31.3125C62.9058 31.3125 63.3115 31.7182 63.3115 32.2208C63.3115 32.7234 62.9058 33.1291 62.4032 33.1291L62.3972 33.1351Z" fill="white"/>
<path d="M35.8235 69.994C28.7811 69.994 22.1626 67.2509 17.1791 62.2734C13.0433 58.1315 10.4031 52.7241 9.67646 46.9412C9.08909 47.0805 8.48959 47.1531 7.878 47.1531C3.5363 47.1531 0 43.6168 0 39.2751C0 34.9334 3.59688 31.3062 8.05363 31.4031L7.69028 28.2422C7.69028 28.2059 7.69028 28.1756 7.69028 28.1393C7.69028 27.6367 7.70239 27.1341 7.72661 26.6436C8.51987 11.699 20.8668 0 35.8296 0C43.3503 0 50.4169 2.92473 55.7275 8.24134C61.0441 13.558 63.9688 20.6246 63.9688 28.1393C63.9688 28.1756 63.9688 28.2059 63.9688 28.2422L63.5995 31.4334C63.8235 31.4152 64.0476 31.4031 64.2655 31.4031C68.6072 31.4031 72.1436 34.9394 72.1436 39.2811C72.1436 43.6228 68.6072 47.1592 64.2655 47.1592C63.4905 47.1592 62.7275 47.0441 61.9948 46.8201C60.4143 59.9118 49.1514 70 35.8356 70L35.8235 69.994ZM10.4637 44.8339C10.6271 44.8339 10.7967 44.8824 10.942 44.9671C11.1903 45.1185 11.3477 45.3789 11.372 45.6635C11.8443 51.4403 14.3694 56.8841 18.4689 60.9896C23.1012 65.622 29.2656 68.1774 35.8235 68.1774C48.6064 68.1774 59.3547 58.1981 60.2932 45.4637C60.3175 45.1609 60.487 44.8945 60.7474 44.7431C61.0078 44.5917 61.3287 44.5796 61.6012 44.7128C62.4429 45.1246 63.3391 45.3365 64.2595 45.3365C67.6021 45.3365 70.3209 42.6176 70.3209 39.2751C70.3209 35.9325 67.6021 33.2137 64.2595 33.2137C63.7812 33.2137 63.2785 33.2803 62.776 33.4074C62.4853 33.4801 62.1825 33.4075 61.9585 33.2076C61.7344 33.0139 61.6194 32.7171 61.6557 32.4204L62.1583 28.0848C62.1462 21.0727 59.4092 14.4784 54.4498 9.51902C49.4784 4.54756 42.8659 1.81055 35.8356 1.81055C21.8356 1.81055 10.288 12.7526 9.54322 26.7223C9.52506 27.1644 9.51295 27.6246 9.50689 28.0787L9.99135 32.3054C10.0216 32.59 9.91867 32.8746 9.71279 33.0683C9.50691 33.2621 9.21626 33.3529 8.93166 33.3045C8.55017 33.2379 8.20499 33.2076 7.88406 33.2076C4.5415 33.2076 1.82263 35.9265 1.82263 39.269C1.82263 42.6116 4.5415 45.3305 7.88406 45.3305C8.65309 45.3305 9.41002 45.1851 10.1306 44.8945C10.2396 44.8521 10.3547 44.8278 10.4697 44.8278L10.4637 44.8339Z" fill="white"/>
<path d="M43.5848 56.0726C42.5917 56.0726 42.0528 55.5519 41.7016 55.2128C41.417 54.9342 41.3262 54.8615 41.0779 54.8615C40.8296 54.8615 40.7449 54.9342 40.4542 55.2128C40.0969 55.5579 39.564 56.0726 38.571 56.0726C37.5779 56.0726 37.039 55.5519 36.6877 55.2128C36.4031 54.9342 36.3123 54.8615 36.0641 54.8615C35.8158 54.8615 35.731 54.9342 35.4403 55.2128C35.0831 55.5579 34.5502 56.0726 33.5571 56.0726C32.5641 56.0726 32.0251 55.5579 31.6739 55.2128C31.3833 54.9342 31.2985 54.8615 31.0502 54.8615C30.8019 54.8615 30.7172 54.9342 30.4265 55.2128C30.0693 55.5579 29.5363 56.0726 28.5372 56.0726C28.0346 56.0726 27.6289 55.6669 27.6289 55.1643C27.6289 54.6617 28.0346 54.256 28.5372 54.256C28.7855 54.256 28.8763 54.1834 29.1609 53.9048C29.5182 53.5597 30.0511 53.0449 31.0441 53.0449C32.0372 53.0449 32.5761 53.5657 32.9273 53.9048C33.218 54.1834 33.3028 54.256 33.5511 54.256C33.7993 54.256 33.8841 54.1834 34.1748 53.9048C34.532 53.5597 35.0649 53.0449 36.058 53.0449C37.0511 53.0449 37.59 53.5657 37.9412 53.9048C38.2258 54.1834 38.3166 54.256 38.5649 54.256C38.8132 54.256 38.898 54.1834 39.1886 53.9048C39.5459 53.5597 40.0787 53.0449 41.0718 53.0449C42.0649 53.0449 42.6038 53.5657 42.955 53.9048C43.2457 54.1834 43.3305 54.256 43.5788 54.256C44.0813 54.256 44.4871 54.6617 44.4871 55.1643C44.4871 55.6669 44.0813 56.0726 43.5788 56.0726H43.5848Z" fill="white"/>
<path d="M21.2731 44.3313C20.8916 44.3313 20.5403 44.0891 20.4132 43.7076C20.2557 43.2292 20.5161 42.7145 20.9884 42.5571L26.6986 40.6618C27.171 40.5044 27.6857 40.7586 27.8492 41.237C28.0066 41.7154 27.7462 42.2301 27.2739 42.3876L21.5637 44.2829C21.4668 44.3132 21.3699 44.3313 21.2791 44.3313H21.2731Z" fill="white"/>
<path d="M50.8822 44.3313C50.7853 44.3313 50.6885 44.3192 50.5976 44.2829L44.8874 42.3876C44.4091 42.2301 44.1547 41.7154 44.3122 41.237C44.4696 40.7586 44.9843 40.5044 45.4627 40.6618L51.1729 42.5571C51.6513 42.7145 51.9056 43.2292 51.7481 43.7076C51.621 44.0891 51.2698 44.3313 50.8883 44.3313H50.8822Z" fill="white"/>
<path d="M28.3302 36.5984C27.8276 36.5984 27.4219 36.1927 27.4219 35.6901V30.6036C27.4219 30.101 27.8276 29.6953 28.3302 29.6953C28.8328 29.6953 29.2385 30.101 29.2385 30.6036V35.6901C29.2385 36.1927 28.8328 36.5984 28.3302 36.5984Z" fill="#018C3B"/>
<path d="M33.4825 37.4521C32.9799 37.4521 32.5742 37.0463 32.5742 36.5438V28.4356C32.5742 27.9331 32.9799 27.5273 33.4825 27.5273C33.9851 27.5273 34.3908 27.9331 34.3908 28.4356V36.5438C34.3908 37.0463 33.9851 37.4521 33.4825 37.4521Z" fill="#018C3B"/>
<path d="M38.6427 37.4516C38.1401 37.4516 37.7344 37.0459 37.7344 36.5433V25.3106C37.7344 24.8081 38.1401 24.4023 38.6427 24.4023C39.1453 24.4023 39.551 24.8081 39.551 25.3106V36.5433C39.551 37.0459 39.1453 37.4516 38.6427 37.4516Z" fill="#018C3B"/>
<path d="M43.7989 36.549C43.2963 36.549 42.8906 36.1432 42.8906 35.6407V27.3751C42.8906 26.8725 43.2963 26.4668 43.7989 26.4668C44.3015 26.4668 44.7072 26.8725 44.7072 27.3751V35.6407C44.7072 36.1432 44.3015 36.549 43.7989 36.549Z" fill="#018C3B"/>
</svg>
