<svg preserveAspectRatio="none" viewBox="0 0 82 70" fill="none" xmlns="http://www.w3.org/2000/svg">
<path d="M50.2038 63.5093C50.1372 63.5093 50.0707 63.5038 50.0042 63.4872C49.4774 63.3763 49.1448 62.8606 49.2557 62.3394C49.2668 62.2784 50.5032 56.4178 51.4513 49.3817C51.5233 48.8494 52.0168 48.4779 52.5435 48.55C53.0757 48.622 53.4472 49.11 53.3751 49.6422C52.416 56.7504 51.1629 62.6832 51.1518 62.7386C51.0576 63.1933 50.6529 63.5093 50.2038 63.5093Z" fill="white"/>
<path d="M53.1389 44.1087C53.1111 44.1087 53.0778 44.1087 53.0501 44.1087C52.5179 44.0588 52.1242 43.5875 52.1741 43.0552C52.4624 39.8948 52.59 37.0892 52.5567 34.6995C52.4902 30.0475 51.3037 25.4954 49.3909 22.5124C41.6343 10.4418 15.6423 7.5974 4.82522 6.93759C4.29296 6.90433 3.88268 6.44412 3.91595 5.91184C3.94922 5.37955 4.40939 4.9637 4.94165 5.00251C18.7416 5.84529 43.0814 9.10553 51.0209 21.4645C53.1222 24.7358 54.4252 29.6705 54.4972 34.6718C54.5305 37.1225 54.3974 40.0057 54.1036 43.2271C54.0592 43.7317 53.6323 44.1087 53.1389 44.1087Z" fill="white"/>
<path d="M19.1687 63.5089C19.1687 63.5089 19.1521 63.5089 19.141 63.5089C18.6032 63.4979 18.1818 63.0487 18.1985 62.5165C18.265 59.8828 18.4701 57.5041 18.6476 55.4083C19.0745 50.3793 19.385 46.742 17.5719 43.6925C16.1138 41.2528 10.4142 39.7225 1.93129 39.4897C1.39349 39.473 0.972124 39.0294 0.988757 38.4916C1.00539 37.9538 1.45448 37.538 1.98674 37.549C8.56236 37.7265 16.8955 38.7633 19.2408 42.6944C21.3809 46.2818 21.0261 50.3793 20.5881 55.569C20.4107 57.6372 20.2111 59.9826 20.1445 62.5608C20.1335 63.0875 19.701 63.5089 19.1743 63.5089H19.1687Z" fill="white"/>
<path d="M26.1651 38.7973C24.5406 38.7973 23.21 38.2594 22.2009 37.1948C20.338 35.221 20.1883 31.9607 20.2438 30.3306L2.83445 28.4621C2.30219 28.4066 1.91407 27.9243 1.97506 27.392C2.03605 26.8597 2.51286 26.4771 3.04512 26.5326L21.3859 28.5009C21.6465 28.5286 21.8793 28.6617 22.0401 28.8613C22.2009 29.0664 22.273 29.327 22.2397 29.5821C22.2397 29.6265 21.7352 33.8792 23.6147 35.8586C24.3189 36.6016 25.278 36.9232 26.5588 36.84C28.4162 36.718 29.7468 36.097 30.5175 34.9992C32.0422 32.8257 31.0719 29.3714 31.0608 29.3381C30.9832 29.0664 31.0275 28.7726 31.1828 28.5397C31.338 28.3013 31.5875 28.146 31.8648 28.1072C31.9257 28.0961 38.3461 27.1813 37.8471 23.0838C37.6531 21.4925 36.9933 20.3281 35.8401 19.5131C32.7186 17.3119 27.1631 18.5206 27.1077 18.5317C27.0023 18.5538 26.897 18.5649 26.7861 18.5483L3.95995 15.9812C3.42769 15.9202 3.04513 15.4433 3.10612 14.911C3.1671 14.3787 3.64392 13.9962 4.17618 14.0572L26.8471 16.6077C27.895 16.397 33.4394 15.4489 36.96 17.9273C38.5624 19.0584 39.5104 20.7162 39.7766 22.8509C40.2977 27.1314 36.1284 29.1829 33.1566 29.8482C33.4006 31.312 33.5724 34.0233 32.1198 36.1081C30.9998 37.716 29.1757 38.6143 26.6974 38.7806C26.52 38.7917 26.3481 38.7973 26.1762 38.7973H26.1651Z" fill="white"/>
<path d="M44.2634 40.9149C43.5925 40.9149 42.7941 40.7153 41.8128 40.305C39.1958 39.2127 39.1182 37.4827 39.0239 35.4811C39.0018 35.0542 38.9796 34.594 38.9352 34.0839C38.7634 32.1488 38.7634 30.2637 38.7689 28.4395C38.7689 27.4414 38.7689 26.4101 38.7467 25.3788C38.7356 24.9907 38.8742 24.6248 39.1293 24.3642C39.4287 24.0537 39.8556 23.8984 40.3989 23.8984C41.7961 23.8984 44.7568 25.1515 45.3667 26.1884C46.4756 28.0791 46.5587 30.8569 46.6308 33.3132C46.653 34.1116 46.6752 34.8657 46.7362 35.4978C46.9136 37.4661 46.9912 39.1739 46.0708 40.1774C45.6273 40.6654 45.0174 40.9093 44.2689 40.9093L44.2634 40.9149ZM40.6928 25.8668C40.7094 26.7428 40.7094 27.6022 40.7094 28.445C40.7094 30.308 40.7094 32.0712 40.8702 33.9175C40.9201 34.4554 40.9423 34.9433 40.9645 35.3924C41.0532 37.3164 41.0809 37.8986 42.5668 38.5196C43.4705 38.8966 43.9917 38.9798 44.2689 38.9798C44.5461 38.9798 44.6182 38.9022 44.6404 38.88C45.0507 38.4309 44.8788 36.5069 44.8012 35.6863C44.7402 34.9932 44.7125 34.2114 44.6903 33.3797C44.6238 31.1619 44.5517 28.6446 43.6923 27.1808C43.4206 26.8814 41.724 26.0331 40.6983 25.8723L40.6928 25.8668Z" fill="#018C3B"/>
<path d="M38.5514 64.9957C38.0358 64.9957 37.6034 64.5854 37.5812 64.0642C37.5645 63.6428 37.1764 53.7069 37.9415 50.1029C38.4128 47.8961 39.2334 46.6818 39.8932 45.706C40.5918 44.6747 41.0907 43.9317 41.0907 42.2295C41.0907 38.2762 39.6326 37.9546 37.8695 37.9546H32.7409C30.0685 37.9546 28.9819 39.0413 28.9819 41.6972C28.9819 43.3828 29.4808 44.1036 30.1683 45.1072C30.8226 46.0608 31.6376 47.2418 32.1311 49.4264C32.9683 53.1358 33.0292 63.5818 33.0348 64.0254C33.0348 64.5632 32.6079 64.9957 32.0701 65.0013C31.5378 65.0013 31.1054 64.5688 31.0998 64.0365C31.0998 63.9311 31.0333 53.3631 30.246 49.8534C29.8357 48.0403 29.1981 47.1088 28.5771 46.2105C27.8286 45.1183 27.0469 43.9927 27.0469 41.7028C27.0469 39.1079 28.0338 36.0195 32.7465 36.0195H37.875C41.4456 36.0195 43.0368 37.938 43.0368 42.235C43.0368 44.5305 42.2551 45.6838 41.5066 46.7983C40.8856 47.7187 40.2369 48.6724 39.8488 50.5132C39.128 53.8843 39.5217 63.8923 39.5273 63.9921C39.5494 64.53 39.1336 64.9791 38.5958 65.0013C38.5847 65.0013 38.5681 65.0013 38.557 65.0013L38.5514 64.9957Z" fill="white"/>
<path d="M28.018 64.9942C28.018 64.9942 27.9903 64.9942 27.9736 64.9942C27.4358 64.972 27.0256 64.5173 27.0477 63.9795L27.9237 44.8838C27.9459 44.346 28.4116 43.9357 28.9383 43.9579C29.4762 43.9801 29.8864 44.4347 29.8643 44.9725L28.9883 64.0682C28.9661 64.5894 28.5336 64.9942 28.018 64.9942Z" fill="white"/>
<path d="M69.5983 41.5869C69.3321 41.5869 69.0605 41.476 68.8719 41.2597C68.5171 40.8605 68.5559 40.2451 68.9551 39.8902C72.3482 36.885 74.4219 33.0149 74.9486 28.6956C75.5917 23.4116 73.7288 18.0389 69.8311 13.9525C69.4596 13.5644 69.4763 12.9489 69.8644 12.583C70.2525 12.2115 70.8679 12.2281 71.2338 12.6162C75.5307 17.124 77.5877 23.0678 76.8725 28.9341C76.2958 33.6636 73.9395 38.0716 70.2414 41.3429C70.0584 41.5037 69.8256 41.5869 69.5983 41.5869Z" fill="#018C3B"/>
<path d="M64.951 37.5613C64.6793 37.5613 64.4076 37.4448 64.2135 37.223C63.8643 36.8183 63.9142 36.2028 64.3189 35.8535C66.7418 33.7743 68.2831 30.9632 68.6546 27.9303C69.1203 24.0878 67.6954 20.2288 64.7403 17.3345C64.3577 16.9575 64.3522 16.3476 64.7237 15.965C65.1007 15.5824 65.7105 15.5769 66.0986 15.9483C69.4863 19.264 71.1219 23.7164 70.5785 28.1631C70.1516 31.6784 68.3774 34.9331 65.583 37.3228C65.4001 37.4781 65.1727 37.5557 64.951 37.5557V37.5613Z" fill="#018C3B"/>
<path d="M60.5607 33.7581C60.2779 33.7581 59.9951 33.6306 59.8011 33.3922C59.4684 32.9708 59.5349 32.3609 59.9563 32.0282C61.5143 30.7862 62.4956 29.0785 62.7229 27.2099C63.0223 24.7647 61.98 22.2863 59.9452 20.5675C59.5349 20.2237 59.4851 19.6082 59.8288 19.1979C60.1726 18.7876 60.788 18.7377 61.1982 19.0815C63.7376 21.2217 65.0294 24.3433 64.6524 27.4428C64.3641 29.8159 63.1277 31.9838 61.165 33.5419C60.9876 33.686 60.7714 33.7526 60.5607 33.7526V33.7581Z" fill="#018C3B"/>
</svg>
