<svg preserveAspectRatio="none" viewBox="0 0 81 70" fill="none" xmlns="http://www.w3.org/2000/svg">
<path d="M53.4233 64.9996H28.9031C25.038 64.9996 21.8906 61.8523 21.8906 57.9872V22.4304C21.8906 18.5653 25.038 15.418 28.9031 15.418H53.4233C57.2884 15.418 60.4357 18.5653 60.4357 22.4304V38.7733C60.4357 39.2616 60.0416 39.6558 59.5533 39.6558C59.065 39.6558 58.6708 39.2616 58.6708 38.7733V22.4304C58.6708 19.536 56.3177 17.1829 53.4233 17.1829H28.9031C26.0087 17.1829 23.6555 19.536 23.6555 22.4304V57.9872C23.6555 60.8816 26.0087 63.2347 28.9031 63.2347H53.4233C56.3177 63.2347 58.6708 60.8816 58.6708 57.9872V43.3268C58.6708 42.8385 59.065 42.4443 59.5533 42.4443C60.0416 42.4443 60.4357 42.8385 60.4357 43.3268V57.9872C60.4357 61.8523 57.2884 64.9996 53.4233 64.9996Z" fill="white"/>
<path d="M59.5592 26.7922H26.6559C26.1676 26.7922 25.7734 26.3981 25.7734 25.9098C25.7734 25.4215 26.1676 25.0273 26.6559 25.0273H59.5592C60.0475 25.0273 60.4417 25.4215 60.4417 25.9098C60.4417 26.3981 60.0475 26.7922 59.5592 26.7922Z" fill="white"/>
<path d="M59.5592 54.2258H26.6559C26.1676 54.2258 25.7734 53.8317 25.7734 53.3434C25.7734 52.8551 26.1676 52.4609 26.6559 52.4609H59.5592C60.0475 52.4609 60.4417 52.8551 60.4417 53.3434C60.4417 53.8317 60.0475 54.2258 59.5592 54.2258Z" fill="white"/>
<path d="M41.1538 48.8814C40.9302 48.8814 40.7126 48.799 40.542 48.6343C39.6419 47.7636 38.6123 46.94 37.6181 46.134C34.6237 43.7279 31.5352 41.2394 31.5352 37.2801C31.5352 33.9386 33.9119 31.2207 36.8357 31.2207C38.8888 31.2207 40.2655 31.9149 41.1597 33.4739C42.048 31.9149 43.4246 31.2207 45.4836 31.2207C48.4075 31.2207 50.7842 33.9386 50.7842 37.2801C50.7842 41.2394 47.6897 43.7279 44.6953 46.134C43.7011 46.9341 42.6716 47.7636 41.7715 48.6343C41.6009 48.799 41.3773 48.8814 41.1597 48.8814H41.1538ZM36.8357 32.9856C34.9179 32.9856 33.3 34.9505 33.3 37.2801C33.3 40.3981 35.9356 42.516 38.7241 44.7574C39.536 45.4104 40.3713 46.0811 41.1538 46.787C41.9421 46.0752 42.7775 45.4046 43.5893 44.7515C46.3778 42.5101 49.0193 40.3863 49.0193 37.2742C49.0193 34.9446 47.4015 32.9797 45.4836 32.9797C43.7129 32.9797 42.6363 33.4974 42.0245 36.2212C41.9362 36.6213 41.5774 36.9095 41.1655 36.9095C40.7537 36.9095 40.3949 36.6213 40.3066 36.2212C39.6889 33.4974 38.6123 32.9797 36.8475 32.9797L36.8357 32.9856Z" fill="#018C3B"/>
<path d="M52.0419 14.1186C51.5536 14.1186 51.1595 13.7244 51.1595 13.2361V6.76489H31.1633V13.2361C31.1633 13.7244 30.7692 14.1186 30.2809 14.1186C29.7926 14.1186 29.3984 13.7244 29.3984 13.2361V5.88245C29.3984 5.39416 29.7926 5 30.2809 5H52.0419C52.5302 5 52.9244 5.39416 52.9244 5.88245V13.2361C52.9244 13.7244 52.5302 14.1186 52.0419 14.1186Z" fill="white"/>
<path d="M37.7106 13.4547C37.2223 13.4547 36.8281 13.0605 36.8281 12.5722V8.58948C36.8281 8.10119 37.2223 7.70703 37.7106 7.70703C38.1989 7.70703 38.593 8.10119 38.593 8.58948V12.5722C38.593 13.0605 38.1989 13.4547 37.7106 13.4547Z" fill="white"/>
<path d="M44.6129 13.4547C44.1246 13.4547 43.7305 13.0605 43.7305 12.5722V8.58948C43.7305 8.10119 44.1246 7.70703 44.6129 7.70703C45.1012 7.70703 45.4954 8.10119 45.4954 8.58948V12.5722C45.4954 13.0605 45.1012 13.4547 44.6129 13.4547Z" fill="white"/>
<path d="M7.06892 53.5122C5.85115 53.5122 4.66868 53.1474 3.65681 52.4591C2.3155 51.5472 1.40952 50.1647 1.10949 48.5763C0.803578 46.982 1.14479 45.3642 2.05665 44.0229L6.4571 37.5575C7.58663 35.8926 9.46329 34.9043 11.4811 34.9043C12.6989 34.9043 13.8814 35.269 14.8933 35.9573C17.6582 37.8457 18.376 41.6285 16.4934 44.3935L12.093 50.8589C10.9634 52.5238 9.08678 53.5122 7.06892 53.5122ZM11.4811 36.6633C10.0516 36.6633 8.72204 37.3692 7.91607 38.5458L3.51563 45.0112C2.8685 45.9643 2.6273 47.1114 2.84497 48.241C3.06264 49.3705 3.70388 50.353 4.65103 50.9942C5.36875 51.4825 6.20413 51.7414 7.06892 51.7414C8.49848 51.7414 9.82803 51.0354 10.634 49.8588L15.0344 43.3934C16.3699 41.4285 15.8581 38.7459 13.899 37.4105C13.1813 36.9222 12.3459 36.6633 11.4811 36.6633Z" fill="white"/>
<path d="M12.9778 47.6126C12.8072 47.6126 12.6366 47.5655 12.4895 47.4655L6.88303 43.7121C6.4771 43.4415 6.37121 42.8944 6.64183 42.4885C6.91244 42.0826 7.45956 41.9767 7.86548 42.2473L13.4719 46.0006C13.8779 46.2712 13.9838 46.8183 13.7131 47.2243C13.5425 47.4772 13.266 47.6184 12.9778 47.6184V47.6126Z" fill="white"/>
<path d="M71.6301 57.6372C67.9768 57.6372 65 54.6663 65 51.0071C65 47.3479 67.9768 44.377 71.6301 44.377C73.9656 44.377 76.0835 45.5712 77.3013 47.5655C77.9307 48.6009 78.2602 49.7893 78.2602 51.0012C78.2602 54.6545 75.2834 57.6313 71.6301 57.6313V57.6372ZM71.6301 46.1477C68.9475 46.1477 66.7649 48.3303 66.7649 51.013C66.7649 53.6956 68.9475 55.8781 71.6301 55.8781C74.3127 55.8781 76.4953 53.6956 76.4953 51.013C76.4953 50.1188 76.2541 49.2481 75.7893 48.4891C74.8951 47.0243 73.342 46.1477 71.6301 46.1477Z" fill="white"/>
<path d="M69.3963 53.2183C69.0963 53.2183 68.8021 53.0653 68.6374 52.7829C68.3903 52.3652 68.5315 51.824 68.9492 51.5769L75.5675 47.6765C75.9911 47.4294 76.5265 47.5706 76.7736 47.9883C77.0206 48.406 76.8795 48.9472 76.4618 49.1943L69.8434 53.0947C69.7023 53.177 69.5493 53.2183 69.3963 53.2183Z" fill="white"/>
</svg>
