<svg preserveAspectRatio="none" viewBox="0 0 94 60" fill="none" xmlns="http://www.w3.org/2000/svg">
<mask id="mask0_907_5338" style="mask-type:alpha" maskUnits="userSpaceOnUse" x="0" y="0" width="94" height="60">
<rect width="94" height="60" fill="#D9D9D9"/>
</mask>
<g mask="url(#mask0_907_5338)">
<path d="M28.8076 60C26.8724 60 25.1382 58.7682 24.4904 56.9341L24.291 56.3702H21.5788C19.0549 56.3702 17 54.3087 17 51.773C17 49.2373 19.0533 47.1757 21.5788 47.1757H24.291L24.4904 46.6118C24.6899 46.0464 24.9962 45.5306 25.3982 45.0789L25.9024 44.5134L25.3982 43.948C24.9946 43.4963 24.6899 42.9805 24.4904 42.415L24.291 41.8512H21.5788C19.0549 41.8512 17 39.7896 17 37.2539C17 34.7182 19.0533 32.6566 21.5788 32.6566H24.291L24.4904 32.0928C24.6899 31.5274 24.9962 31.0116 25.3982 30.5598L25.9024 29.9944L25.3982 29.4289C24.9946 28.9772 24.6899 28.4614 24.4904 27.896L24.291 27.3321H21.5788C19.0549 27.3321 17 25.2706 17 22.7349C17 20.1992 19.0533 18.1376 21.5788 18.1376H24.291L24.4904 17.5738C24.6899 17.0083 24.9962 16.4925 25.3982 16.0408L25.9024 15.4753L25.3982 14.9099C24.9946 14.4582 24.6899 13.9424 24.4904 13.3769L24.291 12.8131H21.5788C19.0549 12.8131 17 10.7515 17 8.21582C17 5.68011 19.0533 3.61855 21.5788 3.61855H24.291L24.4904 3.0547C25.1382 1.23181 26.8724 0 28.8076 0H45.6758C47.611 0 49.3452 1.23181 49.993 3.06592L50.1924 3.62976H52.9046C55.4285 3.62976 57.4834 5.69133 57.4834 8.22703C57.4834 10.7627 55.4301 12.8243 52.9046 12.8243H50.1924L49.993 13.3882C49.7936 13.9536 49.4872 14.4678 49.0852 14.9211L48.581 15.4866L49.0852 16.052C49.4888 16.5037 49.7936 17.0195 49.993 17.585L50.1924 18.1488H52.9046C55.4285 18.1488 57.4834 20.2104 57.4834 22.7461C57.4834 25.2818 55.4301 27.3434 52.9046 27.3434H50.1924L49.993 27.9072C49.7936 28.4727 49.4872 28.9868 49.0852 29.4402L48.581 30.0056L49.0852 30.5711C49.4888 31.0228 49.7936 31.5386 49.993 32.104L50.1924 32.6679H52.9046C55.4285 32.6679 57.4834 34.7294 57.4834 37.2651C57.4834 39.8008 55.4301 41.8624 52.9046 41.8624H50.1924L49.993 42.4262C49.7936 42.9917 49.4872 43.5059 49.0852 43.9592L48.581 44.5247L49.0852 45.0901C49.4888 45.5418 49.7936 46.0576 49.993 46.6231L50.1924 47.1869H52.9046C55.4285 47.1869 57.4834 49.2485 57.4834 51.7842C57.4834 54.3199 55.4301 56.3815 52.9046 56.3815H50.1924L49.993 56.9453C49.3452 58.7794 47.611 60.0112 45.6758 60.0112H28.8076V60ZM21.5788 49.1139C20.1174 49.1139 18.9288 50.3073 18.9288 51.7746C18.9288 53.2419 20.1174 54.4352 21.5788 54.4352H25.194C25.7253 54.4352 26.1576 54.8693 26.1576 55.4027C26.1576 56.87 27.3462 58.0634 28.8076 58.0634H45.6758C47.1372 58.0634 48.3258 56.87 48.3258 55.4027C48.3258 54.8693 48.7581 54.4352 49.2894 54.4352H52.9046C54.366 54.4352 55.5546 53.2419 55.5546 51.7746C55.5546 50.3073 54.366 49.1139 52.9046 49.1139H49.2894C48.7581 49.1139 48.3258 48.6798 48.3258 48.1464C48.3258 46.6791 47.1372 45.4858 45.6758 45.4858H41.8197V46.937C41.8197 49.4711 39.7664 51.5343 37.2409 51.5343C34.7154 51.5343 32.6621 49.4727 32.6621 46.937V45.4858H28.806C27.3446 45.4858 26.156 46.6791 26.156 48.1464C26.156 48.6798 25.7237 49.1139 25.1924 49.1139H21.5772H21.5788ZM21.5788 34.5965C20.1174 34.5965 18.9288 35.7898 18.9288 37.2571C18.9288 38.7244 20.1174 39.9178 21.5788 39.9178H25.194C25.7253 39.9178 26.1576 40.3519 26.1576 40.8853C26.1576 42.3526 27.3462 43.5459 28.8076 43.5459H33.6273C34.1586 43.5459 34.5909 43.98 34.5909 44.5134V46.9322C34.5909 48.3995 35.7795 49.5929 37.2409 49.5929C38.7023 49.5929 39.8909 48.3995 39.8909 46.9322V44.5134C39.8909 43.98 40.3232 43.5459 40.8545 43.5459H45.6742C47.1356 43.5459 48.3242 42.3526 48.3242 40.8853C48.3242 40.3519 48.7565 39.9178 49.2878 39.9178H52.903C54.3644 39.9178 55.553 38.7244 55.553 37.2571C55.553 35.7898 54.3644 34.5965 52.903 34.5965H49.2878C48.7565 34.5965 48.3242 34.1624 48.3242 33.629C48.3242 32.1617 47.1356 30.9683 45.6742 30.9683H41.8181V32.4196C41.8181 34.9537 39.7648 37.0168 37.2393 37.0168C34.7138 37.0168 32.6605 34.9553 32.6605 32.4196V30.9683H28.8044C27.343 30.9683 26.1544 32.1617 26.1544 33.629C26.1544 34.1624 25.7221 34.5965 25.1908 34.5965H21.5756H21.5788ZM21.5788 20.0806C20.1174 20.0806 18.9288 21.274 18.9288 22.7413C18.9288 24.2086 20.1174 25.4019 21.5788 25.4019H25.194C25.7253 25.4019 26.1576 25.836 26.1576 26.3694C26.1576 27.8367 27.3462 29.0301 28.8076 29.0301H33.6273C34.1586 29.0301 34.5909 29.4642 34.5909 29.9976V32.4164C34.5909 33.8837 35.7795 35.077 37.2409 35.077C38.7023 35.077 39.8909 33.8837 39.8909 32.4164V29.9976C39.8909 29.4642 40.3232 29.0301 40.8545 29.0301H45.6742C47.1356 29.0301 48.3242 27.8367 48.3242 26.3694C48.3242 25.836 48.7565 25.4019 49.2878 25.4019H52.903C54.3644 25.4019 55.553 24.2086 55.553 22.7413C55.553 21.274 54.3644 20.0806 52.903 20.0806H49.2878C48.7565 20.0806 48.3242 19.6465 48.3242 19.1131C48.3242 17.6458 47.1356 16.4525 45.6742 16.4525H41.8181V17.9037C41.8181 20.4378 39.7648 22.501 37.2393 22.501C34.7138 22.501 32.6605 20.4394 32.6605 17.9037V16.4525H28.8044C27.343 16.4525 26.1544 17.6458 26.1544 19.1131C26.1544 19.6465 25.7221 20.0806 25.1908 20.0806H21.5756H21.5788ZM21.5788 5.56478C20.1174 5.56478 18.9288 6.75815 18.9288 8.22543C18.9288 9.69271 20.1174 10.8861 21.5788 10.8861H25.194C25.7253 10.8861 26.1576 11.3202 26.1576 11.8536C26.1576 13.3209 27.3462 14.5142 28.8076 14.5142H33.6273C34.1586 14.5142 34.5909 14.9483 34.5909 15.4818V17.9005C34.5909 19.3678 35.7795 20.5612 37.2409 20.5612C38.7023 20.5612 39.8909 19.3678 39.8909 17.9005V15.4818C39.8909 14.9483 40.3232 14.5142 40.8545 14.5142H45.6742C47.1356 14.5142 48.3242 13.3209 48.3242 11.8536C48.3242 11.3202 48.7565 10.8861 49.2878 10.8861H52.903C54.3644 10.8861 55.553 9.69271 55.553 8.22543C55.553 6.75815 54.3644 5.56478 52.903 5.56478H49.2878C48.7565 5.56478 48.3242 5.13068 48.3242 4.59727C48.3242 3.12999 47.1356 1.93662 45.6742 1.93662H28.806C27.3446 1.93662 26.156 3.12999 26.156 4.59727C26.156 5.13068 25.7237 5.56478 25.1924 5.56478H21.5772H21.5788Z" fill="black"/>
<path d="M68.8043 33.3871C68.5969 33.3871 68.3975 33.3198 68.2284 33.1933L63.4086 29.5635C62.9843 29.2431 62.8965 28.636 63.2156 28.2084C63.3991 27.9617 63.6815 27.8207 63.9878 27.8207C64.1968 27.8207 64.3962 27.888 64.5653 28.0145L68.4613 30.9475L70.355 27.1463C70.5194 26.8164 70.8512 26.6113 71.2197 26.6113C71.4271 26.6113 71.6266 26.6786 71.7957 26.8051L76.6154 30.4349C77.0414 30.7553 77.1275 31.3624 76.8085 31.7901C76.625 32.0367 76.3426 32.1777 76.0363 32.1777C75.8273 32.1777 75.6279 32.1104 75.4587 31.9839L71.5628 29.0509L69.669 32.8521C69.5047 33.1821 69.1728 33.3871 68.8043 33.3871Z" fill="#018C3B"/>
<path d="M63.3997 21.2894C62.9242 21.2894 62.5142 20.9322 62.4472 20.4581C62.3722 19.9295 62.7392 19.4393 63.2657 19.3624L68.0854 18.6704L66.7468 14.6386C66.6559 14.3663 66.691 14.0684 66.841 13.8233C66.9909 13.5782 67.2414 13.4148 67.5238 13.3748L73.4874 12.5194C73.5337 12.513 73.58 12.5098 73.6262 12.5098C74.1017 12.5098 74.5101 12.867 74.5787 13.3411C74.6537 13.8697 74.2867 14.3599 73.7602 14.4368L68.9405 15.1288L70.2791 19.1606C70.37 19.4329 70.3349 19.7308 70.1849 19.9759C70.035 20.221 69.7845 20.3844 69.5005 20.4244L63.5369 21.2798C63.4906 21.2862 63.4443 21.2894 63.3981 21.2894H63.3997Z" fill="#018C3B"/>
<path d="M73.6265 47.4887C73.5802 47.4887 73.5339 47.4854 73.4877 47.479L67.524 46.6237C67.2401 46.5836 66.9912 46.4186 66.8412 46.1751C66.6912 45.9301 66.6561 45.6337 66.7471 45.3598L68.0856 41.328L63.2659 40.636C63.0106 40.5992 62.7857 40.4662 62.6309 40.258C62.4762 40.0513 62.4108 39.7966 62.4475 39.5403C62.5145 39.0662 62.9245 38.709 63.3999 38.709C63.4462 38.709 63.4925 38.7122 63.5387 38.7186L69.5023 39.574C69.7863 39.614 70.0352 39.779 70.1852 40.0225C70.3351 40.2676 70.3702 40.5639 70.2793 40.8378L68.9408 44.8696L73.7605 45.5616C74.0157 45.5985 74.2407 45.7314 74.3955 45.9397C74.5502 46.1463 74.6156 46.401 74.5789 46.6573C74.5119 47.1314 74.1019 47.4887 73.6265 47.4887Z" fill="#018C3B"/>
</g>
</svg>
