<svg preserveAspectRatio="none" viewBox="0 0 94 60" fill="none" xmlns="http://www.w3.org/2000/svg">
<mask id="mask0_907_5326" style="mask-type:alpha" maskUnits="userSpaceOnUse" x="0" y="0" width="94" height="60">
<rect width="94" height="60" fill="#D9D9D9"/>
</mask>
<g mask="url(#mask0_907_5326)">
<path d="M54.7223 26.2252C54.4762 26.2252 54.2439 26.128 54.0697 25.9522L50.6065 22.4576C50.2458 22.0937 50.2458 21.503 50.6065 21.1406L54.0697 17.646C54.2439 17.4702 54.4762 17.373 54.7223 17.373C54.9683 17.373 55.2007 17.4702 55.3749 17.646C55.734 18.01 55.734 18.6006 55.3749 18.963L53.4889 20.8661H58.1855C58.6944 20.8661 59.1086 21.284 59.1086 21.7976C59.1086 22.3111 58.6944 22.7291 58.1855 22.7291H53.4889L55.3764 24.6321C55.7356 24.9945 55.7356 25.5867 55.3764 25.9491C55.2022 26.1249 54.9699 26.2221 54.7238 26.2221L54.7223 26.2252Z" fill="#018C3B"/>
<path d="M45.632 29.542C45.1536 29.542 44.7501 29.1626 44.7134 28.6799C44.6263 27.4909 44.5927 26.2864 44.6171 25.1005C44.6278 24.5977 45.042 24.1875 45.5403 24.1875H45.5617C46.0691 24.1983 46.4741 24.6255 46.4634 25.139C46.4405 26.2648 46.471 27.4107 46.5535 28.5411C46.5918 29.0531 46.2097 29.5019 45.7007 29.5389C45.6778 29.5404 45.6534 29.542 45.6289 29.542H45.632Z" fill="black"/>
<path d="M46.3391 19.1188C46.2733 19.1188 46.2092 19.1111 46.145 19.0972C45.9035 19.0448 45.6972 18.9014 45.5627 18.6932C45.4282 18.485 45.3838 18.2352 45.4343 17.9915C45.6803 16.8287 45.986 15.6628 46.3406 14.5293C46.4629 14.1391 46.8159 13.877 47.2209 13.877C47.3141 13.877 47.4089 13.8924 47.4991 13.9201C47.7344 13.9957 47.927 14.1576 48.0401 14.3782C48.1532 14.5987 48.1761 14.8516 48.1012 15.0891C47.7635 16.1671 47.4731 17.2744 47.2393 18.3801C47.1491 18.8073 46.7701 19.1173 46.3375 19.1173L46.3391 19.1188Z" fill="black"/>
<path d="M47.7632 39.7765C47.3444 39.7765 46.9684 39.4835 46.8676 39.0795C46.7117 38.4456 46.5206 37.8179 46.3372 37.2103C46.1905 36.7261 46.0377 36.2233 45.9078 35.7329C45.7733 35.2348 46.0652 34.7212 46.5558 34.5871C46.6353 34.5655 46.7178 34.5547 46.7988 34.5547C47.2145 34.5547 47.5798 34.8385 47.6883 35.2425C47.8243 35.7483 47.9756 36.2526 48.1239 36.74C48.3088 37.3507 48.4998 37.983 48.6511 38.6029C48.7138 38.8512 48.6787 39.1026 48.5533 39.3154C48.428 39.5298 48.2278 39.6825 47.9878 39.7441C47.9099 39.7657 47.835 39.775 47.7601 39.775L47.7632 39.7765Z" fill="black"/>
<path d="M48.8636 50.1592C48.3532 50.1422 47.9527 49.7104 47.9711 49.1968C48.0078 48.071 47.9925 46.9267 47.9237 45.7932C47.9084 45.5449 47.9894 45.3059 48.153 45.1193C48.3165 44.9327 48.5412 44.8217 48.7872 44.8062C48.8071 44.8062 48.8254 44.8047 48.8453 44.8047C49.3313 44.8047 49.7363 45.1887 49.7654 45.6791C49.8387 46.8666 49.8555 48.071 49.8158 49.2601C49.799 49.7659 49.394 50.1607 48.8942 50.1607H48.8636V50.1592Z" fill="black"/>
<path d="M22.9856 59.9985C22.4767 59.9985 22.0625 59.5805 22.0625 59.067V18.3055C22.0625 12.0119 27.1366 6.89181 33.3738 6.89181H39.5697L40.5554 2.71557C40.6548 2.29456 41.0246 2 41.4541 2H52.9961C53.4256 2 53.7955 2.29456 53.8948 2.71557L54.8806 6.89181H61.0765C67.3137 6.89181 72.3877 12.0119 72.3877 18.3055V59.0685C72.3877 59.5821 71.9736 60 71.4646 60H22.9856V59.9985ZM63.9589 20.8671C64.4679 20.8671 64.8821 21.285 64.8821 21.7986V22.5851C64.8821 27.4784 64.1194 32.3163 62.614 36.9659L62.5743 37.0893V40.1459C62.5743 44.1248 63.0587 48.0974 64.0155 51.9575C64.4526 53.7233 64.7277 55.5446 64.8332 57.3675L64.8775 58.1355H70.5385V18.3055C70.5385 13.039 66.2927 8.75477 61.0734 8.75477H54.1485C53.719 8.75477 53.3492 8.46021 53.2498 8.03919L52.2641 3.86296H42.1801L41.1943 8.03919C41.0949 8.46021 40.7251 8.75477 40.2956 8.75477H33.3707C28.1514 8.75477 23.9057 13.039 23.9057 18.3055V58.1355H29.5667L29.611 57.3675C29.7164 55.5431 29.9915 53.7233 30.4286 51.9575C31.3854 48.0974 31.8699 44.1248 31.8699 40.1459V37.0893L31.8301 36.9659C30.3247 32.3163 29.5621 27.4784 29.5621 22.5851V21.7986C29.5621 21.285 29.9763 20.8671 30.4852 20.8671C30.9941 20.8671 31.4083 21.285 31.4083 21.7986V22.5851C31.4083 27.372 32.1694 32.1019 33.6687 36.6436C33.7008 36.7392 33.7161 36.8379 33.7161 36.9382V40.1459C33.7161 44.2759 33.2133 48.4012 32.2199 52.4094C31.8271 53.9963 31.5734 55.631 31.4664 57.2657L31.4098 58.134H46.5404L46.704 57.5356C46.8537 56.9881 46.9882 56.4514 47.1044 55.9379C47.1991 55.5169 47.5766 55.2115 48.003 55.2115C48.0718 55.2115 48.1406 55.2192 48.2094 55.2347C48.7061 55.3488 49.0179 55.8484 48.9048 56.3497C48.8482 56.5995 48.7871 56.8586 48.7229 57.1192L48.4723 58.1324H63.0297L62.9732 57.2642C62.8662 55.6295 62.6125 53.9947 62.2197 52.4078C61.2263 48.4012 60.7234 44.2743 60.7234 40.1444V36.9366C60.7234 36.8364 60.7387 36.7377 60.7708 36.6421C62.2717 32.1003 63.0312 27.3705 63.0312 22.5835V21.797C63.0312 21.2835 63.4454 20.8655 63.9544 20.8655L63.9589 20.8671Z" fill="black"/>
</g>
</svg>
