<svg preserveAspectRatio="none" viewBox="0 0 40 40" fill="none" xmlns="http://www.w3.org/2000/svg">
<circle cx="20" cy="20" r="20" fill="#018C3B"/>
<path d="M19.3079 22.5742H22.2611L24.1751 25.0352C25.474 23.8047 26.2806 21.8086 26.2806 19.1016C26.2806 14.2891 23.7376 11.6914 20.347 11.6914C16.929 11.6914 14.3861 14.2891 14.3861 19.1016C14.3861 23.9141 16.929 26.5117 20.347 26.5117C20.9759 26.5117 21.5638 26.4297 22.1243 26.2383L19.3079 22.5742ZM29.2611 19.1016C29.2611 22.7383 28.0033 25.5684 25.9525 27.3047L28.6322 30.7773H25.5423L23.8743 28.5898C22.8079 29.041 21.6185 29.2734 20.347 29.2734C15.179 29.2734 11.4056 25.418 11.4056 19.1016C11.4056 12.7578 15.179 8.92969 20.347 8.92969C25.4603 8.92969 29.2611 12.7578 29.2611 19.1016Z" fill="white"/>
</svg>
