<svg preserveAspectRatio="none" viewBox="0 0 20 20" fill="none" xmlns="http://www.w3.org/2000/svg">
<path d="M8.1774 7.64613L10.5344 10.0032L8.1774 12.3602C8.12116 12.4165 8.07654 12.4832 8.0461 12.5567C8.01567 12.6302 8 12.709 8 12.7885C8 12.868 8.01567 12.9468 8.0461 13.0203C8.07654 13.0938 8.12116 13.1605 8.1774 13.2168C8.23364 13.273 8.30041 13.3176 8.37389 13.3481C8.44738 13.3785 8.52614 13.3942 8.60568 13.3942C8.68521 13.3942 8.76397 13.3785 8.83746 13.3481C8.91094 13.3176 8.97771 13.273 9.03395 13.2168L11.8223 10.4284C12.0592 10.1915 12.0592 9.80877 11.8223 9.57185L9.03395 6.7835C8.97775 6.72718 8.911 6.6825 8.83751 6.65202C8.76402 6.62153 8.68524 6.60584 8.60568 6.60584C8.52611 6.60584 8.44733 6.62153 8.37384 6.65202C8.30035 6.6825 8.2336 6.72718 8.1774 6.7835C7.94655 7.02042 7.94048 7.40921 8.1774 7.64613Z" fill="white"/>
</svg>
