<svg preserveAspectRatio="none" viewBox="0 0 24 24" fill="none" xmlns="http://www.w3.org/2000/svg">
<path d="M5 22.0004H19C19.5304 22.0004 20.0391 21.7897 20.4142 21.4146C20.7893 21.0396 21 20.5309 21 20.0004V11.0004C21.0008 10.8688 20.9755 10.7384 20.9258 10.6165C20.876 10.4947 20.8027 10.3839 20.71 10.2904L12.71 2.29043C12.5226 2.10418 12.2692 1.99963 12.005 1.99963C11.7408 1.99963 11.4874 2.10418 11.3 2.29043L3.3 10.2904C3.20551 10.383 3.13034 10.4935 3.07885 10.6154C3.02735 10.7372 3.00055 10.8681 3 11.0004V20.0004C3 20.5309 3.21071 21.0396 3.58579 21.4146C3.96086 21.7897 4.46957 22.0004 5 22.0004ZM10 20.0004V15.0004H14V20.0004H10ZM5 11.4104L12 4.41043L19 11.4104V20.0004H16V15.0004C16 14.47 15.7893 13.9613 15.4142 13.5862C15.0391 13.2111 14.5304 13.0004 14 13.0004H10C9.46957 13.0004 8.96086 13.2111 8.58579 13.5862C8.21071 13.9613 8 14.47 8 15.0004V20.0004H5V11.4104Z" fill="white"/>
</svg>
