<svg preserveAspectRatio="none" viewBox="0 0 94 60" fill="none" xmlns="http://www.w3.org/2000/svg">
<mask id="mask0_907_4424" style="mask-type:alpha" maskUnits="userSpaceOnUse" x="0" y="0" width="94" height="60">
<rect width="94" height="60" fill="#D9D9D9"/>
</mask>
<g mask="url(#mask0_907_4424)">
<path d="M23.5938 21H-4" stroke="#1A1A1A" stroke-width="2" stroke-linecap="round" stroke-linejoin="round"/>
<path d="M63.083 25.5234H61.6484" stroke="#1A1A1A" stroke-width="2" stroke-linecap="round" stroke-linejoin="round"/>
<path d="M62.2387 36.781L66.3604 36.7521C69.2377 36.7314 71.5569 34.3942 71.5569 31.5243V31.0907C71.5445 29.5587 71.0071 28.0804 70.0025 27.0356C69.1178 26.1107 67.8611 25.5243 66.2818 25.5243H63.0903C66.1785 25.5036 68.7292 23.216 68.7251 20.1313C68.7251 18.5869 68.0926 17.1829 67.0714 16.1753C66.0627 15.1719 64.6695 14.5525 63.1358 14.5525H54.9668C52.8295 14.5525 51.8249 9.44858 43.9246 10.3942C39.2407 10.9558 30.7347 20.6366 23.5 21" stroke="#1A1A1A" stroke-width="2" stroke-linecap="round" stroke-linejoin="round"/>
<path d="M62.2141 36.7812H62.2347C65.1038 36.7812 67.4396 39.0937 67.4644 41.9678V42.3642C67.4892 45.2506 65.1617 47.6085 62.2719 47.6291L58.0469 47.6581" stroke="#1A1A1A" stroke-width="2" stroke-linecap="round" stroke-linejoin="round"/>
<path d="M58.0343 47.6582H58.055C60.9282 47.6582 63.2681 49.9707 63.2887 52.8447V53.2411C63.3135 56.1276 60.986 58.4855 58.0963 58.5061L52.3912 58.5474C52.3912 58.5474 49.6875 58.5557 45.9875 58.5557C34.379 58.5557 29.8419 53.4377 23 53" stroke="#1A1A1A" stroke-width="2" stroke-linecap="round" stroke-linejoin="round"/>
<path d="M-4 53H22.8293" stroke="#1A1A1A" stroke-width="2" stroke-linecap="round" stroke-linejoin="round"/>
<path d="M54.9651 14.5527H49.1484" stroke="#1A1A1A" stroke-width="2" stroke-linecap="round" stroke-linejoin="round"/>
<path d="M20.6538 14.7306C19.5211 14.3755 18.3139 14.1855 17.0613 14.1855C15.8087 14.1855 14.6056 14.3755 13.4688 14.7348" stroke="#018C3B" stroke-width="2" stroke-linecap="round" stroke-linejoin="round"/>
<path d="M23.4632 11.9254C21.512 11.0459 19.3415 10.5586 17.0637 10.5586C14.7858 10.5586 12.6154 11.05 10.6641 11.9254" stroke="#018C3B" stroke-width="2" stroke-linecap="round" stroke-linejoin="round"/>
<path d="M26.1239 9.27116C23.4285 7.82175 20.3403 7 17.062 7C13.7836 7 10.6996 7.82175 8 9.27116" stroke="#018C3B" stroke-width="2" stroke-linecap="round" stroke-linejoin="round"/>
</g>
</svg>
