<svg preserveAspectRatio="none" viewBox="0 0 48 60" fill="none" xmlns="http://www.w3.org/2000/svg">
<path d="M41.6587 50.2162H5.53844C2.48508 50.2162 0 47.7311 0 44.6777V41.4655C0 39.4042 1.13177 37.603 2.80775 36.6494C1.13177 35.6958 0 33.8946 0 31.8334V28.6211C0 26.5598 1.13177 24.7586 2.80775 23.805C1.13177 22.8514 0 21.0503 0 18.989V15.7767C0 12.7234 2.48508 10.2383 5.53844 10.2383H41.6587C44.7121 10.2383 47.1972 12.7234 47.1972 15.7767V18.989C47.1972 21.0503 46.0654 22.8514 44.3894 23.805C46.0654 24.7586 47.1972 26.5598 47.1972 28.6211V31.8334C47.1972 33.8946 46.0654 35.6958 44.3894 36.6494C46.0654 37.603 47.1972 39.4042 47.1972 41.4655V44.6777C47.1972 47.7311 44.7121 50.2162 41.6587 50.2162ZM6.26085 36.6494C6.26085 37.0492 5.93818 37.3718 5.53844 37.3718C3.27972 37.3718 1.44481 39.2067 1.44481 41.4655V44.6777C1.44481 46.9364 3.27972 48.7714 5.53844 48.7714H41.6587C43.9174 48.7714 45.7524 46.9364 45.7524 44.6777V41.4655C45.7524 39.2067 43.9174 37.3718 41.6587 37.3718C41.259 37.3718 40.9363 37.0492 40.9363 36.6494C40.9363 36.2497 41.259 35.927 41.6587 35.927C43.9174 35.927 45.7524 34.0921 45.7524 31.8334V28.6211C45.7524 26.3623 43.9174 24.5274 41.6587 24.5274C41.259 24.5274 40.9363 24.2048 40.9363 23.805C40.9363 23.4053 41.259 23.0826 41.6587 23.0826C43.9174 23.0826 45.7524 21.2477 45.7524 18.989V15.7767C45.7524 13.518 43.9174 11.6831 41.6587 11.6831H5.53844C3.27972 11.6831 1.44481 13.518 1.44481 15.7767V18.989C1.44481 21.2477 3.27972 23.0826 5.53844 23.0826C5.93818 23.0826 6.26085 23.4053 6.26085 23.805C6.26085 24.2048 5.93818 24.5274 5.53844 24.5274C3.27972 24.5274 1.44481 26.3623 1.44481 28.6211V31.8334C1.44481 34.0921 3.27972 35.927 5.53844 35.927C5.93818 35.927 6.26085 36.2497 6.26085 36.6494Z" fill="#3F3F3F"/>
<path d="M19.1178 9.766C17.2492 9.766 15.9633 9.52519 15.1831 9.03877C12.9003 7.59877 12.2164 4.56954 13.6564 2.28673C14.557 0.85637 16.1078 0.00390625 17.7982 0.00390625C18.7229 0.00390625 19.6235 0.263976 20.4085 0.760028C22.5276 2.09889 24.271 7.82034 24.4588 8.46569C24.5166 8.66315 24.4877 8.87986 24.3769 9.05805C24.2662 9.23625 24.0832 9.35186 23.8809 9.38557C23.7798 9.40002 21.4247 9.77082 19.113 9.77082L19.1178 9.766ZM17.8031 1.44393C16.6087 1.44393 15.5154 2.04592 14.8797 3.05247C13.8635 4.66102 14.3451 6.79935 15.9537 7.81554C16.2523 8.00336 17.0614 8.32119 19.113 8.32119C20.5049 8.32119 21.9448 8.17675 22.8214 8.06598C22.0749 5.80244 20.7505 2.67683 19.638 1.9785C19.0841 1.63174 18.4484 1.44393 17.7982 1.44393H17.8031Z" fill="#018C3B"/>
<path d="M28.2343 9.76691C25.9226 9.76691 23.5675 9.39611 23.4664 9.38166C23.2593 9.34795 23.0811 9.22752 22.9703 9.05415C22.8596 8.87595 22.8307 8.66406 22.8885 8.46178C23.0811 7.81643 24.8197 2.09498 26.9387 0.756122C27.7238 0.26007 28.6244 0 29.549 0C31.2395 0 32.7902 0.852464 33.6908 2.28283C35.1308 4.56563 34.4469 7.59493 32.1641 9.03492C31.3888 9.52616 30.1029 9.76209 28.2343 9.76209V9.76691ZM24.5211 8.06689C25.3976 8.17285 26.8424 8.3221 28.2294 8.3221C30.2811 8.3221 31.0902 8.00428 31.3888 7.81645C32.9973 6.80027 33.4789 4.66675 32.4627 3.05338C31.827 2.04683 30.7338 1.44484 29.5394 1.44484C28.8892 1.44484 28.2535 1.62784 27.6997 1.97941C26.5872 2.68256 25.2628 5.80336 24.5163 8.06689H24.5211Z" fill="#018C3B"/>
<path d="M38.6469 24.0698H8.54662C8.14689 24.0698 7.82422 23.7471 7.82422 23.3474C7.82422 22.9477 8.14689 22.625 8.54662 22.625H38.6469C39.0466 22.625 39.3693 22.9477 39.3693 23.3474C39.3693 23.7471 39.0466 24.0698 38.6469 24.0698Z" fill="#3F3F3F"/>
<path d="M23.3552 47.4857C22.9555 47.4857 22.6328 47.1631 22.6328 46.7633V7.45483C22.6328 7.0551 22.9555 6.73242 23.3552 6.73242C23.7549 6.73242 24.0776 7.0551 24.0776 7.45483V46.7633C24.0776 47.1631 23.7549 47.4857 23.3552 47.4857Z" fill="#018C3B"/>
</svg>
