<svg preserveAspectRatio="none" viewBox="0 0 58 60" fill="none" xmlns="http://www.w3.org/2000/svg">
<path d="M36.0555 59.9959C35.9595 59.9959 35.8587 59.9959 35.7627 59.9959H35.5707H35.3931C35.2395 59.9959 35.0811 60.015 34.9419 59.9814C27.1468 59.7798 16.6253 58.3207 13.8654 48.404C10.947 47.588 5.5903 42.0873 4.39512 34.9594C3.86713 31.8058 3.46394 30.1163 0.166385 26.1563C-0.0112126 25.9403 -0.0496226 25.6428 0.0655757 25.3884C0.185574 25.134 0.439978 24.9755 0.718374 24.9755H5.6335C5.7247 24.9755 5.8207 24.9948 5.9071 25.0284C6.0271 25.0764 8.88305 26.2811 10.251 30.2795C11.1006 32.7658 12.9102 34.8154 14.7102 35.4106C15.1662 33.9994 15.6894 32.6986 16.2413 31.3354C16.7117 30.1642 17.2013 28.9547 17.6765 27.6011C17.8061 27.2267 18.2189 27.0299 18.5933 27.1595C18.9677 27.2891 19.1645 27.7019 19.0349 28.0763C18.5501 29.4587 18.0557 30.6874 17.5757 31.873C16.9565 33.4138 16.371 34.8682 15.8862 36.4714C15.7854 36.8122 15.4446 37.0329 15.0894 36.9753C12.1422 36.5338 9.80944 33.433 8.88785 30.7402C7.87506 27.7835 5.95989 26.6555 5.4799 26.4108H2.22554C4.89431 29.8571 5.3119 31.7194 5.8159 34.7146C7.00628 41.8089 12.5694 46.9016 14.5038 47.06C14.811 47.084 15.0702 47.3048 15.1422 47.6024C16.9229 54.7783 23.2732 58.2535 35.1147 58.5367C35.1531 58.5367 35.1963 58.5415 35.2347 58.5511H35.5659H35.9115C35.9499 58.5415 35.9883 58.5367 36.0267 58.5367C43.9801 58.3447 49.6969 56.4727 53.0136 52.9736C55.4808 50.3672 56.6616 46.7816 56.5272 42.3177C56.4504 39.7833 54.8232 35.3722 53.1 30.6971C52.5 29.0651 51.876 27.3803 51.3048 25.7339C51.1752 25.3596 51.372 24.9467 51.7512 24.8171C52.1256 24.6875 52.5384 24.8844 52.668 25.2636C53.2344 26.8955 53.8536 28.5755 54.4536 30.1978C56.22 34.9834 57.8855 39.5001 57.9671 42.2697C58.1159 47.132 56.8008 51.0679 54.06 53.9623C50.4889 57.7303 44.4841 59.7558 36.2043 59.9718C36.1515 59.9814 36.0987 59.991 36.0459 59.991L36.0555 59.9959Z" fill="#3F3F3F"/>
<path d="M52.794 39.1355C52.482 39.1355 52.194 38.9291 52.1028 38.6123C51.4741 36.3899 50.5477 33.678 49.8133 31.566C49.6837 31.1916 49.8805 30.7788 50.2549 30.6492C50.6293 30.5196 51.0421 30.7164 51.1717 31.0908C51.9108 33.222 52.8468 35.9628 53.4852 38.2187C53.5956 38.6027 53.37 39.0011 52.9908 39.1067C52.9236 39.1259 52.8612 39.1355 52.794 39.1355Z" fill="#3F3F3F"/>
<path d="M53.6085 43.1285C53.2197 43.1285 52.9029 42.8213 52.8885 42.4277C52.8789 42.1013 52.8213 41.6645 52.7205 41.1317C52.6437 40.7429 52.9029 40.3637 53.2917 40.2869C53.6757 40.2101 54.0597 40.4694 54.1365 40.8581C54.2565 41.4725 54.3189 41.9717 54.3285 42.3845C54.3381 42.7829 54.0261 43.1141 53.6277 43.1237C53.6229 43.1237 53.6133 43.1237 53.6085 43.1237V43.1285Z" fill="#3F3F3F"/>
<path d="M54.2132 26.4677C51.626 26.4677 50.2677 25.5989 49.0725 24.8309C47.9397 24.1061 46.8741 23.4197 44.7045 23.4197C42.535 23.4197 41.4742 24.1061 40.3414 24.8309C39.1462 25.5989 37.7879 26.4677 35.2055 26.4677C32.6231 26.4677 31.2599 25.5989 30.0648 24.8309C28.932 24.1061 27.8664 23.4197 25.7016 23.4197C23.5368 23.4197 22.4713 24.1061 21.3385 24.8309C20.1433 25.5989 18.7849 26.4677 16.1978 26.4677C15.9434 26.4677 15.7034 26.3333 15.5738 26.1077C15.4442 25.8869 15.4442 25.6133 15.5738 25.3877L19.6729 18.1734V16.9207C19.6729 15.0727 21.1753 13.5703 23.0233 13.5703H47.4597C49.3077 13.5703 50.8101 15.0727 50.8101 16.9207V18.3654C50.8101 18.7638 50.4885 19.0854 50.0901 19.0854H23.0809C22.6825 19.0854 22.3609 18.7638 22.3609 18.3654C22.3609 17.967 22.6825 17.6454 23.0809 17.6454H49.3701V16.9207C49.3701 15.8695 48.5157 15.0103 47.4597 15.0103H23.0233C21.9721 15.0103 21.1129 15.8647 21.1129 16.9207V18.3654C21.1129 18.4902 21.0793 18.615 21.0169 18.7206L17.4889 24.9269C18.8377 24.7157 19.6825 24.1781 20.5609 23.6117C21.7561 22.8437 23.1145 21.9749 25.7016 21.9749C28.2888 21.9749 29.6472 22.8437 30.8424 23.6117C31.9751 24.3365 33.0407 25.0229 35.2055 25.0229C37.3703 25.0229 38.4358 24.3365 39.5686 23.6117C40.7638 22.8437 42.1222 21.9749 44.7093 21.9749C47.2965 21.9749 48.6549 22.8437 49.8549 23.6117C50.7093 24.1589 51.5252 24.6821 52.8068 24.9077L50.1189 20.8422C49.8981 20.511 49.9893 20.0646 50.3205 19.8438C50.6517 19.623 51.098 19.7142 51.3188 20.0454L54.818 25.3445C54.962 25.5653 54.9764 25.8485 54.8516 26.0837C54.7268 26.3189 54.482 26.4629 54.218 26.4629L54.2132 26.4677Z" fill="#3F3F3F"/>
<path d="M29.2786 10.6168C28.8802 10.6168 28.5586 10.2952 28.5586 9.89682C28.5586 8.94163 28.9234 8.43764 29.2114 8.03444C29.4418 7.71285 29.5954 7.50165 29.5954 7.01686C29.5954 6.53207 29.4418 6.31607 29.2114 5.99447C28.9186 5.59128 28.5586 5.08728 28.5586 4.1321C28.5586 3.17691 28.9234 2.67291 29.2114 2.26972C29.4418 1.94813 29.5954 1.73693 29.5954 1.24733C29.5954 0.848939 29.917 0.527344 30.3154 0.527344C30.7138 0.527344 31.0354 0.848939 31.0354 1.24733C31.0354 2.20252 30.6706 2.70651 30.3826 3.10971C30.1522 3.4313 29.9986 3.6425 29.9986 4.1321C29.9986 4.62169 30.1522 4.83289 30.3826 5.15448C30.6754 5.55768 31.0354 6.06167 31.0354 7.01686C31.0354 7.97205 30.6706 8.47604 30.3826 8.87923C30.1522 9.20083 29.9986 9.41203 29.9986 9.90162C29.9986 10.3 29.677 10.6216 29.2786 10.6216V10.6168Z" fill="#018C3B"/>
<path d="M34.6106 10.0942C34.2122 10.0942 33.8906 9.77264 33.8906 9.37425C33.8906 8.41906 34.2554 7.91507 34.5434 7.51187C34.7738 7.19028 34.9274 6.97911 34.9274 6.48952C34.9274 5.99992 34.7738 5.78872 34.5434 5.46713C34.2506 5.06393 33.8906 4.55994 33.8906 3.60475C33.8906 2.64957 34.2554 2.14557 34.5434 1.74238C34.7738 1.42078 34.9274 1.20958 34.9274 0.71999C34.9274 0.321595 35.249 0 35.6474 0C36.0458 0 36.3674 0.321595 36.3674 0.71999C36.3674 1.67518 36.0026 2.17917 35.7146 2.58237C35.4842 2.90396 35.3306 3.11516 35.3306 3.60475C35.3306 4.09435 35.4842 4.30554 35.7146 4.62714C36.0074 5.03033 36.3674 5.53433 36.3674 6.48952C36.3674 7.4447 36.0026 7.94867 35.7146 8.35186C35.4842 8.67346 35.3306 8.88466 35.3306 9.37425C35.3306 9.77264 35.009 10.0942 34.6106 10.0942Z" fill="#018C3B"/>
<path d="M39.9387 10.3579C39.5403 10.3579 39.2188 10.0363 39.2188 9.63792C39.2188 8.68753 39.5836 8.17874 39.8715 7.77555C40.1019 7.45395 40.2555 7.24275 40.2555 6.75316C40.2555 6.26357 40.1019 6.05237 39.8715 5.73077C39.5788 5.32758 39.2188 4.82358 39.2188 3.8684C39.2188 2.91321 39.5836 2.40921 39.8715 2.00602C40.1019 1.68442 40.2555 1.47325 40.2555 0.983661C40.2555 0.585267 40.5771 0.263672 40.9755 0.263672C41.3739 0.263672 41.6955 0.585267 41.6955 0.983661C41.6955 1.93885 41.3307 2.44281 41.0427 2.84601C40.8123 3.1676 40.6587 3.3788 40.6587 3.8684C40.6587 4.35799 40.8123 4.56919 41.0427 4.89078C41.3355 5.29398 41.6955 5.79797 41.6955 6.75316C41.6955 7.70834 41.3307 8.21234 41.0427 8.61553C40.8123 8.93713 40.6587 9.14832 40.6587 9.63312C40.6587 10.0315 40.3371 10.3531 39.9387 10.3531V10.3579Z" fill="#018C3B"/>
</svg>
