<svg preserveAspectRatio="none" viewBox="0 0 42 60" fill="none" xmlns="http://www.w3.org/2000/svg">
<path d="M12.705 28.6275C12.6211 28.6275 12.5328 28.6098 12.4533 28.5789L7.85469 26.675C7.51455 26.5336 7.35552 26.1493 7.49688 25.8092C7.63824 25.4734 8.02697 25.31 8.36269 25.4514L12.9613 27.3553C13.3014 27.4966 13.4604 27.881 13.3191 28.2211C13.213 28.4773 12.9657 28.6319 12.705 28.6319V28.6275Z" fill="#3F3F3F"/>
<path d="M17.2027 30.5541C17.1188 30.5541 17.0304 30.5364 16.9509 30.5055L15.4445 29.8826C15.1044 29.7413 14.9454 29.3569 15.0867 29.0168C15.2281 28.6767 15.6124 28.5176 15.9525 28.659L17.4589 29.2819C17.799 29.4232 17.9581 29.8075 17.8167 30.1477C17.7107 30.4039 17.4633 30.5585 17.2027 30.5585V30.5541Z" fill="#3F3F3F"/>
<path d="M14.2104 25.1739C14.1264 25.1739 14.0381 25.1562 13.9586 25.1253L9.17891 23.1463C8.83877 23.0049 8.67974 22.6206 8.8211 22.2805C8.96245 21.9403 9.34677 21.7813 9.68691 21.9227L14.4666 23.9017C14.8067 24.043 14.9658 24.4274 14.8244 24.7675C14.7184 25.0237 14.471 25.1783 14.2104 25.1783V25.1739Z" fill="#3F3F3F"/>
<path d="M24.0866 11.7305C24.0468 11.7305 24.0026 11.7305 23.9629 11.7173C23.7773 11.6819 19.3731 10.8205 17.827 7.68855C16.2765 4.55658 18.2688 0.5367 18.3571 0.36442C18.4897 0.0993728 18.7812 -0.04198 19.0728 0.0110293C19.2583 0.0463689 23.6625 0.907769 25.2086 4.03974C26.7547 7.17171 24.7668 11.1916 24.6829 11.3638C24.5681 11.5891 24.3383 11.7305 24.091 11.7305H24.0866ZM19.329 1.44228C18.8961 2.50246 18.0347 5.12201 19.0153 7.10545C19.996 9.0933 22.6023 9.99444 23.7067 10.2948C24.1351 9.23464 25.001 6.61509 24.0203 4.63166C23.0396 2.64381 20.4333 1.74266 19.3334 1.44228H19.329Z" fill="#3F3F3F"/>
<path d="M24.0368 17.4107C23.9573 17.4107 23.8733 17.3974 23.7938 17.3621C23.4537 17.2251 23.2858 16.8408 23.4228 16.5007C23.8248 15.4891 24.6641 13.3775 25.2693 12.07L25.4062 11.7696C26.3869 9.63155 28.4233 5.18758 32.6376 4.18482C37.0064 3.14672 41.4901 6.81322 41.6801 6.97225C41.9054 7.1622 41.9805 7.47584 41.8656 7.74531C41.7684 7.97059 39.4095 13.2627 35.0451 14.3008C32.3946 14.9325 29.6911 13.8281 27.8932 12.79C27.5752 12.6089 27.4691 12.2025 27.6503 11.8844C27.8314 11.5664 28.2378 11.4604 28.5558 11.6415C30.1461 12.5603 32.5095 13.541 34.7403 13.0109C37.775 12.2908 39.7806 8.92033 40.4255 7.67903C39.2858 6.85739 35.9816 4.75027 32.9468 5.47473C29.3598 6.3273 27.5707 10.2279 26.6122 12.3218L26.4708 12.6266C25.8833 13.9032 25.0528 15.9883 24.6508 16.991C24.5492 17.2516 24.2974 17.4107 24.0368 17.4107Z" fill="#018C3B"/>
<path d="M29.5766 10.7148C29.2762 10.7148 29.0023 10.5072 28.9316 10.2024C28.8477 9.8446 29.073 9.49118 29.4308 9.40725L36.4501 7.7949C36.8079 7.71097 37.1613 7.93626 37.2452 8.29407C37.3292 8.65189 37.1039 9.00528 36.7461 9.08921L29.7268 10.7016C29.6782 10.7148 29.6252 10.7192 29.5766 10.7192V10.7148Z" fill="#018C3B"/>
<path d="M2.47146 59.9992C2.20641 59.9992 1.96346 59.8402 1.86186 59.5928C-1.00506 52.7325 -0.62959 47.4404 3.46538 36.9357C4.07941 35.3631 4.84363 33.1588 5.65202 30.822C6.92867 27.1422 8.37317 22.9721 9.5703 20.2952C11.2445 16.5624 15.5029 15.2328 19.9204 17.0616L25.5835 19.4073C30.0054 21.2361 32.3467 25.4857 31.0303 29.2847C29.2147 34.5105 28.9055 37.6336 29.8773 40.8009C30.319 42.241 31.3306 46.4774 31.3748 46.6585C31.4322 46.9059 31.3439 47.1665 31.1451 47.3255C30.9463 47.4846 30.6724 47.5199 30.4427 47.4095C30.3235 47.352 27.4875 45.987 25.8707 44.1405C25.1992 43.3719 24.1125 42.135 23.525 40.1958C23.419 39.8468 23.6178 39.4757 23.9668 39.3697C24.3157 39.2637 24.6868 39.4625 24.7928 39.8114C25.2964 41.4724 26.2638 42.5812 26.8425 43.2394C27.6509 44.1626 28.8304 44.971 29.7271 45.51C29.3825 44.1052 28.8745 42.0732 28.6051 41.1941C27.5405 37.7264 27.8541 34.3824 29.7713 28.8562C30.858 25.7286 28.8348 22.1947 25.0711 20.6353L19.408 18.2897C15.6885 16.7524 12.1368 17.7993 10.7718 20.8429C9.5968 23.4669 8.16113 27.606 6.89333 31.2593C6.08051 33.6049 5.31188 35.8225 4.68902 37.4172C1.05347 46.7468 0.448275 51.7783 2.49355 57.5872C4.20752 53.7396 6.20421 50.294 8.84584 46.5922C9.11089 46.2211 9.37151 45.828 9.63656 45.4348C10.1843 44.6132 10.7542 43.7606 11.3594 43.0892C12.7597 41.5298 13.811 41.8346 14.3102 42.1571C15.3174 42.8065 15.1319 43.8666 14.9817 44.7148C14.9552 44.865 14.9287 45.024 14.9022 45.1831C14.5311 47.7231 13.9215 49.6403 13.3163 51.3321C12.742 52.9401 11.8629 54.7026 11.1562 56.1206C11.0634 56.3018 10.9706 56.4917 10.8823 56.6772C13.0027 55.405 16.7089 52.759 18.6923 48.8716C19.6509 46.9986 20.901 44.865 22.2263 42.6077L22.5753 42.0113C22.7608 41.6933 23.1672 41.5917 23.4808 41.7728C23.7945 41.9583 23.9005 42.3647 23.7194 42.6784L23.3704 43.2747C22.054 45.5144 20.8127 47.6347 19.8718 49.4724C16.7884 55.5155 10.1225 58.6209 9.83977 58.749C9.67632 58.8241 9.48636 58.8286 9.3185 58.7623C9.15064 58.696 9.01811 58.5591 8.94744 58.3912C8.77516 57.9539 8.97836 57.5166 9.97229 55.5287C10.6658 54.1416 11.5228 52.4188 12.0706 50.886C12.6493 49.2559 13.2368 47.4183 13.5902 44.9887C13.6167 44.812 13.6432 44.6441 13.6741 44.4807C13.8287 43.606 13.8155 43.4117 13.5902 43.2659C13.2279 43.0318 12.5432 43.7474 12.34 43.9683C11.8011 44.569 11.2578 45.3818 10.7365 46.1637C10.467 46.5701 10.1932 46.9765 9.9237 47.3564C7.00377 51.447 4.89222 55.2195 3.07224 59.5884C2.97064 59.8357 2.72767 59.9948 2.46263 59.9948L2.47146 59.9992Z" fill="#3F3F3F"/>
</svg>