<svg xmlns="http://www.w3.org/2000/svg" preserveAspectRatio="none" viewBox="0 0 27 28" fill="none">
  <path d="M13.1485 7.57709C12.6771 7.01138 11.8364 6.93495 11.2707 7.40637C10.705 7.87779 10.6285 8.71854 11.1 9.28424L13.1485 7.57709ZM16.5437 13.734L17.568 14.5876C17.98 14.0931 17.98 13.3749 17.568 12.8804L16.5437 13.734ZM11.1 18.1838C10.6285 18.7495 10.705 19.5902 11.2707 20.0616C11.8364 20.5331 12.6771 20.4566 13.1485 19.8909L11.1 18.1838ZM11.1 9.28424L15.5194 14.5876L17.568 12.8804L13.1485 7.57709L11.1 9.28424ZM15.5194 12.8804L11.1 18.1838L13.1485 19.8909L17.568 14.5876L15.5194 12.8804ZM13.625 3.33333C19.516 3.33333 24.2917 8.10896 24.2917 14H26.9583C26.9583 6.6362 20.9888 0.666666 13.625 0.666667V3.33333ZM24.2917 14C24.2917 19.891 19.516 24.6667 13.625 24.6667V27.3333C20.9888 27.3333 26.9583 21.3638 26.9583 14H24.2917ZM13.625 24.6667C7.73396 24.6667 2.95833 19.891 2.95833 14H0.291667C0.291667 21.3638 6.2612 27.3333 13.625 27.3333V24.6667ZM2.95833 14C2.95833 8.10896 7.73396 3.33333 13.625 3.33333V0.666667C6.2612 0.666667 0.291666 6.6362 0.291667 14H2.95833Z" fill="white"/>
</svg>