<svg xmlns="http://www.w3.org/2000/svg" width="20" height="21" viewBox="0 0 20 21" fill="none">
  <path d="M13.2334 8.2414L10.0001 11.4747L6.76674 8.2414C6.68959 8.16425 6.598 8.10305 6.49719 8.06129C6.39639 8.01954 6.28835 7.99805 6.17924 7.99805C6.07013 7.99805 5.96209 8.01954 5.86129 8.06129C5.76048 8.10305 5.66889 8.16425 5.59174 8.2414C5.51459 8.31855 5.45339 8.41014 5.41163 8.51094C5.36988 8.61175 5.34839 8.71979 5.34839 8.8289C5.34839 8.93801 5.36988 9.04605 5.41163 9.14685C5.45339 9.24765 5.51459 9.33925 5.59174 9.4164L9.41674 13.2414C9.74174 13.5664 10.2667 13.5664 10.5917 13.2414L14.4167 9.4164C14.494 9.3393 14.5553 9.24773 14.5971 9.14692C14.6389 9.04611 14.6604 8.93804 14.6604 8.8289C14.6604 8.71976 14.6389 8.61169 14.5971 8.51088C14.5553 8.41007 14.494 8.31849 14.4167 8.2414C14.0917 7.92473 13.5584 7.9164 13.2334 8.2414Z" fill="#222222"/>
</svg>