<svg preserveAspectRatio="none" viewBox="0 0 61 61" fill="none" xmlns="http://www.w3.org/2000/svg">
<path d="M5.53906 48.7434L19.4648 34.8172L20.9405 26.4546L43.2425 4.15196C44.3302 3.06419 46.09 2.89789 47.2678 3.86787C48.6188 4.99028 48.6881 6.99954 47.4756 8.21202L52.8312 2.8563C54.0436 1.64382 56.0597 1.72004 57.1751 3.07802C58.152 4.25585 57.9719 6.0226 56.8911 7.10344L55.1937 8.80092C56.4061 7.58844 58.4153 7.65772 59.5377 9.00877C60.5145 10.1935 60.3413 11.9534 59.2536 13.0411L52.4986 19.7964C53.718 18.577 55.7271 18.6532 56.8426 20.0042C57.8264 21.189 57.6393 22.9488 56.5585 24.0297L40.1941 40.3947C38.4343 42.1545 36.335 43.5471 34.0279 44.4894C31.7208 45.4316 29.6216 46.8173 27.8618 48.5772L16.6034 59.8359" fill="white"/>
<path d="M5.53906 48.7434L19.4648 34.8172L20.9405 26.4546L43.2425 4.15196C44.3302 3.06419 46.09 2.89789 47.2678 3.86787C48.6188 4.99028 48.6881 6.99954 47.4756 8.21202L52.8312 2.8563C54.0436 1.64382 56.0597 1.72004 57.1751 3.07802C58.152 4.25585 57.9719 6.0226 56.8911 7.10344L55.1937 8.80092C56.4061 7.58844 58.4153 7.65772 59.5377 9.00877C60.5145 10.1935 60.3413 11.9534 59.2536 13.0411L52.4986 19.7964C53.718 18.577 55.7271 18.6532 56.8426 20.0042C57.8264 21.189 57.6393 22.9488 56.5585 24.0297L40.1941 40.3947C38.4343 42.1545 36.335 43.5471 34.0279 44.4894C31.7208 45.4316 29.6216 46.8173 27.8618 48.5772L16.6034 59.8359" stroke="#3C3C3C" stroke-width="1.5" stroke-linecap="round" stroke-linejoin="round"/>
<g style="mix-blend-mode:darken">
<path d="M33.0129 31.9068L30.5811 34.3387C29.3479 35.5719 27.3387 35.5719 26.1055 34.3387L26.6459 20.7382L33.29 14.0938V14.1838L33.0198 20.6827C34.5718 22.2347 35.3477 24.2647 35.3408 26.2947C35.3408 28.3178 34.5648 30.3548 33.0198 31.9068H33.0129Z" fill="#DCF4E6"/>
</g>
<path d="M47.4897 8.20703L38.4414 17.2556" stroke="#3C3C3C" stroke-width="1.5" stroke-linecap="round" stroke-linejoin="round"/>
<path d="M55.2022 8.78906L42.5859 21.4057" stroke="#3C3C3C" stroke-width="1.5" stroke-linecap="round" stroke-linejoin="round"/>
<path d="M52.5125 19.7812L46.7344 25.5526" stroke="#3C3C3C" stroke-width="1.5" stroke-linecap="round" stroke-linejoin="round"/>
<g style="mix-blend-mode:darken">
<path d="M56.5776 24.0157L40.2131 40.3807C38.4533 42.1405 36.3541 43.5331 34.047 44.4754C31.7399 45.4177 29.6406 46.8034 27.8808 48.5632L23.2389 53.2053L20.918 50.8842L25.5599 46.2422C27.3196 44.4824 29.4189 43.0897 31.726 42.1474C34.0331 41.2052 36.1324 39.8126 37.8921 38.0528L54.2566 21.6878C54.9841 20.9603 55.3028 19.9279 55.1365 18.9648C55.7877 19.0826 56.4043 19.4291 56.8685 19.9903C57.8523 21.175 57.6653 22.9349 56.5845 24.0157H56.5776Z" fill="#DCF4E6"/>
</g>
<path d="M19.4648 34.812L23.4209 12.4054L24.0444 8.88569C24.1622 8.19284 24.6333 7.69401 25.1945 7.4723C25.8457 7.21595 26.6217 7.31986 27.1898 7.88799C28.0489 8.74712 28.7071 9.7656 29.1436 10.8741C29.5731 11.9758 29.774 13.1744 29.7256 14.3869L29.4554 20.8858C31.0073 22.4377 31.7832 24.4678 31.7763 26.4978C31.7763 28.5209 31.0003 30.5579 29.4554 32.1099L26.7395 34.8258" fill="white"/>
<path d="M19.4648 34.812L23.4209 12.4054L24.0444 8.88569C24.1622 8.19284 24.6333 7.69401 25.1945 7.4723C25.8457 7.21595 26.6217 7.31986 27.1898 7.88799C28.0489 8.74712 28.7071 9.7656 29.1436 10.8741C29.5731 11.9758 29.774 13.1744 29.7256 14.3869L29.4554 20.8858C31.0073 22.4377 31.7832 24.4678 31.7763 26.4978C31.7763 28.5209 31.0003 30.5579 29.4554 32.1099L26.7395 34.8258" stroke="#3C3C3C" stroke-width="1.5" stroke-linecap="round" stroke-linejoin="round"/>
<g style="mix-blend-mode:darken">
<path d="M59.2969 12.9997L46.743 25.5541L44.8516 23.6626L57.4055 11.1083C58.133 10.3808 58.521 9.41772 58.4586 8.55859C59.0406 8.60709 59.5602 8.85651 59.9274 9.32764C60.7033 10.3046 60.3777 11.9189 59.2969 12.9997Z" fill="#DCF4E6"/>
</g>
<g style="mix-blend-mode:darken">
<path d="M47.4826 8.20674L38.4344 17.2553L36.543 15.3638L45.5912 6.31529C46.3187 5.5878 46.7067 4.62475 46.6443 3.76562C47.2263 3.81412 47.7459 4.06354 48.1131 4.53467C48.8891 5.51158 48.5634 7.1259 47.4826 8.20674Z" fill="#DCF4E6"/>
</g>
<g style="mix-blend-mode:darken">
<path d="M57.1583 7.04272L42.6922 21.5093L40.8008 19.6178L55.2669 5.15127C55.9944 4.42378 56.3824 3.46069 56.32 2.60156C56.902 2.65006 57.4216 2.89952 57.7888 3.37065C58.5648 4.34756 58.2391 5.96188 57.1583 7.04272Z" fill="#DCF4E6"/>
</g>
<path d="M40.1852 42.869L38.4739 41.1577H38.4808L37.2476 39.9106C36.0975 38.7605 34.2408 38.7605 33.0907 39.9106C31.9406 41.0607 31.9406 42.9175 33.0907 44.0677C31.9406 42.9175 30.0838 42.9175 28.9337 44.0677C27.7837 45.2178 27.7837 47.0746 28.9337 48.2247L16.8994 36.19C15.8186 35.1092 14.0519 34.9429 12.8741 35.9129C11.5162 37.0353 11.4469 39.0515 12.6524 40.257L15.0704 42.675C13.8579 41.4626 11.8487 41.5388 10.7264 42.8829C9.75642 44.0677 9.92962 45.8275 11.0104 46.9083L23.5782 59.4765" fill="white"/>
<path d="M40.1852 42.869L38.4739 41.1577H38.4808L37.2476 39.9106C36.0975 38.7605 34.2408 38.7605 33.0907 39.9106C31.9406 41.0607 31.9406 42.9175 33.0907 44.0677C31.9406 42.9175 30.0838 42.9175 28.9337 44.0677C27.7837 45.2178 27.7837 47.0746 28.9337 48.2247L16.8994 36.19C15.8186 35.1092 14.0519 34.9429 12.8741 35.9129C11.5162 37.0353 11.4469 39.0515 12.6524 40.257L15.0704 42.675C13.8579 41.4626 11.8487 41.5388 10.7264 42.8829C9.75642 44.0677 9.92962 45.8275 11.0104 46.9083L23.5782 59.4765" stroke="#3C3C3C" stroke-width="1.5" stroke-linecap="round" stroke-linejoin="round"/>
<path d="M15.0742 42.668L25.2934 52.8944" stroke="#3C3C3C" stroke-width="1.5" stroke-linecap="round" stroke-linejoin="round"/>
<path d="M1 28.3125L8.21228 35.525" stroke="#66A67F" stroke-width="1.5" stroke-linecap="round" stroke-linejoin="round"/>
<path d="M10.8633 32.8625V28.7539" stroke="#66A67F" stroke-width="1.5" stroke-linecap="round" stroke-linejoin="round"/>
<path d="M5.54506 38.1797H1.42969" stroke="#66A67F" stroke-width="1.5" stroke-linecap="round" stroke-linejoin="round"/>
</svg>
