<svg preserveAspectRatio="none" viewBox="0 0 62 61" fill="none" xmlns="http://www.w3.org/2000/svg">
<path d="M41.8951 31.0725H31.313L28.889 19.2082C30.6412 17.3798 31.7285 14.9072 31.7285 12.1714C31.7285 6.31892 26.7837 1.61612 20.8416 2.02476C16.437 2.32951 12.711 5.52934 11.6722 9.82348C11.229 11.652 11.3329 13.4042 11.7969 14.9972L10.0239 17.1789C9.48375 17.8507 9.73999 18.855 10.5364 19.1736L11.9077 19.7277V20.3857L12.3094 24.4859C12.3094 25.8157 13.556 26.7992 14.851 26.4806L18.5977 25.4763L18.2168 31.0725H9.13054C4.64281 31.0725 1 34.7156 1 39.2037V50.4031H50.0188V39.2037C50.0188 34.7156 46.3759 31.0725 41.8882 31.0725H41.8951Z" fill="white" stroke="#3C3C3C" stroke-width="1.5" stroke-linecap="round" stroke-linejoin="round"/>
<g style="mix-blend-mode:darken">
<path d="M9.875 18.5372L10.9623 18.4818C11.7656 18.4402 12.5552 18.648 13.2408 19.0636C13.5594 19.2575 13.4901 19.7354 13.13 19.8324L12.0704 20.1302L9.875 18.5372Z" fill="#DCF4E6"/>
</g>
<path d="M42.3313 43.5117L41.6526 59.5524H9.39355L8.71484 43.5117" fill="white"/>
<path d="M42.3313 43.5117L41.6526 59.5524H9.39355L8.71484 43.5117" stroke="#3C3C3C" stroke-width="1.5" stroke-linecap="round" stroke-linejoin="round"/>
<path d="M12.0938 22.1335L21.6233 19.3008L25.5223 23.0755V45.2873" stroke="#3C3C3C" stroke-width="1.5" stroke-linecap="round" stroke-linejoin="round"/>
<path d="M22.3945 48.4088C22.3945 46.6842 23.7935 45.2852 25.5179 45.2852C27.2424 45.2852 28.6413 46.6842 28.6413 48.4088" stroke="#3C3C3C" stroke-width="1.5" stroke-linecap="round" stroke-linejoin="round"/>
<path d="M15.945 56.5262H14.6569C13.5142 56.5262 12.6623 55.4735 12.9047 54.3584L14.2552 48.0972C14.9962 44.6481 17.3648 41.7738 20.6059 40.3816C21.4508 40.0215 22.3927 40.6379 22.3927 41.5591V50.085C22.3927 53.645 19.5047 56.5331 15.945 56.5331V56.5262Z" fill="#66A67F" stroke="#3C3C3C" stroke-width="1.5" stroke-linecap="round" stroke-linejoin="round"/>
<path d="M35.0883 56.5262H36.3764C37.5191 56.5262 38.371 55.4735 38.1286 54.3584L36.7781 48.0972C36.0371 44.6481 33.6686 41.7738 30.4274 40.3816C29.5825 40.0215 28.6406 40.6379 28.6406 41.5591V50.085C28.6406 53.645 31.5286 56.5331 35.0883 56.5331V56.5262Z" fill="#66A67F" stroke="#3C3C3C" stroke-width="1.5" stroke-linecap="round" stroke-linejoin="round"/>
<g style="mix-blend-mode:darken">
<path d="M50.0323 39.2037V50.3962H47.8784V41.3577C47.8784 36.8627 44.2425 33.2266 39.7548 33.2266H29.1657L26.7487 21.3623C28.5009 19.5338 29.5882 17.0612 29.5882 14.3254C29.5882 8.46601 24.6364 3.77014 18.7013 4.17878C16.7552 4.3173 14.9199 5.02376 13.4102 6.13193C15.1415 3.79093 17.8425 2.23257 20.8482 2.02479C26.7903 1.61616 31.7351 6.31202 31.7351 12.1714C31.7351 14.9072 30.6478 17.3798 28.8956 19.2083L31.3195 31.0726H41.9017C46.3964 31.0726 50.0323 34.7157 50.0323 39.2037Z" fill="#DCF4E6"/>
</g>
</svg>
