<svg preserveAspectRatio="none" viewBox="0 0 61 62" fill="none" xmlns="http://www.w3.org/2000/svg">
<path d="M17.7529 60.904V54.5505L12.4688 47.0026V12.7768C12.4688 11.1103 13.6909 9.63124 15.3365 9.46459C17.2322 9.28405 18.8292 10.777 18.8292 12.6379V4.42342C18.8292 2.56249 20.4332 1.07653 22.3289 1.25707C23.9815 1.40983 25.1966 2.90274 25.1966 4.5623V7.15927C25.1966 5.29834 26.7937 3.81237 28.6893 3.98596C30.3489 4.14567 31.5641 5.63164 31.5641 7.29814V17.6582C31.5641 15.7904 33.1611 14.3044 35.0568 14.4849C36.7163 14.6377 37.9245 16.1306 37.9245 17.7902V42.9058C37.9245 45.6069 37.3829 48.2802 36.3344 50.7731C35.2859 53.2659 34.7374 55.9392 34.7374 58.6403V60.904" fill="white"/>
<path d="M17.7529 60.904V54.5505L12.4688 47.0026V12.7768C12.4688 11.1103 13.6909 9.63124 15.3365 9.46459C17.2322 9.28406 18.8292 10.777 18.8292 12.6379V4.42342C18.8292 2.56249 20.4332 1.07653 22.3289 1.25707C23.9815 1.40983 25.1966 2.90274 25.1966 4.5623V7.15927C25.1966 5.29834 26.7937 3.81237 28.6893 3.98596C30.3489 4.14567 31.5641 5.63164 31.5641 7.29814V17.6582C31.5641 15.7904 33.1611 14.3044 35.0568 14.4849C36.7163 14.6377 37.9245 16.1306 37.9245 17.7902V42.9058C37.9245 45.6069 37.3829 48.2802 36.3344 50.7731C35.2859 53.2659 34.7373 55.9392 34.7373 58.6403V60.904" stroke="#3C3C3C" stroke-width="1.5" stroke-linecap="round" stroke-linejoin="round"/>
<g style="mix-blend-mode:darken">
<path d="M25.9266 41.9205V45.6563C25.9266 47.5519 24.392 49.0865 22.4964 49.0865L12.4766 38.2403V28.0469L12.546 28.1163L17.3233 33.3103C19.6981 33.3103 21.8576 34.2754 23.413 35.8309C24.9684 37.3793 25.9335 39.5388 25.9335 41.9205H25.9266Z" fill="#DCF4E6"/>
</g>
<path d="M18.8398 12.6406V26.5212" stroke="#3C3C3C" stroke-width="1.5" stroke-linecap="round" stroke-linejoin="round"/>
<path d="M25.2109 7.16016V26.5194" stroke="#3C3C3C" stroke-width="1.5" stroke-linecap="round" stroke-linejoin="round"/>
<path d="M31.582 17.6602V26.5204" stroke="#3C3C3C" stroke-width="1.5" stroke-linecap="round" stroke-linejoin="round"/>
<g style="mix-blend-mode:darken">
<path d="M37.9446 17.7935V42.9091C37.9446 45.6102 37.403 48.2835 36.3545 50.7764C35.306 53.2692 34.7575 55.9425 34.7575 58.6436V60.9073H31.1953V58.6436C31.1953 55.9425 31.7369 53.2692 32.7854 50.7764C33.8339 48.2835 34.3756 45.6102 34.3756 42.9091V17.7935C34.3756 16.6755 33.827 15.6409 32.966 15.0299C33.5631 14.6202 34.2922 14.4119 35.0769 14.4882C36.7364 14.641 37.9446 16.1339 37.9446 17.7935Z" fill="#DCF4E6"/>
</g>
<path d="M17.7511 54.5456L3.59276 34.3184L1.37076 31.1381C0.933308 30.5132 0.905532 29.7702 1.16939 29.1731C1.46798 28.4787 2.14846 27.9648 3.02337 27.9648C4.34269 27.9648 5.63422 28.2426 6.81466 28.7564C7.98815 29.2703 9.06444 30.0341 9.95324 30.9993L14.7305 36.1932C17.1053 36.1932 19.2648 37.1584 20.8202 38.7138C22.3756 40.2623 23.3408 42.4218 23.3408 44.8035V48.9697" fill="white"/>
<path d="M17.7511 54.5456L3.59276 34.3184L1.37076 31.1381C0.933308 30.5132 0.905532 29.7702 1.16939 29.1731C1.46798 28.4787 2.14846 27.9648 3.02337 27.9648C4.34269 27.9648 5.63422 28.2426 6.81466 28.7564C7.98815 29.2703 9.06444 30.0341 9.95324 30.9993L14.7305 36.1932C17.1053 36.1932 19.2648 37.1584 20.8202 38.7138C22.3756 40.2623 23.3408 42.4218 23.3408 44.8035V48.9697" stroke="#3C3C3C" stroke-width="1.5" stroke-linecap="round" stroke-linejoin="round"/>
<g style="mix-blend-mode:darken">
<path d="M31.5756 7.25049V26.5125H28.6731V7.25049C28.6731 6.13255 28.2287 5.09793 27.5273 4.48688C28.0065 4.07719 28.6036 3.86888 29.2425 3.94526C30.5895 4.09803 31.5756 5.59093 31.5756 7.25049Z" fill="#DCF4E6"/>
</g>
<g style="mix-blend-mode:darken">
<path d="M18.8373 12.6411V26.5217H15.9348V12.6411C15.9348 11.5232 15.4904 10.4886 14.7891 9.8775C15.2682 9.46782 15.8653 9.25951 16.5042 9.33589C17.8513 9.48865 18.8373 10.9816 18.8373 12.6411Z" fill="#DCF4E6"/>
</g>
<g style="mix-blend-mode:darken">
<path d="M25.3646 4.32081V26.52H22.4621V4.32081C22.4621 3.20286 22.0177 2.16824 21.3164 1.55719C21.7955 1.14751 22.3927 0.939195 23.0315 1.01558C24.3786 1.16834 25.3646 2.66125 25.3646 4.32081Z" fill="#DCF4E6"/>
</g>
<path d="M6.30717 33.5323C6.98595 33.5323 7.53621 32.982 7.53621 32.3033C7.53621 31.6245 6.98595 31.0742 6.30717 31.0742C5.62839 31.0742 5.07812 31.6245 5.07812 32.3033C5.07812 32.982 5.62839 33.5323 6.30717 33.5323Z" fill="#66A67F"/>
<path d="M26.5962 31.9268C27.275 31.9268 27.8253 31.3766 27.8253 30.6978C27.8253 30.019 27.275 29.4688 26.5962 29.4688C25.9175 29.4688 25.3672 30.019 25.3672 30.6978C25.3672 31.3766 25.9175 31.9268 26.5962 31.9268Z" fill="#66A67F"/>
<path d="M31.2017 36.3643C31.8805 36.3643 32.4307 35.8141 32.4307 35.1353C32.4307 34.4565 31.8805 33.9062 31.2017 33.9062C30.5229 33.9062 29.9727 34.4565 29.9727 35.1353C29.9727 35.8141 30.5229 36.3643 31.2017 36.3643Z" fill="#66A67F"/>
<path d="M21.315 57.5596C21.9938 57.5596 22.544 57.0094 22.544 56.3306C22.544 55.6518 21.9938 55.1016 21.315 55.1016C20.6362 55.1016 20.0859 55.6518 20.0859 56.3306C20.0859 57.0094 20.6362 57.5596 21.315 57.5596Z" fill="#66A67F"/>
<path d="M22.1119 6.79793C22.7906 6.79793 23.3409 6.24767 23.3409 5.56888C23.3409 4.8901 22.7906 4.33984 22.1119 4.33984C21.4331 4.33984 20.8828 4.8901 20.8828 5.56888C20.8828 6.24767 21.4331 6.79793 22.1119 6.79793Z" fill="#66A67F"/>
<path d="M28.3228 17.9151C29.0016 17.9151 29.5518 17.3649 29.5518 16.6861C29.5518 16.0073 29.0016 15.457 28.3228 15.457C27.644 15.457 27.0938 16.0073 27.0938 16.6861C27.0938 17.3649 27.644 17.9151 28.3228 17.9151Z" fill="#66A67F"/>
<path d="M15.5884 23.3214C16.2672 23.3214 16.8175 22.7711 16.8175 22.0923C16.8175 21.4135 16.2672 20.8633 15.5884 20.8633C14.9096 20.8633 14.3594 21.4135 14.3594 22.0923C14.3594 22.7711 14.9096 23.3214 15.5884 23.3214Z" fill="#66A67F"/>
</svg>
