<svg preserveAspectRatio="none" viewBox="0 0 60 61" fill="none" xmlns="http://www.w3.org/2000/svg">
<path d="M1 51.3156C1 56.1017 4.8809 59.9754 9.6601 59.9754C14.4463 59.9754 18.3202 56.0947 18.3202 51.3156V51.1963C18.3202 46.8243 21.0361 42.9927 25.0644 41.2874C31.2823 38.6558 35.6474 32.5013 35.6474 25.3223C35.6474 15.8695 28.0681 8.17821 18.657 8.00277C9.24604 7.82733 1 16.0029 1 25.7153" fill="white"/>
<path d="M1 51.3156C1 56.1017 4.8809 59.9754 9.6601 59.9754C14.4463 59.9754 18.3202 56.0947 18.3202 51.3156V51.1963C18.3202 46.8243 21.0361 42.9927 25.0644 41.2874C31.2823 38.6558 35.6474 32.5013 35.6474 25.3223C35.6474 15.8695 28.0681 8.17821 18.657 8.00277C9.24604 7.82733 1 16.0029 1 25.7153" stroke="#3C3C3C" stroke-width="1.5" stroke-linecap="round" stroke-linejoin="round"/>
<path d="M12.9033 51.3167V51.2045C12.9033 45.8079 15.6473 40.8534 20.0967 37.8499C21.8511 36.6639 22.96 34.734 22.96 32.6147V32.32C22.96 28.8884 20.1809 26.1094 16.7491 26.1094H6.42578" stroke="#3C3C3C" stroke-width="1.5" stroke-linecap="round" stroke-linejoin="round"/>
<path d="M6.42578 41.6858L8.8259 39.2858C10.8962 37.2156 10.8962 33.8471 8.8259 31.7769L6.42578 29.3769V25.7207C6.42578 19.061 11.8787 13.4258 18.3422 13.4258H18.5597C24.9952 13.5451 30.2375 18.8855 30.2375 25.3277" stroke="#3C3C3C" stroke-width="1.5" stroke-linecap="round" stroke-linejoin="round"/>
<g style="mix-blend-mode:darken">
<path d="M12.7076 40.3424L10.3145 43.2968C10.3145 43.6407 9.56357 44.3776 9.12145 44.3776C8.37755 44.3776 7.70383 44.0758 7.2196 43.5846C6.73536 43.0933 6.43359 42.4196 6.43359 41.6828L8.8267 39.2898C10.897 37.2196 10.897 33.8581 8.8267 31.7809L6.43359 29.3809V25.7247C6.43359 21.2474 8.89688 17.2404 12.476 15.0859C11.1216 17.5421 10.3215 20.4965 10.3215 23.6404V28.1458L12.7146 31.1002C14.7919 33.6546 14.7919 37.795 12.7146 40.3494L12.7076 40.3424Z" fill="#DCF4E6"/>
</g>
<path d="M27.9883 31.2305H44.5365" stroke="#3C3C3C" stroke-width="1.5" stroke-linecap="round" stroke-linejoin="round"/>
<path d="M27.9939 32.3861C28.6334 32.3861 29.1518 31.8677 29.1518 31.2282C29.1518 30.5887 28.6334 30.0703 27.9939 30.0703C27.3544 30.0703 26.8359 30.5887 26.8359 31.2282C26.8359 31.8677 27.3544 32.3861 27.9939 32.3861Z" fill="#66A67F"/>
<path d="M53.9929 32.8235C54.8727 32.8235 55.5859 32.1119 55.5859 31.234C55.5859 30.3562 54.8727 29.6445 53.9929 29.6445H46.1328C45.253 29.6445 44.5398 30.3562 44.5398 31.234C44.5398 32.1119 45.253 32.8235 46.1328 32.8235H53.9929Z" fill="#66A67F" stroke="#3C3C3C" stroke-width="1.5" stroke-linecap="round" stroke-linejoin="round"/>
<path d="M26.0508 36.5234L37.7496 48.2218" stroke="#3C3C3C" stroke-width="1.5" stroke-linecap="round" stroke-linejoin="round"/>
<path d="M26.0564 37.683C26.6959 37.683 27.2143 37.1646 27.2143 36.5251C27.2143 35.8856 26.6959 35.3672 26.0564 35.3672C25.4169 35.3672 24.8984 35.8856 24.8984 36.5251C24.8984 37.1646 25.4169 37.683 26.0564 37.683Z" fill="#66A67F"/>
<path d="M43.317 56.0355C43.9391 56.6576 44.9467 56.6587 45.5674 56.038C46.1882 55.4173 46.1871 54.4097 45.5649 53.7876L40.007 48.23C39.3849 47.6078 38.3773 47.6067 37.7566 48.2275C37.1358 48.8482 37.1369 49.8557 37.7591 50.4778L43.317 56.0355Z" fill="#66A67F" stroke="#3C3C3C" stroke-width="1.5" stroke-linecap="round" stroke-linejoin="round"/>
</svg>
