<svg preserveAspectRatio="none" viewBox="0 0 122 122" fill="none" xmlns="http://www.w3.org/2000/svg">
<circle cx="60.5661" cy="60.5661" r="60.5661" fill="#EAF5EF"/>
<path d="M26 51.937C30.1267 44.8483 39.5447 36.2659 43.6461 35.7343C47.7222 35.2026 50.6337 35.5064 53.6971 34.7975C55.7225 34.7216 55.8237 29.4051 56.2035 27" stroke="#018C3B" stroke-width="1.5" stroke-linecap="round" stroke-linejoin="round"/>
<path d="M95.8988 51.937C91.7721 44.8483 82.3541 36.2659 78.2527 35.7343C74.1766 35.2026 71.2904 35.5064 68.2017 34.7975C66.1764 34.7216 66.0751 29.4051 65.6953 27" stroke="#018C3B" stroke-width="1.5" stroke-linecap="round" stroke-linejoin="round"/>
<path d="M41.6773 95.0003C42.7913 89.4812 47.5762 83.4559 49.8041 75.5824C51.7789 68.6456 46.5382 50.6961 42.9432 48.7973C41.4748 47.4049 32.5378 55.962 28.7148 64.2405" stroke="#018C3B" stroke-width="1.5" stroke-linecap="round" stroke-linejoin="round"/>
<path d="M31.1172 72.7731H42.3074M38.9655 68.9756L42.3074 72.7478" stroke="#018C3B" stroke-width="1.5" stroke-linecap="round" stroke-linejoin="round"/>
<path d="M38.9648 76.5456L42.3067 72.7734" stroke="#018C3B" stroke-width="1.5" stroke-linecap="round" stroke-linejoin="round"/>
<path d="M89.9559 72.7731H78.7656M82.1075 68.9756L78.7656 72.7478" stroke="#018C3B" stroke-width="1.5" stroke-linecap="round" stroke-linejoin="round"/>
<path d="M82.1075 76.5456L78.7656 72.7734" stroke="#018C3B" stroke-width="1.5" stroke-linecap="round" stroke-linejoin="round"/>
<path d="M80.2497 95.0003C79.1358 89.4812 74.3508 83.4559 72.1229 75.5824C70.1482 68.6456 75.3888 50.6961 78.9839 48.7973C80.4523 47.4049 89.3893 55.962 93.2122 64.2405" stroke="#018C3B" stroke-width="1.5" stroke-linecap="round" stroke-linejoin="round"/>
</svg>
