<svg preserveAspectRatio="none" viewBox="0 0 122 122" fill="none" xmlns="http://www.w3.org/2000/svg">
<circle cx="60.5661" cy="60.5661" r="60.5661" fill="#EAF5EF"/>
<path d="M39.2951 30H82.7049C87.8148 30 92 34.1656 92 39.2516V61V82.7484C92 87.8344 87.8148 92 82.7049 92H39.2951C34.1852 92 30 87.8344 30 82.7484V39.2516C30 34.1656 34.1852 30 39.2951 30Z" stroke="#018C3B" stroke-width="1.5" stroke-linecap="round" stroke-linejoin="round"/>
<path d="M60.2926 35.7156C65.6945 35.7156 70.7557 37.2172 75.0383 39.857L67.1301 49.8836C65.0619 48.8664 62.7503 48.3094 60.2926 48.3094C57.981 48.3094 55.7911 48.818 53.7958 49.7141L45.8633 39.6391C50.0729 37.1445 55.0124 35.6914 60.2926 35.6914V35.7156Z" stroke="#018C3B" stroke-width="1.5" stroke-linecap="round" stroke-linejoin="round"/>
<path d="M55.9141 41.7461L59.3937 48.3336" stroke="#018C3B" stroke-width="1.5" stroke-linecap="round" stroke-linejoin="round"/>
</svg>
