<svg preserveAspectRatio="none" viewBox="0 0 60 60" fill="none" xmlns="http://www.w3.org/2000/svg">
<path d="M33.132 51.3835C33.1507 52.8714 33.7681 54.2574 34.8252 55.1848C35.639 55.9084 36.6493 56.2957 37.6876 56.2957C37.9776 56.2957 38.2676 56.2651 38.5576 56.204C43.5436 55.1441 50.6156 53.544 52.7858 53.0447L57.2292 59.3225C57.2292 59.3225 57.2947 59.404 57.3415 59.4346C57.6315 59.6282 57.9682 59.7199 58.2957 59.7199C58.6231 59.7199 58.9598 59.6282 59.2498 59.4448C59.7363 59.139 60.0169 58.6193 59.9982 58.0689L59.624 46.7261C59.624 46.4917 59.4463 46.3083 59.2311 46.2981L54.2358 46.1452C53.9271 46.135 53.6371 46.2063 53.3752 46.349C53.3565 46.349 53.3471 46.349 53.3284 46.349L40.7279 47.4089L42.7859 31.3781C42.7859 31.3781 42.7859 31.3067 42.7859 31.266C42.4959 28.3615 39.8205 24.8964 37.6222 23.7346L35.6483 22.7053L19.3434 14.2364C17.3135 13.2275 14.8719 14.0122 13.6372 16.0199C13.1414 14.0836 11.654 12.3103 9.54923 11.4746C7.84671 10.802 6.00386 10.8427 4.51649 11.6071C3.33782 12.2083 2.46786 13.2173 2.05626 14.4504C1.09274 17.3447 2.89816 20.7282 6.06934 21.9919C6.87383 22.3079 7.69704 22.4709 8.50153 22.4709C9.39956 22.4709 10.2695 22.2773 11.046 21.89C10.9898 22.583 11.0647 23.2964 11.2798 23.9691C11.7008 25.3041 12.6269 26.3844 13.7962 26.9143L14.1236 27.0978L15.3677 30.0736H15.2836C13.9365 30.1042 12.683 30.7768 11.8317 31.908C10.9711 33.0596 10.6343 34.5476 10.8869 36.0049C11.8504 41.4776 13.4688 49.5695 13.9646 52.0255L8.24895 55.4702C7.15447 56.0715 6.63997 57.0804 6.88318 58.1607C7.07963 59.0473 7.7438 59.7199 8.43604 59.7199H18.8196C19.0347 59.7199 19.2125 59.5365 19.2312 59.3021L19.3528 56.8154C19.4463 56.5912 19.5305 56.367 19.6053 56.1632L19.727 55.8473C20.2789 54.4307 25.0964 41.9362 24.9655 40.1833L24.8813 39.1846L32.4398 40.2037L33.1507 51.3835H33.132ZM24.1329 40.2547C24.2078 41.3349 21.4388 49.0395 19.3995 54.3593C19.2966 54.6243 19.2031 54.8791 19.1002 55.1339C19.1002 55.1645 19.0815 55.1848 19.0721 55.2154C19.0441 55.2766 19.0254 55.3377 18.9973 55.409C18.988 55.4396 18.9692 55.4804 18.9599 55.511L18.8383 55.8269C18.7354 56.1021 18.6325 56.367 18.5296 56.6014C18.0431 57.7734 17.5941 58.4358 16.8458 58.1199C16.2658 57.8753 15.8168 57.3963 15.5735 56.7747C15.3303 56.1428 15.3303 55.4294 15.5735 54.7874C15.5735 54.767 15.5829 54.7466 15.5923 54.7262L15.7887 53.8906L15.8916 53.4523V53.4319L15.9945 53.0039L16.0974 52.5555L18.146 43.9031L18.5296 42.2725L18.8196 41.0292C18.8289 40.9782 18.8383 40.9171 18.8289 40.8661L18.5109 37.8801L18.4641 37.4317L18.2209 35.1386L18.1741 34.7004L18.1367 34.3743L23.5436 33.7119L23.581 34.0991L23.6184 34.5374L23.9178 38.1451L23.9552 38.5935L23.9926 39.0419L24.0955 40.2343L24.1329 40.2547ZM8.62313 56.2549L14.1704 52.9122C14.2078 52.9733 14.2546 53.0243 14.32 53.0549L15.0497 53.4625L14.8158 54.4613C14.4884 55.3275 14.4884 56.2651 14.8158 57.111C15.1058 57.8651 15.6297 58.4664 16.3032 58.8231H8.41733C8.14604 58.8231 7.77187 58.4766 7.65961 57.9467C7.50994 57.274 7.85606 56.6626 8.61378 56.2447L8.62313 56.2549ZM15.3023 30.9603C15.3023 30.9603 15.3116 30.9603 15.321 30.9603L15.7326 30.9297L17.3977 34.9246C17.3977 34.9246 17.3977 34.9348 17.407 34.945L18.0338 40.8763L15.3677 52.158L15.2648 52.5861L14.8626 52.3619C14.8345 52.2396 14.8065 52.0663 14.7597 51.8421C14.2733 49.4064 12.6549 41.3044 11.6914 35.8317C11.4763 34.6291 11.7662 33.4062 12.4678 32.4584C13.1694 31.5208 14.2078 30.9704 15.3116 30.9501L15.3023 30.9603ZM15.0216 27.0876L14.7503 26.4455L14.2265 25.192C14.1984 25.1207 14.1517 25.0697 14.1049 25.0289C13.9926 24.927 13.8336 24.8965 13.6839 24.9678C13.4781 25.0697 13.3846 25.3347 13.4781 25.5589L13.5717 25.7729C12.8701 25.2837 12.3275 24.5499 12.0469 23.6735C11.8037 22.899 11.785 22.0633 11.972 21.2887C12.0469 20.9728 12.1591 20.6671 12.2995 20.3817C12.3088 20.3614 12.3182 20.3308 12.3369 20.3002L13.2723 18.4862L13.8055 17.4467L14.1517 16.7842C15.1058 14.9294 17.2386 14.1651 18.9879 15.0415L34.9187 23.3168L33.1788 27.3933L33.001 27.8111L32.8233 28.229L29.9795 34.8839L24.03 31.5921L23.6278 30.4303L23.4781 29.9921L23.3284 29.5539L20.6811 21.8187C20.3443 20.8404 19.6989 20.025 18.8663 19.5155L18.2583 19.1486C18.0618 19.0263 17.8093 19.1078 17.7064 19.3218C17.6035 19.5155 17.6596 19.7499 17.8186 19.8824C17.8373 19.8925 17.8467 19.9129 17.8654 19.9231L18.4734 20.29C19.1376 20.6977 19.6521 21.3499 19.9234 22.1346L22.4865 29.615L22.6362 30.0532L22.7859 30.4914L22.9636 31.001L23.1788 31.6125L23.3939 32.224L23.5997 32.8252L17.7157 33.5386L16.6119 30.8889L16.4342 30.4507L16.2564 30.0125L15.3116 27.7398L15.0403 27.0876H15.0216ZM6.34998 21.1461C3.59975 20.0556 2.01884 17.1817 2.83269 14.746C3.16945 13.7371 3.88974 12.9014 4.87197 12.402C6.17225 11.7396 7.77188 11.709 9.27795 12.3001C11.4763 13.1765 12.9262 15.1842 13.0011 17.2021L11.6353 19.8518C11.495 20.1269 11.3827 20.4225 11.2892 20.718C11.1208 20.8403 10.9524 20.9423 10.7653 21.0442C9.46504 21.7066 7.86541 21.7372 6.35933 21.1461H6.34998ZM41.5511 34.5374L41.4575 35.3017L39.8485 47.8166C39.8298 47.949 39.8672 48.0815 39.9514 48.1835C40.0356 48.2854 40.1572 48.3363 40.2788 48.3261L52.552 47.2968C52.5052 47.4599 52.4771 47.6229 52.4771 47.7962L52.6175 52.1784C50.4659 52.6676 43.3752 54.2778 38.3799 55.3377C37.2948 55.5721 36.1816 55.2663 35.3209 54.502C34.451 53.7377 33.9458 52.5962 33.9271 51.3529L33.2255 40.326L33.1975 39.8776L33.1694 39.4292L32.9917 36.6368C32.9823 36.4737 32.8888 36.331 32.7485 36.2597L30.7092 35.2711L33.4781 28.7997L33.6558 28.3819L33.8336 27.964L35.6483 23.7143L37.248 24.55C39.3715 25.671 41.682 29.0137 41.944 31.3169L41.523 34.5578L41.5511 34.5374ZM54.2171 47.0318L58.8289 47.1745L59.1843 58.0995C59.1937 58.4053 58.9785 58.5989 58.8476 58.6804C58.595 58.8435 58.1834 58.9148 57.8373 58.7212L53.6371 52.8001L53.4687 52.5555L53.3658 49.5083L53.3097 47.7656C53.3097 47.6637 53.3284 47.5822 53.3658 47.5006C53.4032 47.4293 53.4407 47.3783 53.4781 47.3376C53.5529 47.2458 53.6558 47.1847 53.7774 47.1338C53.9177 47.0726 54.0674 47.042 54.2264 47.042L54.2171 47.0318ZM18.4173 58.8333H18.0338C18.1741 58.7314 18.3051 58.5989 18.436 58.4562L18.4173 58.8333ZM24.4603 34.4558H24.4791C24.6007 34.4355 24.7223 34.3641 24.7877 34.2418C24.8532 34.1297 24.8719 33.9769 24.8252 33.8546L24.4603 32.8049L29.9982 35.8622C29.9982 35.8622 29.9982 35.8622 30.0076 35.8622L32.1965 36.9221L32.3462 39.2763L24.769 38.247L24.451 34.4354L24.4603 34.4558Z" fill="#3C3C3C"/>
<path d="M4.23561 51.3936C4.35722 51.3936 4.47883 51.3325 4.55366 51.2204C4.69398 51.0267 4.66591 50.7516 4.48817 50.5987L2.85113 49.2025C2.6734 49.0497 2.42082 49.0802 2.2805 49.2739C2.14019 49.4675 2.16826 49.7427 2.34599 49.8955L3.98303 51.2917C4.05787 51.3529 4.14207 51.3834 4.23561 51.3834V51.3936Z" fill="#018C3B"/>
<path d="M9.06393 48.3053C9.12006 48.3053 9.18554 48.2951 9.24167 48.2646C9.44747 48.1626 9.53166 47.8977 9.43812 47.6735L8.43718 45.3805C8.34363 45.1562 8.10041 45.0645 7.89461 45.1664C7.68881 45.2683 7.60463 45.5333 7.69818 45.7575L8.6991 48.0506C8.76458 48.2136 8.91426 48.3053 9.06393 48.3053Z" fill="#018C3B"/>
<path d="M0.485663 55.8891C0.261155 55.8382 0.0460058 56.0012 0.00858766 56.2356C-0.038185 56.4802 0.111484 56.7146 0.326638 56.7554L2.59979 57.2547C2.59979 57.2547 2.65592 57.2547 2.68398 57.2547C2.87107 57.2547 3.0488 57.112 3.08622 56.898C3.13299 56.6534 2.98332 56.419 2.76817 56.3783L0.495027 55.8789L0.485663 55.8891Z" fill="#018C3B"/>
</svg>
