<svg preserveAspectRatio="none" viewBox="0 0 60 61" fill="none" xmlns="http://www.w3.org/2000/svg">
<path d="M21.324 8.92048L21.0658 12.3229C20.7338 11.7789 20.1622 11.3547 19.1756 11.3547C17.3499 11.3547 15.8654 12.7839 15.8746 14.4989L15.2937 20.9349C14.1596 21.4697 13.3205 22.8251 13.2006 24.5033C13.1822 24.7246 13.3481 24.9182 13.5787 24.9366C13.5787 24.9366 13.5879 24.9366 13.5971 24.9366C13.5971 24.9366 13.5971 24.9366 13.6063 24.9366C13.8184 24.9366 13.9936 24.7707 14.012 24.5586C14.095 23.4337 14.5653 22.4747 15.2107 21.9399C15.349 21.8293 15.4873 21.7371 15.6349 21.6633C15.7732 21.5988 15.9115 21.5527 16.0498 21.525C16.1512 21.5066 16.2527 21.4881 16.3633 21.4881C16.5662 21.4881 16.7321 21.3314 16.7598 21.1285C16.7598 21.1101 16.7598 21.1009 16.7598 21.0824C16.7598 20.8611 16.5754 20.6767 16.3541 20.6767C16.2711 20.6767 16.1973 20.6767 16.1143 20.6952L16.6768 14.5266C16.6768 13.2173 17.8017 12.1569 19.1756 12.1569C20.1068 12.1569 20.7246 12.5534 20.7246 14.5174V26.6978C20.7246 26.9191 20.909 27.1035 21.1303 27.1035C21.3516 27.1035 21.536 26.9191 21.536 26.6978V16.8686L22.1446 8.94814C22.1446 7.72181 22.6425 6.29262 24.044 6.29262C25.4456 6.29262 26.5336 7.35298 26.5336 8.65309V13.7613C26.6719 13.8258 26.8102 13.9088 26.9393 14.001C27.0776 14.1024 27.2159 14.2223 27.345 14.3606V4.1811C27.345 2.94554 28.6543 1.82063 30.0927 1.82063C30.7289 1.82063 31.2176 2.00505 31.5957 2.39231C32.3794 3.21294 32.3333 4.64213 32.3333 4.67901V7.81401V23.6089C32.3333 23.8302 32.5177 24.0146 32.739 24.0146C32.9603 24.0146 33.1447 23.8302 33.1447 23.6089V7.80479C33.1447 5.85003 33.9838 5.58263 34.8045 5.58263C36.1875 5.58263 37.1926 6.52313 37.1926 7.85089L37.9671 15.5593C38.0962 15.5132 38.2253 15.4763 38.3636 15.4579C38.4558 15.4487 38.548 15.4394 38.6402 15.4394C38.6863 15.4394 38.7232 15.4394 38.7693 15.4394L38.004 7.79557C38.004 6.0621 36.6301 4.762 34.8137 4.762C34.1129 4.762 33.5597 4.94641 33.154 5.32446V4.67901C33.154 4.60525 33.2185 2.89022 32.195 1.82063C31.6694 1.27662 30.9687 1 30.1112 1C28.2117 1 26.552 2.47529 26.552 4.16266V6.56923C25.9435 5.89613 25.0583 5.4812 24.0625 5.4812C22.1999 5.4812 21.3608 7.21467 21.3608 8.91126L21.324 8.92048Z" fill="#3C3C3C"/>
<path d="M18.5678 49.7756C18.5401 49.7202 15.6356 43.856 15.6356 40.933V28.5682C15.4973 28.5221 15.359 28.4576 15.2299 28.3746C15.0916 28.2916 14.9533 28.1902 14.8242 28.0703V40.9238C14.8242 43.8836 17.4429 49.3145 17.8025 50.0522L18.3096 59.7707C18.3188 59.9827 18.494 60.1487 18.7153 60.1487H18.7337C18.9458 60.1395 19.1118 59.9551 19.1118 59.743C19.1118 59.743 19.1118 59.7338 19.1118 59.7246L18.6047 49.9231C18.6047 49.8678 18.5862 49.8124 18.5586 49.7663L18.5678 49.7756Z" fill="#3C3C3C"/>
<path d="M26.9115 24.8613C27.1327 24.8613 27.3172 24.6769 27.3172 24.4556V20.9334C28.1286 20.2603 28.6818 19.1169 28.7832 17.7615C28.8017 17.5402 28.6357 17.3466 28.4144 17.3281C28.4144 17.3281 28.4052 17.3281 28.396 17.3281C28.1839 17.3281 27.9995 17.4849 27.981 17.6969C27.9257 18.4715 27.686 19.1722 27.3172 19.7163C27.1973 19.9007 27.059 20.0574 26.9115 20.1957C26.7824 20.3156 26.6533 20.417 26.5057 20.5092C26.2291 20.6752 25.9248 20.7674 25.6114 20.7674C25.4085 20.7674 25.2425 20.9242 25.2148 21.127C25.2148 21.1454 25.2148 21.1547 25.2148 21.1731C25.2148 21.3944 25.3993 21.5788 25.6206 21.5788C25.9341 21.5788 26.2291 21.5235 26.5149 21.4128V24.4556C26.5149 24.6769 26.6994 24.8613 26.9207 24.8613H26.9115Z" fill="#3C3C3C"/>
<path d="M19.5168 24.9C19.5168 23.7751 19.1849 22.7147 18.5948 21.9217C18.4657 21.7465 18.2075 21.7096 18.0323 21.8387C18.0323 21.8387 18.0231 21.8572 18.0139 21.8572C17.8571 21.9955 17.8295 22.226 17.9493 22.4012C18.438 23.0466 18.7146 23.9595 18.7146 24.9C18.7146 25.5085 18.604 26.0986 18.3919 26.615C18.3089 26.8178 18.4011 27.0391 18.5948 27.1313C18.5948 27.1313 18.604 27.1406 18.6132 27.1406C18.6593 27.159 18.7146 27.1682 18.77 27.1682C18.9267 27.1682 19.0742 27.076 19.1388 26.9193C19.3877 26.3015 19.526 25.6007 19.526 24.8907L19.5168 24.9Z" fill="#3C3C3C"/>
<path d="M41.7569 19.6521C41.7754 19.4308 41.6094 19.2372 41.3881 19.2188C41.3881 19.2188 41.3789 19.2188 41.3697 19.2188C41.1484 19.2188 40.9732 19.3755 40.9547 19.5876C40.8625 20.8969 40.2448 21.9849 39.4241 22.4275C39.295 22.4921 39.166 22.5474 39.0369 22.5843C38.9078 22.6211 38.7787 22.6396 38.6404 22.6396C38.622 22.6396 38.6127 22.6396 38.6035 22.6396C38.4007 22.6396 38.2347 22.7963 38.207 22.9992C38.207 23.0176 38.207 23.0269 38.207 23.0453C38.207 23.2666 38.3914 23.451 38.6127 23.451C38.6496 23.451 38.6957 23.451 38.7326 23.451L39 26.1526L39.0184 35.7144C39.0184 36.4981 39.5163 37.1712 40.2909 37.411C41.1023 37.6599 41.9321 37.3925 42.3747 36.7379L46.1367 32.3212C46.2013 32.2474 46.2289 32.1552 46.2289 32.063L46.2474 28.4578C46.2474 27.1392 46.9481 25.9498 48.0638 25.3781C48.5986 25.1015 49.3916 24.8433 50.0923 25.249C50.8116 25.6639 50.6364 30.6615 50.0278 35.0597C49.1611 40.7672 42.596 46.9635 41.0193 48.1898C39.6362 49.2686 39.2397 52.4313 39.2213 52.5973L38.9262 59.7248C38.9262 59.7248 38.9262 59.734 38.9262 59.7432C38.9262 59.9553 39.0922 60.1397 39.3135 60.1489C39.544 60.1581 39.7192 59.9829 39.7284 59.7616L40.0143 52.6618C40.1157 51.8412 40.5767 49.5452 41.508 48.826C43.14 47.5628 49.9172 41.1453 50.8208 35.1704C51.1343 32.9021 52.0471 25.4426 50.4888 24.5482C49.6866 24.0872 48.7185 24.1241 47.6858 24.6589C46.3119 25.3781 45.4544 26.8257 45.4452 28.4486L45.4267 31.9063L41.7293 36.2399C41.4066 36.7102 40.8718 36.7471 40.5214 36.6364C40.1802 36.5258 39.8114 36.2307 39.8114 35.7051L39.793 26.1065L39.5071 23.2758C40.7242 22.7963 41.6278 21.3948 41.7569 19.6337V19.6521Z" fill="#3C3C3C"/>
<path d="M36.3532 17.0239C36.3532 17.0239 36.344 17.0146 36.3347 17.0146C36.1319 16.9317 35.8921 17.0239 35.8092 17.2359C35.5602 17.8537 35.4219 18.5545 35.4219 19.2645C35.4219 20.3894 35.7538 21.4497 36.3439 22.2427C36.4269 22.3441 36.5468 22.3995 36.6667 22.3995C36.7496 22.3995 36.8326 22.3718 36.9064 22.3165C36.9064 22.3165 36.9156 22.298 36.9248 22.298C37.0816 22.1597 37.1093 21.9292 36.9894 21.754C36.5007 21.1086 36.2241 20.1957 36.2241 19.2552C36.2241 18.6467 36.3347 18.0566 36.5468 17.5402C36.6298 17.3466 36.5376 17.1161 36.3439 17.0239H36.3532Z" fill="#3C3C3C"/>
<path d="M23.3688 15.1449C23.3688 15.1449 23.3595 15.1357 23.3503 15.1357C23.1475 15.0527 22.9077 15.145 22.8247 15.357C22.5758 15.9748 22.4375 16.6756 22.4375 17.3856C22.4375 18.5105 22.7694 19.5708 23.3596 20.3638C23.4425 20.4652 23.5624 20.5205 23.6823 20.5205C23.7653 20.5205 23.8482 20.4929 23.922 20.4376C23.922 20.4376 23.9312 20.4191 23.9405 20.4191C24.0972 20.2808 24.1248 20.0503 24.005 19.8751C23.5163 19.2297 23.2397 18.3168 23.2397 17.3763C23.2397 16.7678 23.3503 16.1777 23.5624 15.6613C23.6454 15.4584 23.5532 15.2372 23.3596 15.1449H23.3688Z" fill="#3C3C3C"/>
<path d="M0.0516913 25.3599C0.162338 25.5536 0.40207 25.6273 0.595702 25.5167L4.69884 23.2115L4.5882 26.2543C4.5882 26.4019 4.65277 26.5402 4.78185 26.6139C4.8464 26.6508 4.92015 26.6693 4.99391 26.6693C5.05845 26.6693 5.13224 26.6508 5.18756 26.6139L9.9177 23.9584C10.1113 23.8478 10.1851 23.608 10.0745 23.4144C9.96381 23.2208 9.72408 23.147 9.53045 23.2576L5.42728 25.5628L5.53792 22.52C5.53792 22.3725 5.47338 22.2342 5.3443 22.1604C5.22443 22.0866 5.06768 22.0774 4.93859 22.1604L0.208425 24.8159C0.0147932 24.9266 -0.0589557 25.1663 0.0516913 25.3599Z" fill="#018C3B"/>
<path d="M8.68378 30.3046L6.55383 34.5461L4.95868 31.9736C4.88492 31.8537 4.7466 31.7799 4.59907 31.7799C4.45154 31.7799 4.32246 31.8721 4.25791 32.0012L1.80523 36.8881C1.70381 37.091 1.78679 37.3307 1.98043 37.4322C2.03575 37.4598 2.10028 37.4783 2.16482 37.4783C2.31235 37.4783 2.45067 37.3953 2.52444 37.257L4.64516 33.0155L6.24033 35.588C6.3141 35.7079 6.45242 35.7817 6.59995 35.7817C6.74748 35.7817 6.87656 35.6895 6.9411 35.5604L9.39378 30.6735C9.49521 30.4706 9.41222 30.2309 9.21859 30.1295C9.01574 30.028 8.776 30.111 8.67458 30.3046H8.68378Z" fill="#018C3B"/>
<path d="M2.05184 12.8288C2.00574 13.0501 2.14406 13.2621 2.35614 13.3083L6.94797 14.3225L4.88257 16.5447C4.78114 16.6461 4.75347 16.8028 4.79036 16.9412C4.83646 17.0795 4.94711 17.1809 5.08542 17.2178L10.3688 18.3888C10.3688 18.3888 10.4241 18.398 10.4518 18.398C10.6362 18.398 10.8022 18.2689 10.8483 18.0845C10.8944 17.8632 10.7561 17.6511 10.544 17.605L5.95216 16.5908L8.01756 14.3686C8.11899 14.2672 8.14665 14.1104 8.10977 13.9721C8.06367 13.8338 7.95301 13.7324 7.81471 13.6955L2.53133 12.5245C2.31004 12.4784 2.09794 12.6167 2.05184 12.8288Z" fill="#018C3B"/>
<path d="M50.5826 13.9729C50.4627 13.8991 50.306 13.8899 50.1769 13.9729L45.4467 16.6284C45.2531 16.7391 45.1793 16.9788 45.29 17.1724C45.4006 17.3661 45.6404 17.4398 45.834 17.3292L49.9372 15.024L49.8265 18.0668C49.8265 18.2144 49.891 18.3527 50.0201 18.4264C50.0847 18.4633 50.1584 18.4818 50.2322 18.4818C50.2967 18.4818 50.3705 18.4633 50.4258 18.4264L55.156 15.7709C55.3496 15.6603 55.4234 15.4205 55.3127 15.2269C55.2021 15.0333 54.9624 14.9687 54.7687 15.0701L50.6656 17.3753L50.7762 14.3325C50.7762 14.185 50.7117 14.0467 50.5826 13.9729Z" fill="#018C3B"/>
<path d="M49.6692 5.02789C49.4664 4.92646 49.2266 5.00945 49.1252 5.20308L46.9953 9.44455L45.4001 6.87201C45.3263 6.75214 45.1972 6.67838 45.0405 6.67838C44.8929 6.67838 44.7639 6.77058 44.6993 6.89967L42.2466 11.7866C42.1452 11.9894 42.2282 12.2292 42.4218 12.3306C42.4772 12.3583 42.5417 12.3767 42.6063 12.3767C42.7538 12.3767 42.8921 12.2937 42.9658 12.1554L45.0958 7.91393L46.691 10.4865C46.7647 10.6063 46.9031 10.6893 47.0506 10.6801C47.1981 10.6801 47.3272 10.5879 47.3917 10.4588L49.8444 5.5719C49.9458 5.36905 49.8629 5.12932 49.6692 5.02789Z" fill="#018C3B"/>
</svg>
