<svg preserveAspectRatio="none" viewBox="0 0 60 60" fill="none" xmlns="http://www.w3.org/2000/svg">
<path d="M19.1946 9.52013C19.7746 11.5592 20.4996 14.0966 20.3909 16.8063C20.3909 17.0238 20.554 17.2051 20.7715 17.2141C20.7715 17.2141 20.7805 17.2141 20.7896 17.2141C20.998 17.2141 21.1793 17.051 21.1883 16.8335C21.2971 13.997 20.554 11.3961 19.9649 9.29357L19.8018 8.71357C19.7383 8.50514 19.5299 8.38733 19.3124 8.45077C19.104 8.5142 18.9862 8.74076 19.0406 8.9492L19.2037 9.51107L19.1946 9.52013Z" fill="#018C3B"/>
<path d="M56.486 24.647C55.4257 19.9889 53.1964 15.7658 50.1333 12.304C50.2783 12.3221 50.4232 12.3402 50.5682 12.3674C51.2207 12.4852 51.7917 12.5486 52.1723 12.5486C54.0754 12.5486 55.6251 10.999 55.6251 9.09587C55.6251 7.19276 54.0754 5.64309 52.1723 5.64309C51.2479 5.64309 49.1545 6.03277 47.3873 6.66714C46.318 7.04776 45.1943 7.08401 44.143 6.77589C43.989 6.73058 43.8349 6.69433 43.6808 6.65808C43.5811 6.49496 43.4633 6.33183 43.3274 6.17777C42.5027 5.19903 39.0318 2 29.0632 2C19.0945 2 15.6236 5.19903 14.7989 6.17777C14.663 6.3409 14.5452 6.50402 14.4455 6.65808C14.2914 6.69433 14.1374 6.73058 13.9833 6.77589C12.923 7.08401 11.8083 7.04776 10.7389 6.66714C8.97176 6.03277 6.87838 5.64309 5.95401 5.64309C4.0509 5.64309 2.50123 7.19276 2.50123 9.09587C2.50123 10.999 4.0509 12.5486 5.95401 12.5486C6.33463 12.5486 6.90558 12.4852 7.55807 12.3674C7.70307 12.3402 7.84805 12.3221 7.99305 12.304C4.92996 15.7658 2.70966 19.9889 1.64029 24.647C0.652491 25.2995 0 26.4141 0 27.6829C0 28.6163 0.362504 29.4772 0.942498 30.1207C0.942498 30.3835 0.924384 30.6553 0.924384 30.9182C0.924384 37.0534 2.89999 42.7355 6.25309 47.3664C5.55528 47.2396 4.95716 47.1761 4.55842 47.1761C2.55563 47.1761 0.924384 48.8073 0.924384 50.8101C0.924384 52.8129 2.55563 54.4442 4.55842 54.4442C4.96623 54.4442 5.56434 54.3717 6.25309 54.2539C8.26494 53.8914 10.3946 54.1089 12.4155 54.8792C13.2311 55.1873 14.0739 55.3685 14.7264 55.3685C14.7445 55.3685 14.7536 55.3685 14.7717 55.3685C15.0617 56.6916 15.1614 58.0601 14.7989 59.501C14.7446 59.7094 14.8714 59.9269 15.0889 59.9813C15.2974 60.0357 15.5148 59.9088 15.5692 59.6913C15.5692 59.6551 15.5783 59.6279 15.5874 59.5916C15.9136 58.2141 15.8592 56.9001 15.6327 55.6495C15.6055 55.5226 15.5873 55.3957 15.5601 55.2688C15.5601 55.2326 15.542 55.1873 15.533 55.151C15.5149 55.0604 15.4967 54.9698 15.4695 54.8882C15.4514 54.7976 15.4242 54.707 15.4061 54.6164C15.397 54.5801 15.388 54.5439 15.3789 54.5076C15.1977 53.7917 14.9711 53.1029 14.7626 52.4414C14.4455 51.4536 14.1464 50.5292 13.9924 49.632C13.9561 49.4145 13.947 49.197 13.9742 48.9795C13.9923 48.8345 14.0196 48.6986 14.0558 48.5627C14.1011 48.4177 14.1555 48.2727 14.228 48.1367C14.2914 48.0189 14.373 47.892 14.4546 47.7833C14.8805 47.2486 15.5148 46.9224 16.1945 46.8771H16.2489C18.7864 47.7471 24.0969 49.3602 29.045 49.3602C33.9931 49.3602 39.3037 47.7561 41.8411 46.8771H41.8955C42.5752 46.9224 43.2096 47.2486 43.6355 47.7833C43.7262 47.892 43.7986 48.0189 43.8621 48.1367C43.9346 48.2727 43.998 48.4177 44.0343 48.5627C44.0796 48.6986 44.1067 48.8345 44.1158 48.9795C44.143 49.197 44.134 49.4145 44.0977 49.632C43.9437 50.5292 43.6446 51.4626 43.3274 52.4414C43.1189 53.1029 42.8924 53.7917 42.7111 54.5076C42.7021 54.5439 42.693 54.5801 42.6839 54.6164C42.6567 54.707 42.6387 54.7976 42.6205 54.8882C42.6024 54.9788 42.5843 55.0695 42.5571 55.151C42.5571 55.1873 42.5389 55.2326 42.5299 55.2688C42.5027 55.3957 42.4755 55.5226 42.4574 55.6495C42.2308 56.9001 42.1765 58.2232 42.5027 59.5916C42.5027 59.6279 42.5117 59.6551 42.5208 59.6913C42.5661 59.8726 42.7293 59.9904 42.9015 59.9904C42.9287 59.9904 42.9649 59.9904 43.0011 59.9813C43.2096 59.9269 43.3455 59.7094 43.2911 59.501C42.9287 58.0601 43.0374 56.6916 43.3183 55.3685C43.3364 55.3685 43.3455 55.3685 43.3636 55.3685C44.0161 55.3685 44.859 55.1873 45.6746 54.8792C47.6955 54.1089 49.8342 53.8914 51.837 54.2539C52.5257 54.3807 53.1239 54.4442 53.5317 54.4442C55.5345 54.4442 57.1657 52.8129 57.1657 50.8101C57.1657 48.8073 55.5345 47.1761 53.5317 47.1761C53.1329 47.1761 52.5348 47.2486 51.837 47.3664C55.181 42.7355 57.1657 37.0625 57.1657 30.9182C57.1657 30.6463 57.1566 30.3835 57.1476 30.1207C57.7366 29.4772 58.09 28.6254 58.09 27.6829C58.09 26.4141 57.4375 25.2995 56.4497 24.647H56.486ZM56.4044 30.9182C56.4044 37.1984 54.2748 42.9893 50.6951 47.6111C49.9701 47.7833 49.218 48.0008 48.502 48.2545C47.3692 48.6623 46.1821 48.6986 45.0583 48.3723C44.9677 48.3452 44.8861 48.327 44.7955 48.2999C44.6777 47.9374 44.5055 47.5839 44.2608 47.2758C43.9618 46.8952 43.5721 46.5961 43.1461 46.3877C43.2549 46.3424 43.3274 46.3152 43.3455 46.3061C45.2033 45.563 46.1095 43.4424 45.3664 41.5846C44.9314 40.5062 44.0433 39.7449 43.0011 39.4459C43.2005 39.0924 43.3092 38.7118 43.3092 38.304C43.3092 38.2678 43.3093 38.2406 43.3002 38.2043C42.8109 36.265 43.1733 34.1534 43.6899 32.1688C43.8893 32.205 44.0977 32.2231 44.3061 32.2231C44.9586 32.2231 45.8014 32.0419 46.617 31.7338C48.638 30.9635 50.7767 30.746 52.7795 31.1085C53.4682 31.2353 54.0663 31.2988 54.4741 31.2988C55.1719 31.2988 55.8335 31.0994 56.3863 30.746C56.3863 30.8003 56.3863 30.8456 56.3863 30.9L56.4044 30.9182ZM52.0092 53.4654C49.8614 53.0757 47.5776 53.3023 45.4208 54.136C45.1217 54.2539 44.8227 54.3354 44.5327 54.4079C44.1883 54.4895 43.8712 54.5439 43.5812 54.562C43.563 54.562 43.5539 54.562 43.5358 54.562C43.5811 54.3807 43.6355 54.1904 43.6899 54.0092C43.8258 53.5651 43.9617 53.112 44.1067 52.677C44.433 51.662 44.732 50.7105 44.9042 49.7589C44.9405 49.5595 44.9495 49.3602 44.9495 49.1608C46.2001 49.5052 47.5233 49.4598 48.783 49.0067C49.1273 48.8798 49.4898 48.7711 49.8614 48.6623C50.097 48.5989 50.3235 48.5355 50.5592 48.472C50.7585 48.4177 50.967 48.3724 51.1573 48.327C52.1542 48.1005 53.0604 47.9736 53.577 47.9736C55.1448 47.9736 56.4135 49.2514 56.4135 50.8101C56.4135 52.3689 55.1357 53.6467 53.577 53.6467C53.2145 53.6467 52.6708 53.5832 52.0273 53.4654H52.0092ZM39.6843 46.7321C36.9202 47.5658 32.8694 48.5536 29.0632 48.5536C25.2569 48.5536 21.197 47.5749 18.442 46.7321C18.0614 46.6142 17.7079 46.5055 17.3817 46.3967C17.0101 46.2789 16.6749 46.1611 16.3849 46.0614C15.6145 45.7896 15.1433 45.6083 15.0708 45.5721C14.3639 45.2911 13.8111 44.7474 13.5121 44.0496C13.213 43.3518 13.2039 42.5815 13.4849 41.8746C13.7658 41.1677 14.3095 40.6149 15.0073 40.3159C15.2158 40.2252 15.4333 40.1709 15.6508 40.1256C15.8049 40.0984 15.9679 40.0802 16.122 40.0802C16.1492 40.0802 16.1764 40.0802 16.1945 40.0802C16.5298 40.0802 16.8561 40.1527 17.1733 40.2796C17.2458 40.3068 19.9283 41.358 23.2451 42.1102C25.1029 42.5271 27.151 42.8533 29.0541 42.8533C30.9572 42.8533 33.0778 42.518 34.9447 42.1012C38.2343 41.349 40.8715 40.3159 40.944 40.2887C41.2611 40.1618 41.5965 40.0984 41.9227 40.0893C42.104 40.0893 42.2943 40.0893 42.4755 40.1256C43.418 40.2887 44.2608 40.914 44.6414 41.8746C45.2214 43.3246 44.5146 44.983 43.0555 45.563C42.983 45.5902 42.5027 45.7805 41.7415 46.0524C41.4515 46.1521 41.1162 46.2699 40.7446 46.3877C40.4184 46.4964 40.0649 46.6052 39.6843 46.723V46.7321ZM13.8474 47.2758C13.6027 47.5839 13.4305 47.9283 13.3127 48.2999C13.2221 48.318 13.1405 48.3452 13.0499 48.3723C11.9262 48.7077 10.7389 48.6623 9.60613 48.2545C8.89926 48.0008 8.13804 47.7833 7.41304 47.6111C3.84246 42.9893 1.70374 37.1984 1.70374 30.9182C1.70374 30.8638 1.70374 30.8185 1.70374 30.7641C2.25654 31.1085 2.91809 31.3169 3.61589 31.3169C4.0237 31.3169 4.62182 31.2444 5.31056 31.1266C7.32241 30.7641 9.45212 30.9816 11.473 31.7519C12.2887 32.06 13.1315 32.2413 13.7839 32.2413C13.9924 32.2413 14.2008 32.2231 14.4002 32.1869C14.9077 34.1806 15.2702 36.2831 14.7899 38.2225C14.7899 38.2496 14.7808 38.2859 14.7808 38.3221C14.7808 38.7209 14.8896 39.1015 15.0889 39.4549C14.9439 39.5003 14.808 39.5456 14.672 39.5999C13.7839 39.9806 13.0861 40.6874 12.7327 41.5937C12.3702 42.4908 12.3883 43.4787 12.769 44.3758C13.1496 45.2639 13.8564 45.9527 14.7626 46.3152C14.7898 46.3242 14.8624 46.3514 14.962 46.3967C14.5361 46.6052 14.1464 46.9042 13.8474 47.2849V47.2758ZM14.5814 54.5529C14.5814 54.5529 14.5542 54.5529 14.5361 54.5529C14.2461 54.5348 13.9289 54.4895 13.5845 54.3989C13.2945 54.3264 12.9955 54.2357 12.6964 54.127C11.2193 53.5651 9.68773 53.2751 8.17431 53.2751C7.47651 53.2751 6.78774 53.3386 6.10806 53.4564C5.46462 53.5742 4.91185 53.6376 4.55842 53.6376C2.99062 53.6376 1.72188 52.3598 1.72188 50.8011C1.72188 49.2423 2.99968 47.9645 4.55842 47.9645C5.07498 47.9645 5.97214 48.1005 6.97807 48.318C7.17744 48.3633 7.37679 48.4086 7.57616 48.463C7.81178 48.5264 8.03836 48.5808 8.27398 48.6533C8.63648 48.762 8.99897 48.8708 9.34334 48.9977C10.603 49.4508 11.9261 49.4961 13.1767 49.1517C13.1767 49.3511 13.1768 49.5505 13.2221 49.7498C13.3852 50.7014 13.6933 51.6529 14.0196 52.6679C14.1646 53.112 14.3005 53.5561 14.4364 54.0001C14.4908 54.1814 14.5451 54.3717 14.5905 54.5529H14.5814ZM5.94494 11.7602C4.47683 11.7602 3.28059 10.564 3.28059 9.09587C3.28059 7.62776 4.47683 6.43152 5.94494 6.43152C6.80587 6.43152 8.83584 6.8212 10.4671 7.41026C11.3371 7.72744 12.2524 7.83619 13.1405 7.73651C13.4577 7.70026 13.7658 7.64588 14.0739 7.56432C14.0739 7.56432 14.0739 7.57338 14.0739 7.58244C14.0468 7.74557 14.0468 7.89963 14.0739 8.05369C14.0739 8.05369 14.0739 8.06275 14.0739 8.07182C14.2189 8.90556 14.4818 9.82086 14.7536 10.7905C14.9258 11.3796 15.098 11.9958 15.2521 12.6211C14.7808 12.5758 14.2189 12.4399 13.6571 12.2315C12.4336 11.7602 11.1649 11.4974 9.91428 11.434C9.73303 11.434 9.56082 11.4249 9.37957 11.4249C9.37051 11.4249 9.36147 11.4249 9.34334 11.4249C9.16209 11.4249 8.98087 11.4249 8.79962 11.443C8.33744 11.4702 7.86617 11.5155 7.41304 11.5971C6.80586 11.7058 6.28931 11.7693 5.94494 11.7693V11.7602ZM28.9091 2.78843C28.9635 2.78843 29.0088 2.78843 29.0632 2.78843C29.1175 2.78843 29.1628 2.78843 29.2172 2.78843C35.6968 2.81562 39.8384 4.28373 41.8774 5.88777C42.1493 6.09621 42.3758 6.31371 42.5752 6.52214C42.6296 6.57652 42.684 6.63089 42.7293 6.68527C42.7837 6.7487 42.8289 6.80308 42.8743 6.86652C42.8924 6.8937 42.9105 6.91183 42.9286 6.93901C43.0374 7.09308 43.119 7.23807 43.1824 7.37401C43.2096 7.43745 43.2367 7.50088 43.2549 7.55526C43.3002 7.70932 43.3183 7.84526 43.3002 7.93588C43.1643 8.73337 42.9105 9.63055 42.6386 10.5821C42.4574 11.2346 42.258 11.9143 42.0949 12.603C42.0677 12.7299 42.0314 12.8568 42.0042 12.9927C41.9771 13.1196 41.9499 13.2465 41.9227 13.3824C41.5965 14.9049 41.4424 16.4727 41.7505 17.9952C41.1705 17.9227 40.3005 17.823 39.2402 17.7142C39.6027 17.0708 39.7477 16.3186 39.6118 15.5755C39.4487 14.633 38.8415 13.8355 38.0259 13.3824C38.2706 11.9868 38.633 10.6818 38.9593 9.53992L39.1224 8.969L38.7418 8.85118L38.3612 8.76056L38.1981 9.33149C37.8809 10.4462 37.5274 11.724 37.2737 13.0833C37.174 13.0561 37.0743 13.029 36.9746 13.0108C36.1318 12.884 35.2981 13.0924 34.6184 13.5908C34.4462 13.7177 34.1925 13.7086 34.0022 13.5546C33.3316 13.0199 32.4706 12.8386 31.6278 13.0561C30.7035 13.2918 29.9603 14.0349 29.7156 14.9592C29.5162 15.7205 29.6432 16.4999 30.051 17.1342C29.7338 17.1342 29.4075 17.1342 29.0903 17.1342C24.0335 17.1342 18.4511 17.7505 16.4302 17.9952C16.7383 16.4727 16.5751 14.9049 16.258 13.3824C16.2308 13.2555 16.2036 13.1286 16.1764 12.9927C16.1492 12.8658 16.113 12.739 16.0858 12.603C15.9136 11.9143 15.7233 11.2346 15.5421 10.5821C15.2702 9.63055 15.0164 8.72431 14.8805 7.93588C14.8623 7.84526 14.8805 7.70932 14.9258 7.55526C14.9439 7.50088 14.9711 7.43745 14.9983 7.37401C15.0527 7.24714 15.1433 7.10214 15.2521 6.93901C15.2702 6.91183 15.2883 6.8937 15.3064 6.86652C15.3517 6.81214 15.397 6.7487 15.4514 6.68527C15.4967 6.63089 15.5511 6.57652 15.6055 6.52214C15.8049 6.31371 16.0314 6.09621 16.3033 5.88777C18.3423 4.28373 22.4839 2.81562 28.9635 2.78843H28.9091ZM52.1814 6.43152C53.6495 6.43152 54.8457 7.62776 54.8457 9.09587C54.8457 10.564 53.6495 11.7602 52.1814 11.7602C51.8461 11.7602 51.3204 11.6968 50.7133 11.588C50.2601 11.5065 49.7979 11.4612 49.3267 11.434C49.1454 11.4249 48.9642 11.4249 48.783 11.4249C48.5927 11.4249 48.4023 11.4249 48.212 11.434C46.9524 11.4883 45.6927 11.7512 44.4602 12.2224C43.8983 12.4399 43.3364 12.5668 42.8652 12.6121C43.0192 11.9868 43.1914 11.3796 43.3636 10.7815C43.6355 9.8118 43.8983 8.8965 44.0433 8.06275C44.0433 8.06275 44.0433 8.05369 44.0433 8.04463C44.0705 7.89963 44.0614 7.73651 44.0433 7.57338C44.0433 7.57338 44.0433 7.56432 44.0433 7.55526C44.3514 7.63682 44.6596 7.70026 44.9767 7.72744C45.8649 7.81807 46.7711 7.70932 47.6502 7.4012C49.2814 6.81214 51.3023 6.42246 52.1723 6.42246L52.1814 6.43152ZM45.2668 25.8794C45.2124 26.2148 45.1036 26.5319 44.9405 26.8401C44.8499 27.0123 44.7411 27.1844 44.6233 27.3385C44.587 27.3838 44.5508 27.4201 44.5236 27.4563C44.3696 27.6285 44.2065 27.7916 44.0252 27.9276C43.409 28.3988 42.6477 28.6707 41.823 28.6707C41.7052 28.6707 41.5965 28.6707 41.4787 28.6526C41.3427 28.6435 41.2159 28.6163 41.0799 28.5891C40.944 28.5619 40.8171 28.5257 40.6902 28.4804C40.1918 28.3172 39.7387 28.0454 39.358 27.6738C39.0318 27.3566 38.5968 27.1935 38.1346 27.1935C37.8537 27.1935 37.5637 27.2569 37.2918 27.3838C36.5759 27.7191 35.6968 27.6647 35.0172 27.266C34.419 26.9126 33.6759 26.9126 33.0778 27.266C32.7062 27.4926 32.2712 27.6104 31.8272 27.6104C31.0659 27.6104 30.3409 27.2569 29.8969 26.6769C29.4709 26.1241 29.3441 25.4445 29.5344 24.7557C29.5707 24.6198 29.625 24.502 29.6885 24.3751C29.761 24.2392 29.8425 24.1032 29.9422 23.9854C29.9422 23.9854 29.9513 23.9763 29.9603 23.9673C30.0781 23.8313 30.205 23.7045 30.35 23.5957C30.5584 23.4417 30.8032 23.3239 31.0569 23.2423C31.0841 23.2423 31.1112 23.2242 31.1384 23.2151C31.7184 23.061 32.2985 23.1064 32.8241 23.3329C32.8331 23.3329 32.8512 23.342 32.8603 23.351C33.5219 23.632 34.2287 23.6773 34.8993 23.4689C35.0262 23.4326 35.1441 23.3873 35.2619 23.3329C35.7875 23.0973 36.4037 23.061 36.9655 23.2242C37.9534 23.5232 38.914 23.3782 39.5937 22.8345C40.4365 22.1639 41.5511 21.9192 42.6477 22.1639C43.3274 22.3179 43.9436 22.6804 44.4058 23.1698C44.4964 23.2695 44.587 23.3782 44.6686 23.487C44.7502 23.6048 44.8317 23.7226 44.9042 23.8495C45.0311 24.0851 45.1399 24.3298 45.2033 24.5926C45.2396 24.7557 45.2668 24.9279 45.2849 25.091C45.294 25.227 45.303 25.3629 45.2939 25.4988C45.2939 25.6348 45.2758 25.7616 45.2577 25.8976L45.2668 25.8794ZM43.1461 31.19C43.1099 31.3169 43.0736 31.4528 43.0374 31.5797C43.0011 31.7066 42.974 31.8335 42.9377 31.9603C42.403 34.0356 42.0224 36.2468 42.5299 38.3584C42.5208 38.6846 42.3849 39.0018 42.1493 39.3099C41.6508 39.2918 41.1433 39.3643 40.654 39.5637C40.5905 39.5909 34.2378 42.083 29.0541 42.083C23.8704 42.083 17.5176 39.5909 17.4542 39.5728C16.9739 39.3824 16.4664 39.2918 15.9589 39.319C15.7233 39.0109 15.5873 38.6937 15.5783 38.3675C16.0948 36.2559 15.7051 34.0447 15.1705 31.9694C15.1342 31.8425 15.107 31.7156 15.0708 31.5888C15.0345 31.4619 14.9983 31.326 14.962 31.1991C14.8714 30.8728 14.7808 30.5466 14.6902 30.2294C14.4455 29.3685 14.2189 28.5529 14.0649 27.8097C14.4274 27.9547 14.8261 28.0272 15.2339 28.0272C15.397 28.0272 15.5601 28.0182 15.7233 27.991C15.9951 27.9457 16.2761 27.9638 16.5751 28.0182C16.7111 28.0454 16.8561 28.0907 16.992 28.136C17.128 28.1813 17.2639 28.2357 17.4089 28.3082C17.6083 28.4079 17.8167 28.5257 18.0342 28.6616C18.297 28.8247 18.5779 28.9516 18.8679 29.0332L18.3695 29.1782C19.0311 31.5072 19.7833 34.1444 19.6201 36.999C19.6111 37.2165 19.7742 37.4068 19.9917 37.4159H20.0098C20.2183 37.4159 20.3904 37.2528 20.4086 37.0443C20.5717 34.1172 19.8014 31.3531 19.167 29.1057C19.3573 29.1419 19.5476 29.16 19.738 29.16C20.7348 29.16 21.6682 28.7069 22.2754 27.9185C22.8917 27.1301 23.1001 26.106 22.8554 25.1091C22.8192 24.9551 22.7648 24.801 22.7013 24.656C24.6226 24.511 26.7794 24.3932 28.8185 24.3842C28.8003 24.4385 28.7731 24.502 28.755 24.5563C28.5013 25.4716 28.6826 26.4232 29.2535 27.1663C29.8516 27.9457 30.8031 28.4169 31.8181 28.4169C32.4072 28.4169 32.9781 28.2629 33.4765 27.9638C33.83 27.7554 34.2468 27.7554 34.6003 27.9638C35.4975 28.4985 36.6574 28.5619 37.609 28.1179C38.0349 27.9185 38.4971 27.9819 38.7871 28.2629C38.9502 28.4169 39.1224 28.5529 39.3037 28.6797C39.1405 28.6979 39.0046 28.7975 38.9593 28.9607C38.3159 31.2263 37.5093 34.0537 37.6724 37.0443C37.6815 37.2528 37.8628 37.4159 38.0712 37.4159H38.0893C38.3068 37.4068 38.479 37.2165 38.4609 36.999C38.3068 34.1444 39.0499 31.5072 39.7115 29.1782C39.7387 29.0875 39.7205 29.006 39.6933 28.9244C40.0196 29.1057 40.373 29.2416 40.7355 29.3322C40.8805 29.3685 41.0165 29.3957 41.1614 29.4138C41.2974 29.4319 41.4424 29.45 41.5783 29.45C41.6508 29.45 41.7233 29.4591 41.7958 29.4591C42.4846 29.4591 43.1371 29.305 43.7261 29.0241C43.6264 29.4138 43.5086 29.8125 43.3908 30.2203C43.3002 30.5375 43.2096 30.8638 43.119 31.19H43.1461ZM12.9049 25.4716C12.8686 25.3448 12.8415 25.2179 12.8324 25.082C12.7962 24.7738 12.8142 24.4567 12.9049 24.1395C12.9502 23.9763 13.0136 23.8223 13.0861 23.6773C13.1496 23.5504 13.2311 23.4235 13.3218 23.3057C13.4033 23.197 13.503 23.0973 13.6027 23.0067C13.8746 22.762 14.2008 22.5717 14.5633 22.472C15.252 22.2907 15.9498 22.3814 16.5208 22.7529C17.4995 23.3692 18.5236 23.641 19.4933 23.5323C19.8014 23.496 20.1185 23.5323 20.4267 23.6138C20.4538 23.6138 20.4811 23.632 20.5082 23.641C20.762 23.7226 20.9976 23.8404 21.2061 23.9945C21.3511 24.1032 21.4779 24.221 21.5957 24.357C21.5957 24.357 21.5957 24.357 21.5957 24.366C21.6954 24.4838 21.786 24.6017 21.8585 24.7285C21.9582 24.9098 22.0398 25.1001 22.0942 25.3085C22.2845 26.0607 22.1304 26.8401 21.6592 27.4382C21.197 28.0363 20.4992 28.3716 19.738 28.3716C19.2758 28.3716 18.8317 28.2447 18.4511 28.0001C18.0161 27.7191 17.5992 27.5197 17.1914 27.3838C17.0283 27.3294 16.8742 27.2841 16.7111 27.2569C16.548 27.2207 16.3849 27.2026 16.2308 27.1935C16.1674 27.1935 16.1039 27.1935 16.0495 27.1935C15.8955 27.1935 15.7414 27.2026 15.5874 27.2298C15.4695 27.2479 15.3426 27.2569 15.2248 27.2569C14.7627 27.2569 14.3277 27.1301 13.9561 26.8944C13.8293 26.8129 13.7024 26.7223 13.5845 26.6135C13.4849 26.5229 13.3852 26.4141 13.2945 26.3054C13.2855 26.2873 13.2674 26.2691 13.2583 26.251C13.1677 26.1241 13.0952 25.9973 13.0317 25.8613C12.9774 25.7435 12.932 25.6166 12.8958 25.4898L12.9049 25.4716ZM13.2945 22.0461C13.0952 20.5236 14.1464 19.1189 15.6508 18.8742C15.678 18.8742 15.7051 18.8651 15.7323 18.8561C15.7595 18.8561 15.8774 18.838 16.0495 18.8108C16.1583 18.7926 16.2942 18.7836 16.4574 18.7564C18.4239 18.5208 24.0063 17.8955 29.0541 17.8955C29.6341 17.8955 30.2231 17.8955 30.8122 17.9227C31.9812 17.9498 33.1503 18.0042 34.2831 18.0767C34.6003 18.0948 34.9175 18.122 35.2256 18.1402C35.9687 18.1945 36.6846 18.2489 37.3643 18.3123C37.5999 18.3305 37.8356 18.3576 38.0621 18.3758C38.2524 18.3939 38.4427 18.412 38.624 18.4302C39.938 18.557 40.9984 18.6839 41.6599 18.7564C41.8231 18.7745 41.9589 18.7926 42.0677 18.8108C42.2399 18.8289 42.3577 18.847 42.3849 18.8561C42.4121 18.8561 42.4393 18.8651 42.4664 18.8742C43.9708 19.1189 45.0311 20.5236 44.8227 22.0461C44.8046 22.1639 44.7864 22.2726 44.7593 22.3814C44.2246 21.9011 43.5721 21.5476 42.838 21.3845C41.5059 21.0945 40.1465 21.3845 39.1224 22.2092C38.6421 22.5898 37.9534 22.6804 37.2103 22.4629C36.8659 22.3632 36.5034 22.3179 36.1409 22.3361C35.8328 22.3451 35.5156 22.4086 35.2256 22.5082C35.135 22.5354 35.0444 22.5717 34.9628 22.6079C34.5097 22.8073 34.0294 22.8526 33.5581 22.7348C33.4222 22.6985 33.2953 22.6623 33.1684 22.6079C33.0053 22.5354 32.8422 22.481 32.67 22.4357C32.1262 22.2907 31.5372 22.2998 30.9662 22.4448C30.8484 22.472 30.7306 22.5173 30.6219 22.5626C30.3591 22.6714 30.1054 22.8073 29.8788 22.9795C29.8063 23.0339 29.7428 23.0973 29.6703 23.1517C29.5434 23.2695 29.4166 23.3964 29.3169 23.5232C29.3078 23.5413 29.2897 23.5595 29.2806 23.5776C29.2172 23.5776 29.1447 23.5776 29.0813 23.5776C28.6101 23.5776 28.1297 23.5776 27.6494 23.5957C25.8188 23.641 23.952 23.7498 22.2754 23.8857C22.1757 23.7588 22.0579 23.641 21.9401 23.5323C21.5776 23.206 21.1426 22.9523 20.6623 22.8254C20.2545 22.7167 19.8376 22.6804 19.4298 22.7257C18.6323 22.8164 17.8077 22.5898 16.9649 22.0642C16.1946 21.5839 15.2792 21.4479 14.373 21.6926C14.0014 21.7923 13.657 21.9645 13.3489 22.2001C13.3398 22.1457 13.3308 22.0914 13.3218 22.037L13.2945 22.0461ZM30.776 16.8352C30.4135 16.3639 30.2866 15.7477 30.4407 15.1405C30.6038 14.4971 31.1384 13.9714 31.7819 13.8083C32.3891 13.6543 32.9962 13.7721 33.4675 14.1527C33.9387 14.5243 34.5912 14.5424 35.0534 14.2071C35.5609 13.8355 36.1862 13.6814 36.8206 13.7721C36.9203 13.7902 37.02 13.8174 37.1106 13.8446C37.3825 13.9261 37.6362 14.053 37.8628 14.2161C38.3431 14.5696 38.6965 15.1042 38.7962 15.6933C38.923 16.3911 38.7418 17.0708 38.3068 17.6145C36.2497 17.4242 33.6668 17.2248 31.075 17.1524C30.9662 17.0617 30.8575 16.953 30.7669 16.8352H30.776ZM54.4923 24.0488C53.5135 24.0488 51.3023 24.4657 49.4354 25.1363C48.3389 25.526 47.188 25.5804 46.0914 25.2813C46.0914 24.9913 46.0461 24.6923 45.9827 24.4023C45.8648 23.9129 45.6473 23.4688 45.3573 23.061C45.4752 22.771 45.5658 22.472 45.6021 22.1548C45.8649 20.1883 44.4964 18.3848 42.548 18.0858C42.1855 16.5814 42.3486 14.9774 42.693 13.4186C43.3002 13.4005 44.0252 13.2374 44.7593 12.9565C46.1458 12.4308 47.5776 12.1771 48.9823 12.2133C52.1088 15.5392 54.4198 19.6536 55.5707 24.212C55.2263 24.1032 54.8638 24.0488 54.4923 24.0488ZM13.3671 12.9565C14.1011 13.2374 14.8261 13.3915 15.4333 13.4186C15.7686 14.9774 15.9408 16.5814 15.5783 18.0858C13.6299 18.3758 12.2614 20.1883 12.5243 22.1548C12.5514 22.3904 12.6149 22.626 12.6874 22.8435C12.4427 23.1698 12.2524 23.5413 12.1437 23.9401C12.0258 24.3842 12.0077 24.8373 12.0711 25.2723C10.9655 25.5804 9.80551 25.5351 8.69989 25.1363C6.83303 24.4657 4.62185 24.0488 3.64311 24.0488C3.26249 24.0488 2.89999 24.1032 2.56468 24.212C3.7156 19.6445 6.02648 15.5392 9.15301 12.2133C10.5577 12.1861 11.9986 12.4308 13.3761 12.9565H13.3671ZM1.85778 25.4626C2.00278 25.3448 2.16592 25.2451 2.32905 25.1545C2.71873 24.9551 3.16279 24.8373 3.63404 24.8373C4.54934 24.8373 6.68804 25.2541 8.41896 25.8704C9.67863 26.3235 11.0108 26.3779 12.2705 26.0245C12.3792 26.2873 12.5152 26.5319 12.6874 26.7585C12.8324 26.9488 13.0045 27.121 13.1858 27.2751C13.1858 27.3657 13.204 27.4563 13.2221 27.5469C13.3761 28.426 13.648 29.4047 13.9471 30.4288C14.0377 30.746 14.1283 31.0722 14.2189 31.4075C14.083 31.4256 13.947 31.4438 13.8111 31.4438C13.2492 31.4438 12.5152 31.2806 11.7811 31.0088C10.304 30.4469 8.77242 30.1569 7.259 30.1569C6.56119 30.1569 5.87242 30.2203 5.19274 30.3382C4.54931 30.456 3.99654 30.5194 3.64311 30.5194C2.91811 30.5194 2.25654 30.2475 1.75811 29.7944C1.62217 29.6675 1.49532 29.5316 1.3775 29.3775C1.24157 29.1963 1.11468 28.9879 1.02406 28.7794C0.879058 28.4441 0.797496 28.0726 0.797496 27.6738C0.797496 27.0304 1.01501 26.4413 1.3775 25.961C1.5225 25.7707 1.68561 25.5985 1.86685 25.4535L1.85778 25.4626ZM56.7579 29.3866C56.6491 29.5407 56.5223 29.6766 56.3773 29.8035C55.8788 30.2475 55.2173 30.5285 54.4923 30.5285C54.1298 30.5285 53.586 30.465 52.9426 30.3472C50.7948 29.9575 48.5111 30.1841 46.3542 31.0178C45.6293 31.2988 44.8861 31.4528 44.3243 31.4528C44.1883 31.4528 44.0433 31.4438 43.9165 31.4166C44.0071 31.0903 44.0977 30.7641 44.1883 30.4469C44.3968 29.7219 44.5871 29.0241 44.7411 28.3716C44.9224 28.2085 45.0945 28.0363 45.2486 27.846C45.6564 27.3294 45.9192 26.7223 46.037 26.0879C47.2423 26.3869 48.5111 26.3235 49.7073 25.8885C51.4382 25.2723 53.577 24.8554 54.4923 24.8554C54.9635 24.8554 55.3985 24.9732 55.7973 25.1726C55.9695 25.2632 56.1235 25.3629 56.2685 25.4807C56.4498 25.6257 56.6129 25.7979 56.7579 25.9882C57.1204 26.4685 57.3379 27.0576 57.3379 27.701C57.3379 28.0907 57.2563 28.4622 57.1113 28.8066C57.0207 29.0241 56.9029 29.2235 56.7579 29.4047V29.3866Z" fill="#3C3C3C"/>
<path d="M19.6213 59.584C19.6213 59.7834 19.7753 59.9556 19.9838 59.9737C19.9928 59.9737 20.0019 59.9737 20.0201 59.9737C20.2285 59.9737 20.4007 59.8197 20.4097 59.6112C20.4097 59.6022 20.4097 59.5931 20.4097 59.584C20.4641 58.9315 20.4551 58.3062 20.4188 57.69C20.4188 57.545 20.4007 57.4091 20.3916 57.2641C20.3825 57.1191 20.3644 56.9741 20.3463 56.8291C20.1288 54.935 19.5941 53.2675 19.1682 51.9354C19.1048 51.7269 18.8781 51.6091 18.6697 51.6816C18.4613 51.7451 18.3435 51.9716 18.416 52.1801C18.8238 53.4488 19.286 54.9078 19.5126 56.5391C19.5307 56.6841 19.5488 56.8381 19.5669 56.9922C19.5851 57.1372 19.5941 57.2731 19.6032 57.4181C19.6575 58.0978 19.6666 58.8137 19.6032 59.5478C19.6032 59.5569 19.6032 59.575 19.6032 59.584H19.6213Z" fill="#018C3B"/>
<path d="M38.5499 56.9926C38.568 56.8386 38.5861 56.6936 38.6043 56.5395C38.8308 54.9083 39.3021 53.4492 39.7008 52.1805C39.7643 51.9721 39.6555 51.7455 39.4471 51.6821C39.2387 51.6186 39.0121 51.7274 38.9486 51.9358C38.5227 53.268 37.988 54.9355 37.7705 56.8295C37.7524 56.9745 37.7434 57.1195 37.7252 57.2645C37.7162 57.4005 37.7071 57.5455 37.698 57.6905C37.6618 58.3067 37.6618 58.932 37.7071 59.5845C37.7071 59.5936 37.7071 59.6026 37.7071 59.6117C37.7252 59.8201 37.8974 59.9742 38.0968 59.9742C38.1058 59.9742 38.1149 59.9742 38.1331 59.9742C38.3415 59.9561 38.4865 59.7839 38.4955 59.5845C38.4955 59.5754 38.4955 59.5573 38.4955 59.5482C38.4321 58.8142 38.4411 58.0983 38.4955 57.4186C38.5046 57.2736 38.5227 57.1376 38.5318 56.9926H38.5499Z" fill="#018C3B"/>
<path d="M25.0765 30.639C24.9224 30.793 24.9224 31.0468 25.0765 31.2009C25.158 31.2824 25.2577 31.3187 25.3574 31.3187C25.4571 31.3187 25.5568 31.2824 25.6383 31.2009C25.7924 31.0468 25.7924 30.793 25.6383 30.639C25.4843 30.4849 25.2305 30.4849 25.0765 30.639Z" fill="#018C3B"/>
<path d="M10.2874 35.2601C10.1334 35.4141 10.1334 35.6679 10.2874 35.8219C10.3599 35.8944 10.4687 35.9398 10.5684 35.9398C10.6681 35.9398 10.7678 35.9035 10.8493 35.8219C11.0034 35.6679 11.0034 35.4141 10.8493 35.2601C10.6953 35.106 10.4415 35.106 10.2874 35.2601Z" fill="#018C3B"/>
<path d="M9.64257 19.2913C9.74226 19.2913 9.84194 19.2551 9.9235 19.1735C10.0776 19.0194 10.0776 18.7657 9.9235 18.6116C9.76944 18.4576 9.5157 18.4576 9.36164 18.6116C9.20758 18.7657 9.20758 19.0194 9.36164 19.1735C9.4432 19.246 9.54289 19.2913 9.64257 19.2913Z" fill="#018C3B"/>
<path d="M48.1937 18.6195C48.0396 18.7735 48.0396 19.0273 48.1937 19.1813C48.2752 19.2538 48.3749 19.2991 48.4746 19.2991C48.5743 19.2991 48.674 19.2629 48.7555 19.1813C48.9096 19.0273 48.9096 18.7735 48.7555 18.6195C48.6015 18.4654 48.3477 18.4654 48.1937 18.6195Z" fill="#018C3B"/>
<path d="M49.1273 36.182C48.9732 36.336 48.9732 36.5898 49.1273 36.7438C49.1998 36.8254 49.3085 36.8616 49.4082 36.8616C49.5079 36.8616 49.6076 36.8254 49.6891 36.7438C49.8432 36.5898 49.8432 36.336 49.6891 36.182C49.5351 36.0279 49.2813 36.0279 49.1273 36.182Z" fill="#018C3B"/>
</svg>
