<svg preserveAspectRatio="none" viewBox="0 0 61 60" fill="none" xmlns="http://www.w3.org/2000/svg">
<path d="M26.8574 58.9277C17.4735 32.045 29.839 3.49371 30.3703 2.29492L34.3882 4.06895C34.2389 4.41146 22.2159 32.2953 31.007 57.483L26.8618 58.9321L26.8574 58.9277Z" fill="#018C3B"/>
<path d="M40.1936 39.8921C40.0751 38.8997 39.1749 38.1884 38.1781 38.3113L30.9898 39.172C30.959 38.588 30.9283 38.004 30.9107 37.4287L19.5859 37.7976C19.6255 38.9261 19.6913 40.0766 19.7791 41.2402L19.9943 43.6905C20.0778 44.5029 20.17 45.324 20.2797 46.1495L31.5299 44.9376C31.4333 44.213 31.3542 43.4973 31.2796 42.7859L38.6128 41.9077C39.6052 41.7891 40.3122 40.8889 40.1936 39.8921Z" fill="white"/>
<path d="M20.2779 46.9183C19.8959 46.9183 19.5665 46.6329 19.5182 46.2464C19.4172 45.4428 19.3206 44.6085 19.2328 43.7698C19.1889 43.3483 19.4963 42.9706 19.9178 42.9267C20.3394 42.8828 20.717 43.1902 20.7609 43.6117C20.818 44.1826 20.8839 44.749 20.9498 45.3023L30.6718 44.2572C30.6191 43.8225 30.5708 43.3614 30.5181 42.8652C30.4742 42.4481 30.7728 42.0748 31.1899 42.0221L38.5232 41.1439C39.094 41.0736 39.5024 40.5555 39.4365 39.9846C39.3663 39.4138 38.8437 39.001 38.2773 39.0757L31.0889 39.9363C30.8782 39.9627 30.6674 39.8968 30.5049 39.7607C30.3424 39.6246 30.2414 39.427 30.2327 39.2162C30.2151 38.8825 30.1975 38.5531 30.1844 38.2238L20.3965 38.5443C20.436 39.4182 20.4887 40.3008 20.5546 41.1834C20.5853 41.605 20.2691 41.9738 19.8476 42.009C19.426 42.0397 19.0572 41.7235 19.022 41.302C18.9342 40.1383 18.8683 38.9703 18.8288 37.8286C18.82 37.6266 18.8947 37.4246 19.0352 37.2753C19.1757 37.126 19.3689 37.0382 19.5709 37.0294L30.8957 36.6605C31.3217 36.6474 31.673 36.9767 31.6905 37.4026C31.6993 37.7056 31.7125 38.0086 31.7257 38.3116L38.0972 37.5475C39.5068 37.3807 40.7978 38.3907 40.9647 39.8002C41.1315 41.2142 40.1216 42.5008 38.712 42.6676L32.134 43.458C32.1867 43.9455 32.2438 44.4021 32.3009 44.8369C32.3272 45.0433 32.2702 45.2496 32.1428 45.4121C32.0155 45.5746 31.8267 45.68 31.6203 45.7019L20.3701 46.9139C20.3438 46.9139 20.313 46.9183 20.2867 46.9183H20.2779Z" fill="#333333"/>
<path d="M30.921 31.6101L38.4913 31.3291C39.4925 31.2895 40.2697 30.4508 40.2346 29.4497C40.1995 28.4485 39.3564 27.6712 38.3552 27.7064L31.1581 27.9742C31.2196 27.3155 31.2854 26.6657 31.3601 26.0289L20.0353 25.5635C19.7498 28.1894 19.5698 30.9514 19.5391 33.832L30.8726 33.4544C30.8814 32.8308 30.899 32.2161 30.9253 31.6057L30.921 31.6101Z" fill="white"/>
<path d="M19.5341 34.6011C19.3321 34.6011 19.1389 34.5221 18.9984 34.3816C18.8491 34.2367 18.7656 34.0347 18.7656 33.8239C18.7964 31.0662 18.9632 28.2603 19.2662 25.4807C19.3101 25.0767 19.6526 24.7781 20.061 24.7957L31.3858 25.2611C31.601 25.2699 31.7986 25.3665 31.9391 25.529C32.0796 25.6915 32.1411 25.9066 32.1191 26.1174C32.0796 26.4643 32.0401 26.8156 32.005 27.1713L38.4205 26.9341C39.8125 26.9341 40.9454 28.0232 40.9981 29.4195C41.0508 30.8423 39.9398 32.0411 38.5171 32.0938L31.6581 32.3485C31.6449 32.7173 31.6361 33.0906 31.6317 33.4682C31.6273 33.8766 31.298 34.2103 30.8896 34.2235L19.556 34.6011C19.556 34.6011 19.5385 34.6011 19.5297 34.6011H19.5341ZM20.7241 26.3633C20.5001 28.5896 20.364 30.8291 20.3157 33.0423L30.1124 32.7173C30.1212 32.3353 30.1343 31.9576 30.1475 31.58C30.1651 31.1804 30.4856 30.8599 30.8852 30.8423L38.4556 30.5613C39.0308 30.5393 39.4787 30.0563 39.4568 29.481C39.4348 28.919 38.9781 28.4755 38.4161 28.4755L31.1794 28.7433C30.9599 28.7521 30.7447 28.6643 30.5954 28.5062C30.4417 28.3437 30.3671 28.1285 30.389 27.909C30.4242 27.527 30.4593 27.1449 30.4988 26.7673L20.7197 26.3677L20.7241 26.3633Z" fill="#333333"/>
<path d="M40.21 16.5841H33.1315C33.2632 16.0791 33.3993 15.5785 33.5355 15.0911L22.1799 14.1338C21.5608 16.4743 21.0163 18.9685 20.5859 21.6163L31.9415 22.0774C32.0513 21.4407 32.1698 20.8215 32.2928 20.2068H40.21C41.2112 20.2068 42.0236 19.3944 42.0236 18.3932C42.0236 17.392 41.2112 16.5841 40.21 16.5841Z" fill="white"/>
<path d="M31.9412 22.8464C31.9412 22.8464 31.9193 22.8464 31.9105 22.8464L20.555 22.3854C20.3354 22.3766 20.129 22.2756 19.9929 22.1043C19.8524 21.9331 19.7953 21.7135 19.8304 21.4939C20.2432 18.9471 20.7877 16.4046 21.4376 13.9368C21.5342 13.5767 21.8723 13.3352 22.2455 13.3659L33.6011 14.3232C33.8294 14.3407 34.0358 14.4637 34.1675 14.6525C34.2993 14.8413 34.3388 15.0785 34.2773 15.298C34.229 15.4693 34.1807 15.6405 34.1324 15.8162H40.2098C41.6325 15.8162 42.7918 16.9754 42.7918 18.3938C42.7918 19.8121 41.6325 20.9758 40.2098 20.9758H32.9249C32.8458 21.3798 32.7712 21.7925 32.7009 22.2097C32.6394 22.5786 32.3145 22.8464 31.9456 22.8464H31.9412ZM21.4903 20.8836L31.3045 21.2832C31.3792 20.8704 31.4582 20.462 31.5416 20.058C31.6163 19.698 31.9281 19.4433 32.2969 19.4433H40.2142C40.7894 19.4433 41.2593 18.9734 41.2593 18.3982C41.2593 17.8229 40.7894 17.3575 40.2142 17.3575H33.1356C32.8985 17.3575 32.6746 17.2477 32.5253 17.0589C32.3803 16.8701 32.332 16.6241 32.3891 16.3958C32.4418 16.1894 32.4989 15.9874 32.5516 15.7854L22.7637 14.9599C22.2675 16.9052 21.8416 18.8944 21.4903 20.8924V20.8836Z" fill="#333333"/>
<path d="M42.8029 5.26754L37.4369 4.77134C37.9156 3.77454 38.3898 2.85241 38.8465 2.02248L37.3096 1.85561L33.8889 1.49114L27.1133 0.766602C25.8223 3.45399 24.5006 6.61563 23.3281 10.2383L34.7803 11.2044C35.1404 10.1725 35.518 9.19763 35.8956 8.26671L42.478 8.87267C43.4748 8.96489 44.3574 8.23158 44.4496 7.23478C44.5418 6.23799 43.8085 5.35537 42.8117 5.26316L42.8029 5.26754Z" fill="white"/>
<path d="M34.7768 11.9734C34.7768 11.9734 34.7329 11.9734 34.7109 11.9734L23.2588 11.0074C23.0261 10.9898 22.8153 10.8625 22.6836 10.6693C22.5518 10.476 22.5211 10.2301 22.5913 10.0062C23.6452 6.73478 24.9318 3.51605 26.416 0.437851C26.5566 0.143644 26.8639 -0.0232118 27.1889 0.00752628L33.9644 0.732065C34.386 0.775976 34.6934 1.158 34.6451 1.57955C34.6012 2.00111 34.2235 2.30848 33.7976 2.26018L27.5621 1.59273C26.3458 4.17034 25.27 6.84456 24.3522 9.55829L34.2455 10.3926C34.5353 9.59781 34.8383 8.80301 35.172 7.97748C35.2994 7.6657 35.6199 7.47248 35.9536 7.50322L42.536 8.1092C43.1068 8.1619 43.6162 7.74035 43.6689 7.16511C43.7216 6.59426 43.3001 6.08489 42.7248 6.0322L37.3588 5.53599C37.1085 5.51404 36.8846 5.36913 36.7616 5.14957C36.6387 4.93001 36.6299 4.66654 36.7353 4.4382C37.0251 3.83661 37.3193 3.2438 37.6223 2.66417L37.2139 2.62026C36.7924 2.57635 36.485 2.19432 36.5333 1.77277C36.5772 1.35122 36.9592 1.04384 37.3808 1.09214L38.9177 1.259C39.1724 1.28534 39.3963 1.43904 39.5149 1.66738C39.6334 1.89572 39.6334 2.16797 39.5061 2.39192C39.2031 2.94521 38.9045 3.52045 38.6059 4.10887L42.8609 4.50407C44.2793 4.6358 45.3244 5.89606 45.1926 7.31001C45.0609 8.72835 43.805 9.76906 42.3867 9.64171L36.3752 9.08404C36.0546 9.88762 35.7648 10.6693 35.4882 11.4597C35.3784 11.7714 35.0886 11.9734 34.7636 11.9734H34.7768Z" fill="#333333"/>
<path d="M39.7911 49.966L32.6072 51.314C32.4403 50.4929 32.2779 49.6761 32.1374 48.8682L20.8828 50.0757C21.3966 53.0354 22.0684 56.0916 22.9291 59.2313L34.1178 57.5319C33.8631 56.6273 33.6303 55.7359 33.4108 54.8489L40.4586 53.5272C41.4422 53.3427 42.0877 52.3943 41.9033 51.4106C41.7189 50.427 40.7704 49.7815 39.7868 49.966H39.7911Z" fill="white"/>
<path d="M22.926 60.0042C22.5835 60.0042 22.2761 59.7759 22.1839 59.4378C21.3496 56.3991 20.6557 53.2901 20.12 50.2075C20.0849 49.9968 20.1376 49.7816 20.2649 49.6147C20.3923 49.4435 20.5855 49.3337 20.7963 49.3118L32.0508 48.1042C32.4504 48.0603 32.8193 48.3369 32.8895 48.7365C32.9817 49.2678 33.0871 49.8255 33.2057 50.4227L39.6431 49.2151C39.8012 49.1844 39.9637 49.1712 40.1218 49.1712C41.3601 49.1712 42.4271 50.0583 42.6555 51.2746C42.9145 52.6754 41.9924 54.0235 40.596 54.2869L34.3474 55.4594C34.5186 56.1356 34.6855 56.7416 34.848 57.33C34.9094 57.5408 34.8743 57.7691 34.7558 57.9536C34.6372 58.138 34.444 58.2653 34.2244 58.2961L23.0358 59.9954C22.9962 59.9998 22.9567 60.0042 22.9216 60.0042H22.926ZM21.7799 50.7521C22.2453 53.2989 22.8206 55.8546 23.488 58.3707L33.1442 56.9041C32.9905 56.3288 32.8324 55.7185 32.6612 55.0334C32.6085 54.827 32.648 54.6119 32.7622 54.4318C32.8763 54.2518 33.0608 54.1288 33.2672 54.0937L40.315 52.772C40.8814 52.6666 41.2547 52.1177 41.1493 51.5556C41.0439 50.998 40.495 50.6203 39.9329 50.7213L32.749 52.0694C32.3362 52.1441 31.941 51.8806 31.8532 51.4678C31.7259 50.8399 31.6117 50.2602 31.5063 49.707L21.7799 50.7521Z" fill="#333333"/>
<path d="M47.5938 28.4399H51.5238V24.5098H56.0292V28.4399H59.9593V32.9452H56.0292V36.8753H51.5238V32.9452H47.5938V28.4399Z" fill="#9CD6B4"/>
<path d="M56.0316 37.5344H51.5263C51.1618 37.5344 50.8676 37.2402 50.8676 36.8757V33.6043H47.5962C47.2317 33.6043 46.9375 33.3101 46.9375 32.9456V28.4403C46.9375 28.0759 47.2317 27.7817 47.5962 27.7817H50.8676V24.5102C50.8676 24.1458 51.1618 23.8516 51.5263 23.8516H56.0316C56.3961 23.8516 56.6903 24.1458 56.6903 24.5102V27.7817H59.9573C60.3218 27.7817 60.616 28.0759 60.616 28.4403V32.9456C60.616 33.3101 60.3218 33.6043 59.9573 33.6043H56.6903V36.8757C56.6903 37.2402 56.3961 37.5344 56.0316 37.5344ZM52.1849 36.2171H55.3729V32.9456C55.3729 32.5812 55.6671 32.287 56.0316 32.287H59.2986V29.099H56.0316C55.6671 29.099 55.3729 28.8048 55.3729 28.4403V25.1689H52.1849V28.4403C52.1849 28.8048 51.8907 29.099 51.5263 29.099H48.2548V32.287H51.5263C51.8907 32.287 52.1849 32.5812 52.1849 32.9456V36.2171Z" fill="#333333"/>
<path d="M5.00751 38.1226C4.80552 38.1226 4.60352 38.0435 4.44983 37.8854C1.13889 34.412 -0.441923 29.8321 0.106972 25.3135C0.550479 21.6689 2.36403 18.2745 5.21828 15.754C5.53445 15.473 6.02187 15.5037 6.3029 15.8199C6.58393 16.136 6.5532 16.6235 6.23704 16.9045C3.62869 19.2098 2.03908 22.1827 1.63509 25.5024C1.14328 29.5598 2.57481 33.6875 5.56519 36.8272C5.8594 37.1345 5.84622 37.622 5.53884 37.9118C5.38954 38.0523 5.20072 38.1226 5.00751 38.1226Z" fill="#018C3B"/>
<path d="M8.94081 35.5409C8.7476 35.5409 8.55439 35.4663 8.40509 35.3214C5.79235 32.7613 4.53648 29.3318 4.95364 25.9067C5.28297 23.1974 6.65302 20.69 8.80469 18.8457C9.12524 18.5691 9.61266 18.6086 9.8893 18.9292C10.1659 19.2497 10.1264 19.7371 9.80587 20.0138C7.94402 21.6078 6.76279 23.7682 6.48176 26.0955C6.12168 29.042 7.21509 32.006 9.48532 34.228C9.78831 34.5266 9.7927 35.0096 9.49849 35.317C9.34919 35.4706 9.1472 35.5497 8.94959 35.5497L8.94081 35.5409Z" fill="#018C3B"/>
<path d="M12.6642 33.0902C12.4885 33.0902 12.3129 33.0331 12.168 32.9102C10.2095 31.2591 9.21275 28.8484 9.50256 26.4596C9.72651 24.6241 10.6838 22.9554 12.1943 21.7523C12.5281 21.4888 13.0111 21.5415 13.2746 21.8752C13.538 22.2089 13.4853 22.692 13.1516 22.9554C11.9572 23.9039 11.2063 25.2169 11.0307 26.644C10.8023 28.5146 11.5971 30.4204 13.1604 31.7334C13.4853 32.0056 13.5249 32.493 13.2526 32.818C13.0989 32.998 12.8838 33.0902 12.6642 33.0902Z" fill="#018C3B"/>
</svg>
