<svg preserveAspectRatio="none" viewBox="0 0 48 60" fill="none" xmlns="http://www.w3.org/2000/svg">
<path d="M33.2462 29.1254C30.3557 18.2955 29.2954 9.45994 28.9293 3.60742L23.6406 4.32268C24.0445 10.4487 25.1721 19.4483 28.1173 30.4928C31.1887 42.0001 31.7273 48.7951 30.6207 55.0599L35.9432 55.1567C37.0203 48.2018 36.3429 40.7505 33.2378 29.1212L33.2462 29.1254Z" fill="#018C3B"/>
<path d="M35.6747 1.3233C35.1109 0.645902 34.1011 0.553343 33.4237 1.11714L30.5753 3.49011C30.5626 2.93473 30.5542 2.38778 30.5584 1.85344H20.9697C20.9697 2.48876 20.9781 3.13669 20.9907 3.79305L18.319 2.10588C17.5743 1.63465 16.5855 1.85764 16.1143 2.60236C15.6431 3.34707 15.8661 4.33581 16.6108 4.80704L21.1843 7.69753C21.239 8.43383 21.3063 9.17855 21.3862 9.94009L30.9413 9.0944C30.8782 8.5306 30.8319 7.97944 30.7856 7.43247C30.874 7.38199 30.9623 7.32729 31.0423 7.25997L35.4685 3.57427C36.1459 3.01047 36.2385 2.00069 35.6747 1.3233Z" fill="white"/>
<path d="M21.3833 10.6845C21.0089 10.6845 20.6933 10.4026 20.6513 10.0239C20.5881 9.41383 20.5292 8.79113 20.4745 8.13057L16.2124 5.43781C15.1227 4.74779 14.7987 3.30465 15.4845 2.21492C15.8169 1.689 16.3344 1.32296 16.9445 1.18412C17.5546 1.04948 18.1773 1.15466 18.7074 1.48705L20.2263 2.44634C20.2263 2.24859 20.2263 2.05084 20.2263 1.85309C20.2263 1.44497 20.5545 1.11679 20.9626 1.11679H25.5908C25.9989 1.11679 26.3271 1.44497 26.3271 1.85309C26.3271 2.26121 25.9989 2.58939 25.5908 2.58939H21.7031C21.7031 2.98068 21.7115 3.37618 21.72 3.77589C21.7284 4.04937 21.5811 4.30181 21.3455 4.43224C21.1099 4.56688 20.8196 4.55846 20.5882 4.41541L17.9164 2.72823C17.7229 2.60622 17.4915 2.56415 17.2643 2.61463C17.0371 2.66512 16.8477 2.79976 16.7257 2.9933C16.4733 3.39721 16.5911 3.92735 16.995 4.18401L21.5685 7.0745C21.7662 7.20072 21.8924 7.4111 21.9093 7.6425C21.9471 8.16422 21.9892 8.6607 22.0355 9.14034L30.1264 8.42508C30.097 8.11373 30.0675 7.80238 30.0423 7.49103C30.017 7.20072 30.1643 6.92303 30.4209 6.78419C30.4756 6.75473 30.5219 6.72107 30.5682 6.68741L34.9902 3.00172C35.1669 2.85446 35.2763 2.64829 35.2973 2.41689C35.3184 2.18968 35.2469 1.96248 35.0996 1.78577C34.9523 1.60906 34.7462 1.49966 34.5148 1.47863C34.2918 1.45759 34.0604 1.52912 33.8836 1.67638L31.0352 4.04937C30.8164 4.23028 30.5177 4.27236 30.261 4.15455C30.0044 4.03674 29.8361 3.7843 29.8277 3.50241C29.8193 3.19526 29.8151 2.88811 29.8109 2.58518H28.4224C28.0143 2.58518 27.6861 2.257 27.6861 1.84888C27.6861 1.44076 28.0143 1.11258 28.4224 1.11258H30.5472C30.7407 1.11258 30.93 1.19253 31.0689 1.32717C31.2077 1.46601 31.2835 1.65534 31.2835 1.84888V1.92462L32.9412 0.544579C33.4208 0.144875 34.0267 -0.0444502 34.6494 0.0144536C35.2721 0.06915 35.8317 0.367868 36.2314 0.847514C36.6311 1.32716 36.8204 1.93304 36.7615 2.55153C36.7068 3.17422 36.4123 3.73381 35.9327 4.13352L31.5485 7.78555C31.5822 8.18947 31.6242 8.59759 31.6663 9.00991C31.6874 9.20766 31.6285 9.40541 31.5022 9.55687C31.376 9.70834 31.1951 9.80511 30.9973 9.82194L21.4423 10.6676C21.4212 10.6676 21.4002 10.6676 21.3749 10.6676L21.3833 10.6845Z" fill="#333333"/>
<path d="M23.2906 20.5923C23.4547 21.2445 23.6314 21.9008 23.8166 22.5656L33.4474 21.2865C33.2286 20.5713 33.0309 19.8602 32.8415 19.1618L36.8133 15.5434C37.4655 14.9502 37.5117 13.9362 36.9185 13.284C36.3252 12.6319 35.3113 12.5856 34.6591 13.1789L31.9874 15.6149C31.8612 15.0259 31.7476 14.4411 31.6382 13.8605L22.0452 14.7103C22.142 15.2699 22.2472 15.8421 22.3566 16.4143L19.6091 14.845C18.8434 14.4074 17.8672 14.6725 17.4297 15.4382C16.9921 16.204 17.2572 17.1801 18.0229 17.6177L23.0256 20.4745C23.1097 20.525 23.2023 20.5587 23.2906 20.5923Z" fill="white"/>
<path d="M23.8198 23.3023C23.4959 23.3023 23.2013 23.0877 23.113 22.7637C22.9573 22.2083 22.81 21.6614 22.6712 21.1144L17.6686 18.2576C16.5494 17.618 16.1623 16.1875 16.7976 15.0725C17.2099 14.3489 17.9883 13.8945 18.8256 13.8945C19.2295 13.8945 19.6292 13.9997 19.9827 14.2016L21.3501 14.9842C21.3417 14.9337 21.3332 14.8832 21.3248 14.8327C21.2912 14.6308 21.3416 14.4204 21.4679 14.2605C21.5941 14.0964 21.7834 13.9954 21.9854 13.9786L31.5783 13.1287C31.957 13.095 32.2978 13.3559 32.3651 13.7304C32.3946 13.8861 32.424 14.0417 32.4535 14.1974L34.1659 12.6364C34.5951 12.2452 35.1546 12.0264 35.7395 12.0264C36.3958 12.0264 37.0228 12.3041 37.4645 12.7879C37.8853 13.2465 38.0999 13.844 38.0704 14.4667C38.041 15.0894 37.7717 15.6658 37.3131 16.0865L33.6736 19.402C33.8377 19.9952 33.9934 20.5464 34.1533 21.0723C34.2164 21.2785 34.1827 21.5015 34.0691 21.6824C33.9513 21.8633 33.762 21.9853 33.5474 22.0148L23.9166 23.2938C23.8829 23.298 23.8493 23.3023 23.8198 23.3023ZM18.8214 15.3671C18.51 15.3671 18.2239 15.5311 18.0725 15.8004C17.8368 16.2127 17.9799 16.7429 18.3922 16.9785L23.3949 19.8353C23.4412 19.8606 23.4916 19.8816 23.5379 19.8984C23.7693 19.9826 23.9461 20.1719 24.005 20.4117C24.1186 20.8577 24.2364 21.3037 24.3584 21.7539L32.4998 20.6726C32.3778 20.2519 32.2557 19.8185 32.1337 19.3557C32.0622 19.0906 32.1463 18.8045 32.3483 18.6194L36.3201 15.001C36.4884 14.8453 36.5894 14.635 36.5978 14.4036C36.6104 14.1721 36.5305 13.9534 36.3748 13.7851C36.0635 13.4443 35.4997 13.419 35.1547 13.7304L32.4829 16.1665C32.2894 16.3432 32.0117 16.4063 31.7635 16.3221C31.511 16.2422 31.3259 16.0318 31.267 15.7752C31.1871 15.4007 31.1113 15.0305 31.0398 14.6602L22.911 15.3797C22.9657 15.6784 23.0246 15.9771 23.0835 16.2801C23.1382 16.562 23.0246 16.8523 22.789 17.0206C22.5534 17.1889 22.2462 17.2057 21.9938 17.0626L19.2463 15.4933C19.1159 15.4176 18.9687 15.3797 18.8214 15.3797V15.3671Z" fill="#333333"/>
<path d="M40.0822 24.9349C39.4427 24.3248 38.4329 24.3501 37.8229 24.9896L35.5214 27.4047C35.3573 26.9166 35.1932 26.4243 35.0165 25.9236L32.7907 26.2182L29.9718 26.5926L25.2805 27.2153C25.4277 27.6403 25.575 28.0652 25.7349 28.4944C25.819 28.7216 25.8948 28.9404 25.9747 29.1634L22.9327 27.6992C22.1375 27.3163 21.1824 27.6487 20.7996 28.4439C20.4167 29.2391 20.7491 30.1942 21.5443 30.577L26.7363 33.0763C26.913 33.1604 27.0981 33.2067 27.2832 33.2235C27.3842 33.5727 27.4852 33.9219 27.5735 34.2627L37.339 33.6779C37.1244 32.7817 36.8762 31.8477 36.6069 30.8968L40.1412 27.1901C40.7512 26.5506 40.726 25.5408 40.0865 24.9307L40.0822 24.9349Z" fill="white"/>
<path d="M27.5683 35.0028C27.236 35.0028 26.9456 34.7798 26.8573 34.4559C26.8026 34.2581 26.7479 34.0562 26.689 33.8542C26.5922 33.8248 26.4996 33.7869 26.4071 33.7406L21.2193 31.2414C20.0623 30.6818 19.57 29.285 20.1296 28.1237C20.3989 27.5599 20.8743 27.1392 21.4633 26.933C22.0524 26.7268 22.6877 26.7647 23.2473 27.034L24.6736 27.7198C24.6442 27.6314 24.6105 27.5431 24.5811 27.4547C24.5095 27.2444 24.5348 27.0172 24.6484 26.8278C24.7662 26.6385 24.9597 26.5123 25.1785 26.4828L29.8698 25.8601C30.2737 25.8054 30.644 26.0915 30.6945 26.4912C30.7492 26.8951 30.4631 27.2654 30.0633 27.3201L26.2724 27.825C26.3229 27.9638 26.3734 28.0985 26.4239 28.2373C26.4744 28.3719 26.5207 28.5066 26.567 28.637L26.6637 28.9105C26.7647 29.1924 26.6848 29.508 26.466 29.7057C26.243 29.9077 25.9232 29.9539 25.654 29.8235L22.612 28.3593C22.4058 28.2583 22.1702 28.2457 21.9514 28.3215C21.7326 28.3972 21.5601 28.5529 21.4591 28.759C21.253 29.1882 21.4339 29.7057 21.8631 29.9119L27.0508 32.4111C27.135 32.4531 27.2317 32.4784 27.3453 32.4868C27.6483 32.5163 27.9007 32.7266 27.9849 33.0169C28.0312 33.1768 28.0774 33.3325 28.1195 33.4882L36.4082 32.9917C36.2609 32.4111 36.0926 31.7842 35.8948 31.0941C35.8233 30.8417 35.8949 30.5724 36.0716 30.3873L39.6058 26.6806C39.7657 26.5123 39.8498 26.2935 39.8414 26.0663C39.8372 25.8349 39.7404 25.6203 39.5764 25.4646C39.4081 25.3047 39.1851 25.2164 38.9621 25.2248C38.7307 25.229 38.5161 25.3258 38.3604 25.4941L36.0589 27.9091C35.8822 28.0943 35.6172 28.1742 35.3647 28.1195C35.1123 28.0648 34.9103 27.8797 34.8262 27.6357L34.8093 27.5852C34.7126 27.3033 34.62 27.0172 34.519 26.7311L32.8865 26.9456C32.4826 27.0003 32.1124 26.7142 32.0619 26.3145C32.0072 25.9106 32.2933 25.5404 32.693 25.4899L34.9187 25.1954C35.2637 25.1491 35.5919 25.351 35.7097 25.6792C35.7518 25.7928 35.7897 25.9064 35.8275 26.02L37.2917 24.4843C37.7209 24.0341 38.3015 23.7775 38.9242 23.7606C39.5469 23.7438 40.1402 23.9752 40.5904 24.4044C41.0406 24.8335 41.2972 25.4141 41.314 26.0368C41.3309 26.6595 41.0995 27.2528 40.6703 27.703L37.4264 31.1068C37.6746 32.003 37.8808 32.7939 38.0533 33.5134C38.1038 33.7238 38.0533 33.9468 37.927 34.1235C37.7966 34.296 37.5989 34.4054 37.3801 34.418L27.6146 35.0028C27.6146 35.0028 27.5852 35.0028 27.5683 35.0028Z" fill="#333333"/>
<path d="M43.3752 38.3855C42.8325 37.6871 41.8311 37.5609 41.1327 38.1036L38.4778 40.1653C38.4147 39.6015 38.3431 39.0293 38.2548 38.4402L28.6155 39.0166C28.6997 39.5215 28.767 40.0138 28.8301 40.4977L25.9985 38.5706C25.2706 38.0742 24.2735 38.2593 23.777 38.9914C23.2805 39.7193 23.4698 40.7122 24.1977 41.2129L28.9605 44.4568C29.0237 44.4989 29.0868 44.5284 29.1499 44.562C29.1583 44.9617 29.1667 45.3656 29.1625 45.7527H38.7765C38.7807 45.1805 38.7765 44.5957 38.7597 43.994L43.0933 40.6281C43.7918 40.0853 43.918 39.0839 43.3752 38.3855Z" fill="white"/>
<path d="M38.7754 46.4853H29.1614C28.9636 46.4853 28.7743 46.4054 28.6355 46.2665C28.4966 46.1277 28.4209 45.9342 28.4251 45.7406C28.4251 45.4924 28.4251 45.2399 28.4251 44.9833L23.7843 41.8235C22.7198 41.0956 22.4463 39.6441 23.17 38.5796C23.6033 37.9401 24.327 37.5572 25.1012 37.5572C25.5724 37.5572 26.0268 37.696 26.4139 37.9653L27.8781 38.9625C27.8907 38.8152 27.9454 38.6764 28.038 38.5585C28.1684 38.3945 28.362 38.2935 28.5681 38.2809L38.2074 37.7044C38.586 37.6834 38.9226 37.9527 38.9815 38.3314C39.0026 38.4828 39.0236 38.6343 39.0446 38.79L40.6771 37.5235C41.0895 37.2038 41.5859 37.0312 42.1076 37.0312C42.8355 37.0312 43.5087 37.3594 43.9547 37.9359C44.3376 38.4281 44.5059 39.0382 44.4259 39.6567C44.3502 40.2752 44.0347 40.8264 43.5424 41.2092L39.5032 44.3437C39.5159 44.8192 39.5159 45.2946 39.5117 45.7532C39.5117 46.1571 39.1793 46.4811 38.7754 46.4811V46.4853ZM29.8977 45.0127H38.0433C38.0433 44.6845 38.0349 44.348 38.0222 44.0156C38.0138 43.78 38.119 43.557 38.3083 43.4097L42.642 40.0438C42.8229 39.9007 42.9407 39.6988 42.9702 39.4716C42.9996 39.2444 42.9365 39.0172 42.7977 38.8362C42.5158 38.4744 41.9562 38.3987 41.5859 38.6848L38.931 40.7464C38.7207 40.9105 38.4388 40.9484 38.1947 40.8432C37.9507 40.738 37.7782 40.5108 37.7487 40.2499C37.7067 39.8755 37.6646 39.5389 37.6225 39.2191L29.4727 39.7072C29.5064 39.9428 29.5358 40.1742 29.5695 40.4056C29.6074 40.6917 29.4727 40.9778 29.2245 41.1293C28.9762 41.2808 28.6649 41.2723 28.4251 41.1125L25.5935 39.1855C25.2106 38.9246 24.6552 39.034 24.3944 39.4126C24.1251 39.8039 24.2303 40.3425 24.6215 40.6118L29.3802 43.8557C29.4054 43.8725 29.4264 43.8809 29.4517 43.8936C29.6957 44.0156 29.8893 44.2806 29.8935 44.5541C29.8935 44.7098 29.8977 44.8655 29.9019 45.0211L29.8977 45.0127Z" fill="#333333"/>
<path d="M40.1606 50.4361L38.2925 51.732C38.3514 51.3449 38.4061 50.9536 38.4566 50.5539H28.75C28.6364 51.265 28.5018 51.955 28.3587 52.6324L25.0264 50.0911C24.3238 49.5568 23.3224 49.6872 22.7881 50.3898C22.2537 51.0925 22.3884 52.0938 23.0868 52.6282L27.5383 56.0236C27.3994 56.5369 27.2606 57.046 27.1217 57.5551C26.9745 58.0978 26.823 58.649 26.6757 59.2044L36.6095 59.2675C36.8746 58.2956 37.1438 57.29 37.3963 56.2423L41.9866 53.0615C42.7103 52.5566 42.8912 51.5637 42.3905 50.8358C41.8898 50.1121 40.8927 49.9312 40.1648 50.4319L40.1606 50.4361Z" fill="white"/>
<path d="M36.6118 60.0038H36.6075L26.6738 59.9407C26.4466 59.9407 26.232 59.8313 26.0932 59.6504C25.9543 59.4695 25.908 59.2339 25.9669 59.0151C26.1142 58.4597 26.2615 57.9043 26.4129 57.3616C26.5097 57.0124 26.6023 56.6631 26.699 56.3097L22.6431 53.2131C21.6207 52.4305 21.4229 50.9621 22.2055 49.9397C22.6473 49.3549 23.3247 49.0225 24.061 49.0225C24.5785 49.0225 25.0666 49.1866 25.4789 49.5021L27.8729 51.3281C27.9318 51.0168 27.9823 50.7265 28.0286 50.4362C28.0833 50.0785 28.3946 49.8135 28.7565 49.8135H38.463C38.6734 49.8135 38.8754 49.906 39.0142 50.0617C39.0647 50.1206 39.1068 50.1837 39.1362 50.251L39.7505 49.8261C40.1418 49.5526 40.6046 49.4095 41.0801 49.4095C41.8458 49.4095 42.5653 49.784 42.9986 50.4151C43.3521 50.9284 43.4867 51.5469 43.3773 52.1612C43.2679 52.7755 42.9229 53.3098 42.4096 53.6632L38.0507 56.6842C37.8067 57.6813 37.55 58.6406 37.327 59.4569C37.2387 59.7766 36.9484 59.9996 36.616 59.9996L36.6118 60.0038ZM27.6331 58.4723L36.048 58.527C36.2499 57.7739 36.4729 56.9282 36.6791 56.0657C36.7212 55.889 36.8264 55.7375 36.9736 55.6323L41.5639 52.4515C41.7533 52.3211 41.8795 52.1233 41.9215 51.8961C41.9636 51.6689 41.9131 51.4417 41.7827 51.2524C41.5219 50.8737 40.9622 50.7727 40.5836 51.0336L38.7155 52.3295C38.4714 52.4978 38.1559 52.5062 37.9077 52.3505C37.6594 52.1949 37.5248 51.9045 37.5711 51.6142C37.5879 51.5048 37.6047 51.3955 37.6216 51.2819H29.3792C29.2992 51.7405 29.2025 52.2285 29.0889 52.7755C29.0384 53.0237 28.8617 53.2257 28.6261 53.314C28.3862 53.4024 28.1254 53.3603 27.9234 53.2088L24.5911 50.6676C24.2209 50.3857 23.6613 50.4614 23.3836 50.8274C23.0933 51.2061 23.169 51.7489 23.5435 52.035L27.9907 55.4304C28.2263 55.6113 28.3315 55.9184 28.2558 56.2045C28.117 56.7178 27.9781 57.2311 27.8393 57.7402C27.7719 57.9801 27.7088 58.2241 27.6415 58.4639L27.6331 58.4723Z" fill="#333333"/>
<path d="M47.7862 57.6641H46.7344V55.9812H47.7862V57.6641ZM47.7862 54.2982H46.7344V52.6152H47.7862V54.2982ZM47.7862 50.9323H46.7344V49.2493H47.7862V50.9323ZM47.7862 47.5663H46.7344V45.8834H47.7862V47.5663ZM47.7862 44.2004H46.7344V42.5174H47.7862V44.2004ZM47.7862 40.8345H46.7344V39.1515H47.7862V40.8345ZM47.7862 37.4685H46.7344V35.7856H47.7862V37.4685ZM47.7862 34.1026H46.7344V32.4196H47.7862V34.1026ZM47.7862 30.7367H46.7344V29.0537H47.7862V30.7367ZM47.7862 27.3707H46.7344V25.6878H47.7862V27.3707ZM47.7862 24.0048H46.7344V22.3218H47.7862V24.0048ZM47.7862 20.6389H46.7344V18.9559H47.7862V20.6389ZM47.7862 17.2729H46.7344V15.59H47.7862V17.2729ZM47.7862 13.907H46.7344V12.224H47.7862V13.907ZM47.7862 10.5411H46.7344V8.85809H47.7862V10.5411ZM47.7862 7.17512H46.7344V5.49215H47.7862V7.17512ZM47.7862 3.80918H46.7344V2.50488H47.7862V3.80918Z" fill="#9CD6B4"/>
<path d="M5.14801 43.8261C4.95447 43.8261 4.76092 43.7503 4.61366 43.5988C1.1846 40.0015 -0.460512 35.2513 0.111699 30.5685C0.57031 26.7944 2.45105 23.2728 5.40887 20.66C5.71181 20.3907 6.17882 20.4202 6.4481 20.7231C6.71737 21.0261 6.68794 21.4931 6.385 21.7624C3.66279 24.1732 1.99665 27.2783 1.5759 30.7452C1.05839 34.9863 2.55622 39.3031 5.68234 42.5806C5.96424 42.8752 5.95162 43.3422 5.6571 43.6199C5.51404 43.7545 5.33314 43.8218 5.14801 43.8218V43.8261Z" fill="#9CD6B4"/>
<path d="M9.24165 41.1372C9.05653 41.1372 8.87141 41.0656 8.72836 40.9268C6.02298 38.2803 4.71867 34.7293 5.15204 31.1824C5.49284 28.3803 6.90653 25.7843 9.13647 23.8741C9.44361 23.6091 9.91065 23.6469 10.1757 23.9541C10.4408 24.2612 10.4029 24.7282 10.0958 24.9933C8.14773 26.6637 6.91073 28.923 6.612 31.3591C6.23334 34.4474 7.38198 37.5525 9.75497 39.8749C10.0453 40.1611 10.0495 40.6239 9.76758 40.9142C9.62453 41.0614 9.43099 41.1372 9.24165 41.1372Z" fill="#9CD6B4"/>
<path d="M13.1219 38.5884C12.9536 38.5884 12.7853 38.5337 12.6464 38.4159C10.6226 36.7119 9.596 34.2253 9.89473 31.7598C10.1261 29.8707 11.1107 28.1456 12.6717 26.9044C12.9914 26.652 13.4542 26.7025 13.7067 27.0222C13.9591 27.342 13.9086 27.8048 13.5889 28.0573C12.3351 29.0544 11.5399 30.4345 11.3589 31.9407C11.1191 33.9098 11.9564 35.9125 13.5973 37.2926C13.9086 37.5534 13.9465 38.0204 13.6856 38.3318C13.5384 38.5043 13.3322 38.5926 13.1219 38.5926V38.5884Z" fill="#9CD6B4"/>
</svg>
