<svg preserveAspectRatio="none" viewBox="0 0 65 60" fill="none" xmlns="http://www.w3.org/2000/svg">
<path d="M31.9556 58.2721C44.1547 58.2721 54.044 48.3829 54.044 36.1839C54.044 23.9849 44.1547 14.0957 31.9556 14.0957C19.7565 14.0957 9.86719 23.9849 9.86719 36.1839C9.86719 48.3829 19.7565 58.2721 31.9556 58.2721Z" fill="#9CD6B4"/>
<path d="M35.6237 1.94336H28.0156V7.32867H35.6237V1.94336Z" fill="white"/>
<path d="M35.6268 8.19896H28.0186C27.5363 8.19896 27.1484 7.8111 27.1484 7.32876V1.94344C27.1484 1.4611 27.5363 1.07324 28.0186 1.07324H35.6268C36.1091 1.07324 36.497 1.4611 36.497 1.94344V7.32876C36.497 7.8111 36.1091 8.19896 35.6268 8.19896ZM28.8889 6.45855H34.7565V2.81364H28.8889V6.45855Z" fill="#333333"/>
<path d="M35.6237 10.292H28.0156V15.6723H35.6237V10.292Z" fill="white"/>
<path d="M35.6268 16.5426H28.0186C27.5363 16.5426 27.1484 16.1547 27.1484 15.6724V10.2921C27.1484 9.80974 27.5363 9.42188 28.0186 9.42188H35.6268C36.1091 9.42188 36.497 9.80974 36.497 10.2921V15.6724C36.497 16.1547 36.1091 16.5426 35.6268 16.5426ZM28.8889 14.8022H34.7565V11.1623H28.8889V14.8022Z" fill="#333333"/>
<path d="M35.6237 18.6367H28.0156V24.5342H35.6237V18.6367Z" fill="white"/>
<path d="M35.6268 25.4045H28.0186C27.5363 25.4045 27.1484 25.0166 27.1484 24.5343V18.6368C27.1484 18.1545 27.5363 17.7666 28.0186 17.7666H35.6268C36.1091 17.7666 36.497 18.1545 36.497 18.6368V24.5343C36.497 25.0166 36.1091 25.4045 35.6268 25.4045ZM28.8889 23.6641H34.7565V19.507H28.8889V23.6641Z" fill="#333333"/>
<path d="M23.0312 27.6162H40.694L31.8626 44.8363L23.0312 27.6162Z" fill="white"/>
<path d="M31.8591 45.7065C31.5309 45.7065 31.2326 45.5225 31.0834 45.2341L22.252 28.0141C22.1128 27.7456 22.1277 27.4224 22.2818 27.1638C22.4409 26.9052 22.7194 26.7461 23.0227 26.7461H40.6855C40.9888 26.7461 41.2723 26.9052 41.4264 27.1638C41.5856 27.4224 41.5955 27.7456 41.4563 28.0141L32.6249 45.2341C32.4757 45.5225 32.1773 45.7065 31.8491 45.7065H31.8591ZM24.4499 28.4865L31.8591 42.9269L39.2633 28.4865H24.4499Z" fill="#333333"/>
<path d="M34.7407 33.0119H28.9874C28.5051 33.0119 28.1172 32.624 28.1172 32.1417C28.1172 31.6593 28.5051 31.2715 28.9874 31.2715H34.7407C35.2231 31.2715 35.6109 31.6593 35.6109 32.1417C35.6109 32.624 35.2231 33.0119 34.7407 33.0119Z" fill="#333333"/>
<path d="M33.871 37.6017H30.0421C29.5597 37.6017 29.1719 37.2139 29.1719 36.7315C29.1719 36.2492 29.5597 35.8613 30.0421 35.8613H33.871C34.3533 35.8613 34.7412 36.2492 34.7412 36.7315C34.7412 37.2139 34.3533 37.6017 33.871 37.6017Z" fill="#333333"/>
<path d="M31.2207 46.5772C29.8682 44.5334 27.3123 43.7478 25.1939 42.6439C23.3192 41.6643 21.1462 39.6006 20.4799 37.5519C20.4301 37.3978 20.3904 37.2486 20.3605 37.0994C19.9925 35.359 20.3904 33.3302 21.2357 31.7539C22.2551 29.8544 24.9701 29.193 25.6763 27.1046C26.6161 24.31 22.6529 21.222 20.2312 20.3766C16.5565 19.0937 12.1458 19.9142 8.97322 21.948C7.73006 22.7436 6.73554 23.6337 5.95981 24.5984L4.51277 27.0449C3.45857 29.6257 3.54808 32.5943 4.46802 35.7867C5.68631 40.0034 9.6843 41.9129 12.3248 45.1898C13.9309 47.1789 14.7216 49.6254 16.3228 51.6194C18.4908 54.3095 21.5589 55.5427 24.6718 55.2245C26.5962 55.0306 28.8339 54.0957 29.9975 52.6338C31.176 51.1619 32.3744 48.3225 31.2207 46.5722V46.5772Z" fill="white"/>
<path d="M23.7095 56.1493C20.6016 56.1493 17.7075 54.7321 15.6389 52.1712C14.7886 51.1171 14.1621 49.9535 13.5554 48.8297C12.9587 47.7208 12.3918 46.6766 11.6409 45.7467C10.7608 44.6527 9.68172 43.688 8.64244 42.7532C6.59869 40.9183 4.48533 39.0188 3.62507 36.0352C2.60071 32.4848 2.62557 29.3521 3.69965 26.7216C3.88364 26.279 4.39085 26.0652 4.83341 26.2442C5.27597 26.4282 5.48979 26.9354 5.31078 27.378C4.39084 29.6355 4.38587 32.3854 5.29586 35.5479C6.01689 38.0491 7.85677 39.705 9.80603 41.4504C10.9 42.43 12.0288 43.4444 12.9935 44.6477C13.8488 45.7069 14.4753 46.8705 15.087 47.9992C15.6837 49.1032 16.2456 50.1474 16.9964 51.0773C18.9159 53.4591 21.6807 54.6575 24.5797 54.3641C26.4842 54.1702 28.3887 53.2602 29.3136 52.0966C30.3082 50.8535 31.3673 48.3921 30.4872 47.0595C29.5722 45.6771 27.981 44.9361 26.2903 44.1505C25.793 43.9168 25.2759 43.6781 24.7836 43.4195C22.8592 42.4151 20.4276 40.2321 19.6469 37.8254C19.5872 37.6414 19.5375 37.4624 19.5027 37.2784C19.1098 35.4236 19.4678 33.2058 20.4624 31.3461C21.0243 30.2969 21.9492 29.6156 22.8443 28.9592C23.7244 28.3128 24.5548 27.6962 24.8482 26.8359C25.5693 24.6977 22.0287 21.938 19.9402 21.207C16.718 20.0832 12.5957 20.665 9.43807 22.6888C8.30431 23.4198 7.3595 24.2452 6.62852 25.1552C6.32519 25.5282 5.77821 25.5878 5.40526 25.2895C5.03231 24.9862 4.97265 24.4392 5.271 24.0662C6.11635 23.012 7.20037 22.0573 8.49325 21.2269C12.0785 18.9196 16.7975 18.2682 20.5071 19.5611C23.2769 20.5307 27.6428 23.9717 26.4942 27.3879C26.0267 28.7752 24.883 29.6156 23.8736 30.3565C23.1028 30.9234 22.3719 31.4654 21.9939 32.1666C21.1983 33.6484 20.895 35.4733 21.2033 36.9204C21.2281 37.0447 21.263 37.164 21.3027 37.2883C21.8995 39.1282 23.9581 41.0277 25.5891 41.878C26.0466 42.1167 26.524 42.3405 27.0262 42.5742C28.8611 43.4295 30.7557 44.3146 31.9392 46.0997C33.4011 48.3075 31.9839 51.5447 30.6712 53.1856C29.1893 55.0404 26.5588 55.9156 24.7537 56.0996C24.4007 56.1344 24.0526 56.1543 23.7045 56.1543L23.7095 56.1493Z" fill="#333333"/>
<path d="M26.9814 47.7798C26.8273 46.4571 25.1217 45.5521 23.1724 45.751C21.2231 45.9499 19.7711 47.1782 19.9253 48.5009C20.0794 49.8236 21.785 50.7286 23.7343 50.5297C25.6836 50.3308 27.1356 49.1025 26.9814 47.7798Z" fill="white"/>
<path d="M23.2018 51.425C20.994 51.425 19.2536 50.2365 19.0646 48.5956C18.9801 47.8795 19.1989 47.1684 19.7011 46.5469C20.4271 45.6468 21.6901 45.0203 23.0874 44.8811C25.5688 44.6324 27.6374 45.8855 27.8463 47.6756C27.9308 48.3917 27.712 49.1028 27.2098 49.7243C26.4838 50.6293 25.2207 51.2509 23.8184 51.3951C23.6096 51.415 23.4007 51.425 23.1968 51.425H23.2018ZM23.7041 46.5916C23.5598 46.5916 23.4107 46.5966 23.2615 46.6165C22.3316 46.711 21.4863 47.1038 21.0536 47.6408C20.8498 47.8944 20.7603 48.148 20.7901 48.3966C20.8846 49.1923 22.2123 49.8089 23.6444 49.6647C24.5743 49.5702 25.4196 49.1774 25.8522 48.6403C26.0561 48.3867 26.1456 48.1331 26.1158 47.8845C26.0312 47.1734 24.9522 46.5966 23.7041 46.5966V46.5916Z" fill="#333333"/>
<path d="M23.0309 30.1425C22.6779 30.1425 22.3447 29.9287 22.2154 29.5757C21.2358 26.965 19.5451 25.3639 17.1831 24.8119C14.2791 24.1356 11.2906 25.3042 10.853 25.6871C10.5646 26.0451 10.0425 26.1197 9.66453 25.8462C9.27667 25.5628 9.18715 25.0208 9.47059 24.6329C10.1568 23.6831 13.5631 22.5295 16.6859 22.9522C19.0429 23.2704 22.2005 24.5683 23.8464 28.964C24.0155 29.4116 23.7868 29.9138 23.3392 30.0829C23.2398 30.1226 23.1354 30.1376 23.0359 30.1376L23.0309 30.1425Z" fill="#333333"/>
<path d="M54.6788 21.953C51.5112 19.9142 47.0955 19.0987 43.4207 20.3816C40.9991 21.227 37.0309 24.3199 37.9707 27.1095C38.6768 29.198 41.3919 29.8544 42.4113 31.7589C43.2516 33.3352 43.6544 35.364 43.2865 37.1044C43.2566 37.2536 43.2119 37.4077 43.1621 37.5569C42.4958 39.6056 40.3228 41.6742 38.4481 42.6488C36.3347 43.7527 33.7738 44.5384 32.4213 46.5822C31.2676 48.3275 32.466 51.1719 33.6445 52.6437C34.8131 54.1057 37.0508 55.0355 38.9702 55.2344C42.0831 55.5527 45.1562 54.3195 47.3192 51.6293C48.9204 49.6403 49.7111 47.1888 51.3173 45.1998C53.7041 42.2411 57.1899 40.3963 58.7414 36.9652L59.6713 33.6435C59.8055 32.8628 59.8801 32.102 59.8901 31.3611C59.9497 27.6217 58.4281 24.3746 54.6638 21.953H54.6788Z" fill="white"/>
<path d="M39.9414 56.1497C39.5933 56.1497 39.2452 56.1298 38.8922 56.095C37.0871 55.911 34.4516 55.0358 32.9698 53.181C31.662 51.5451 30.2448 48.3029 31.7017 46.0951C32.8852 44.305 34.7798 43.4248 36.6147 42.5695C37.1169 42.3358 37.5943 42.1121 38.0518 41.8734C39.6878 41.0231 41.7415 39.1235 42.3382 37.2837C42.378 37.1644 42.4128 37.04 42.4377 36.9207C42.746 35.4687 42.4376 33.6487 41.647 32.1619C41.2691 31.4608 40.5431 30.9188 39.7673 30.3519C38.7579 29.606 37.6142 28.7657 37.1468 27.3833C35.9931 23.9671 40.3641 20.5211 43.1338 19.5564C46.8484 18.2586 51.5624 18.915 55.1477 21.2223C58.9517 23.6688 60.8413 27.0849 60.7717 31.3763C60.7568 32.152 60.6822 32.9625 60.538 33.7929C60.4584 34.2653 60.0059 34.5836 59.5335 34.504C59.0611 34.4245 58.7429 33.972 58.8224 33.4996C58.9467 32.7587 59.0164 32.0376 59.0313 31.3514C59.091 27.6518 57.5146 24.8174 54.2079 22.6892C51.0552 20.6604 46.9329 20.0786 43.7057 21.2073C41.6172 21.9383 38.0767 24.6981 38.7977 26.8363C39.0911 27.7015 39.9215 28.3132 40.8016 28.9596C41.6967 29.616 42.6216 30.2972 43.1836 31.3514C44.1781 33.2112 44.5361 35.4289 44.1433 37.2887C44.1085 37.4677 44.0587 37.6467 43.999 37.8307C43.2183 40.2424 40.7867 42.4204 38.8623 43.4248C38.37 43.6834 37.8529 43.9221 37.3556 44.1558C35.6699 44.9415 34.0737 45.6873 33.1587 47.0647C32.2786 48.3974 33.3377 50.8588 34.3323 52.102C35.2622 53.2656 37.1617 54.1755 39.0712 54.3695C41.9652 54.6629 44.735 53.4645 46.6544 51.0826C47.4053 50.1527 47.9672 49.1085 48.559 48.0046C49.1656 46.8758 49.7971 45.7122 50.6524 44.6531C51.6221 43.4547 52.7509 42.4403 53.8399 41.4607C55.5107 39.9639 57.087 38.5467 57.9622 36.6124C58.1611 36.1748 58.6733 35.9809 59.1158 36.1798C59.5534 36.3787 59.7473 36.8958 59.5484 37.3334C58.5241 39.6009 56.7339 41.2071 55.0035 42.7635C53.9642 43.6983 52.8851 44.663 52.005 45.757C51.2491 46.6918 50.6872 47.7361 50.0905 48.8449C49.4838 49.9687 48.8573 51.1323 48.007 52.1865C45.9433 54.7524 43.0443 56.1646 39.9364 56.1646L39.9414 56.1497Z" fill="#333333"/>
<path d="M36.6675 47.7808C36.8216 46.4581 38.5272 45.5531 40.4765 45.752C42.4258 45.9509 43.8778 47.1791 43.7236 48.5018C43.5695 49.8245 41.8639 50.7296 39.9146 50.5307C37.9653 50.3318 36.5133 49.1035 36.6675 47.7808Z" fill="white"/>
<path d="M40.451 51.426C40.2471 51.426 40.0383 51.416 39.8294 51.3961C38.4321 51.2519 37.1641 50.6304 36.443 49.7303C35.9458 49.1087 35.722 48.3977 35.8065 47.6816C36.0154 45.8915 38.079 44.6334 40.5653 44.887C41.9626 45.0312 43.2307 45.6528 43.9567 46.5528C44.4539 47.1744 44.6777 47.8855 44.5932 48.6015C44.3992 50.2375 42.6588 51.426 40.451 51.426ZM39.9438 46.5926C38.6956 46.5926 37.6166 47.1694 37.532 47.8805C37.5022 48.1291 37.5917 48.3827 37.7956 48.6363C38.2282 49.1734 39.0736 49.5662 40.0034 49.6607C41.4405 49.8099 42.7682 49.1883 42.8577 48.3927C42.8876 48.1441 42.7981 47.8905 42.5942 47.6369C42.1616 47.0998 41.3162 46.707 40.3863 46.6125C40.2372 46.5976 40.088 46.5876 39.9438 46.5876V46.5926Z" fill="#333333"/>
<path d="M40.6134 30.1428C40.514 30.1428 40.4096 30.1229 40.3051 30.0881C39.8576 29.919 39.6289 29.4168 39.7979 28.9693C41.4488 24.5735 44.6065 23.2707 46.9635 22.9574C50.0813 22.5397 53.4876 23.6884 54.1738 24.6382C54.4572 25.026 54.3677 25.573 53.9799 25.8515C53.6019 26.125 53.0798 26.0504 52.7914 25.6923C52.3488 25.3095 49.3653 24.1409 46.4613 24.8172C44.1042 25.3691 42.4086 26.9703 41.429 29.5809C41.2997 29.929 40.9665 30.1428 40.6134 30.1428Z" fill="#333333"/>
<path d="M12.7468 46.598C12.7468 43.8482 11.1605 41.9785 9.2013 41.9785H4.86517C2.90595 41.9785 0.867188 42.8835 0.867188 46.598C0.867188 49.875 2.96065 49.5468 3.77616 52.1524C4.47233 54.3801 4.29332 59.1339 4.29332 59.1339H9.77812C9.77812 59.1339 9.65878 54.7133 10.2953 52.5602C11.071 49.9297 12.7468 48.8954 12.7468 46.5931V46.598Z" fill="white"/>
<path d="M4.29634 60.0033C4.29634 60.0033 4.27645 60.0033 4.26153 60.0033C3.77918 59.9834 3.40624 59.5806 3.42613 59.0983C3.42613 59.0536 3.59023 54.4688 2.94876 52.4102C2.66532 51.5052 2.21281 51.0527 1.69069 50.5256C0.900042 49.7349 0 48.8349 0 46.5923C0 43.1015 1.77522 41.1025 4.86819 41.1025H9.20432C11.7205 41.1025 13.62 43.4645 13.62 46.5923C13.62 48.1388 12.9736 49.2128 12.347 50.2571C11.8995 51.003 11.437 51.7737 11.1287 52.803C10.542 54.797 10.6464 59.0635 10.6464 59.1033C10.6613 59.5856 10.2784 59.9834 9.80104 59.9983C9.31869 60.0182 8.92087 59.6353 8.90596 59.153C8.90098 58.969 8.79159 54.5683 9.45793 52.3108C9.8259 51.0676 10.3729 50.1576 10.8503 49.357C11.4221 48.4073 11.8746 47.6564 11.8746 46.5923C11.8746 44.4541 10.726 42.8429 9.19936 42.8429H4.86323C2.72997 42.8429 1.73544 44.0364 1.73544 46.5923C1.73544 48.1139 2.2327 48.6112 2.91395 49.2974C3.4858 49.8692 4.19192 50.5753 4.59968 51.893C5.33065 54.2351 5.16158 58.964 5.15163 59.163C5.13174 59.6304 4.74885 59.9983 4.28142 59.9983L4.29634 60.0033Z" fill="#333333"/>
<path d="M63.4499 46.598C63.4499 43.8482 61.8636 41.9785 59.9044 41.9785H55.5683C53.6091 41.9785 51.5703 42.8835 51.5703 46.598C51.5703 49.875 53.6638 49.5468 54.4793 52.1524C55.1755 54.3801 54.9965 59.1339 54.9965 59.1339H60.4813C60.4813 59.1339 60.3619 54.7133 60.9984 52.5602C61.7741 49.9297 63.4499 48.8954 63.4499 46.5931V46.598Z" fill="white"/>
<path d="M60.4814 60.0042C60.014 60.0042 59.6261 59.6312 59.6112 59.1589C59.6063 58.9749 59.4919 54.5741 60.1632 52.3166C60.5312 51.0734 61.0781 50.1635 61.5555 49.3629C62.1274 48.4131 62.5799 47.6622 62.5799 46.5981C62.5799 44.4599 61.4312 42.8488 59.9046 42.8488H55.5685C53.4352 42.8488 52.4407 44.0422 52.4407 46.5981C52.4407 48.1197 52.938 48.617 53.6192 49.3032C54.1911 49.875 54.8972 50.5812 55.3099 51.8989C56.0409 54.241 55.8718 58.9699 55.8618 59.1688C55.842 59.6511 55.4392 60.0191 54.9568 60.0042C54.4745 59.9843 54.1015 59.5815 54.1214 59.0992C54.1214 59.0544 54.2905 54.4697 53.6441 52.4111C53.3606 51.5061 52.9081 51.0536 52.386 50.5314C51.5953 49.7408 50.6953 48.8407 50.6953 46.5981C50.6953 43.1074 52.4705 41.1084 55.5635 41.1084H59.8996C62.4158 41.1084 64.3153 43.4704 64.3153 46.5981C64.3153 48.1446 63.6689 49.2187 63.0423 50.2629C62.5948 51.0088 62.1324 51.7796 61.824 52.8089C61.2323 54.8079 61.3417 59.0694 61.3467 59.1091C61.3616 59.5915 60.9837 59.9893 60.5013 60.0042C60.4914 60.0042 60.4864 60.0042 60.4765 60.0042H60.4814Z" fill="#333333"/>
<path d="M45 4.93186H49.182V0.754883H53.9756V4.93186H58.1526V9.72543H53.9756V13.9074H49.182V9.72543H45V4.93186Z" fill="#9CD6B4"/>
<path d="M53.9743 14.6531H49.1807C48.768 14.6531 48.4348 14.3199 48.4348 13.9072V10.4712H45.0037C44.591 10.4712 44.2578 10.138 44.2578 9.72529V4.93172C44.2578 4.51899 44.591 4.18583 45.0037 4.18583H48.4348V0.749793C48.4348 0.337069 48.768 0.00390625 49.1807 0.00390625H53.9743C54.387 0.00390625 54.7202 0.337069 54.7202 0.749793V4.18583H58.1513C58.5641 4.18583 58.8972 4.51899 58.8972 4.93172V9.72529C58.8972 10.138 58.5641 10.4712 58.1513 10.4712H54.7202V13.9072C54.7202 14.3199 54.387 14.6531 53.9743 14.6531ZM49.9266 13.1613H53.2284V9.72529C53.2284 9.31257 53.5616 8.97941 53.9743 8.97941H57.4054V5.67761H53.9743C53.5616 5.67761 53.2284 5.34444 53.2284 4.93172V1.49568H49.9266V4.93172C49.9266 5.34444 49.5934 5.67761 49.1807 5.67761H45.7496V8.97941H49.1807C49.5934 8.97941 49.9266 9.31257 49.9266 9.72529V13.1613Z" fill="#333333"/>
</svg>
