<svg preserveAspectRatio="none" viewBox="0 0 122 122" fill="none" xmlns="http://www.w3.org/2000/svg">
<circle cx="60.5661" cy="60.5661" r="60.5661" fill="#EAF5EF"/>
<path d="M65.0438 94.2942C64.9346 94.2942 64.8198 94.2942 64.7105 94.2942H64.492H64.2898C64.1149 94.2942 63.9346 94.3161 63.7762 94.2778C54.9026 94.0483 42.9255 92.3873 39.7837 81.0986C36.4616 80.1697 30.3637 73.908 29.0032 65.7939C28.4022 62.204 27.9432 60.2807 24.1894 55.7729C23.9872 55.527 23.9435 55.1883 24.0746 54.8987C24.2112 54.6091 24.5009 54.4287 24.8178 54.4287H30.4129C30.5167 54.4287 30.626 54.4506 30.7244 54.4889C30.861 54.5435 34.112 55.915 35.6693 60.4665C36.6364 63.2968 38.6964 65.63 40.7454 66.3075C41.2644 64.7011 41.86 63.2203 42.4884 61.6685C43.0239 60.3353 43.5812 58.9584 44.1221 57.4176C44.2696 56.9914 44.7396 56.7673 45.1657 56.9149C45.5919 57.0624 45.816 57.5323 45.6684 57.9585C45.1166 59.5322 44.5538 60.9309 44.0074 62.2805C43.3025 64.0345 42.6359 65.6901 42.0841 67.5151C41.9693 67.903 41.5814 68.1543 41.177 68.0888C37.8221 67.5861 35.1666 64.0563 34.1175 60.991C32.9646 57.6252 30.7845 56.3412 30.2381 56.0625H26.5335C29.5714 59.9857 30.0468 62.1057 30.6205 65.5152C31.9756 73.591 38.3084 79.3883 40.5104 79.5687C40.8601 79.596 41.1552 79.8473 41.2371 80.1861C43.2643 88.3548 50.4932 92.3108 63.9729 92.6331C64.0166 92.6331 64.0658 92.6386 64.1095 92.6495H64.4865H64.8799C64.9236 92.6386 64.9673 92.6331 65.011 92.6331C74.0649 92.4146 80.5726 90.2836 84.3482 86.3004C87.1567 83.3334 88.5008 79.2517 88.3478 74.1702C88.2604 71.2852 86.4081 66.2638 84.4465 60.9418C83.7635 59.0841 83.0532 57.1662 82.403 55.2921C82.2555 54.8659 82.4795 54.396 82.9112 54.2484C83.3374 54.1009 83.8072 54.325 83.9548 54.7566C84.5995 56.6144 85.3044 58.5267 85.9874 60.3736C87.9981 65.8212 89.8942 70.9628 89.9871 74.1156C90.1564 79.6506 88.6593 84.1311 85.5394 87.4259C81.4741 91.7152 74.6386 94.021 65.2132 94.2669C65.1531 94.2778 65.093 94.2888 65.0329 94.2888L65.0438 94.2942Z" fill="#018C3B"/>
<path d="M84.0948 70.5455C83.7396 70.5455 83.4118 70.3106 83.3079 69.95C82.5922 67.4201 81.5376 64.333 80.7016 61.9288C80.5541 61.5027 80.7781 61.0327 81.2043 60.8852C81.6305 60.7377 82.1004 60.9617 82.2479 61.3879C83.0894 63.8139 84.1549 66.9339 84.8816 69.502C85.0072 69.9391 84.7504 70.3926 84.3188 70.5128C84.2423 70.5346 84.1713 70.5455 84.0948 70.5455Z" fill="#018C3B"/>
<path d="M85.0223 75.0899C84.5797 75.0899 84.2191 74.7402 84.2027 74.2922C84.1918 73.9206 84.1262 73.4234 84.0115 72.8169C83.924 72.3743 84.2191 71.9426 84.6617 71.8552C85.0988 71.7678 85.5359 72.0629 85.6233 72.5055C85.7599 73.2048 85.831 73.7731 85.8419 74.243C85.8528 74.6965 85.4977 75.0735 85.0441 75.0845C85.0387 75.0845 85.0278 75.0845 85.0223 75.0845V75.0899Z" fill="#018C3B"/>
<path d="M85.7131 56.1271C82.768 56.1271 81.2217 55.1381 79.8612 54.2639C78.5717 53.4388 77.3587 52.6574 74.8889 52.6574C72.4192 52.6574 71.2117 53.4388 69.9221 54.2639C68.5616 55.1381 67.0153 56.1271 64.0757 56.1271C61.136 56.1271 59.5842 55.1381 58.2237 54.2639C56.9342 53.4388 55.7212 52.6574 53.2569 52.6574C50.7926 52.6574 49.5796 53.4388 48.2901 54.2639C46.9296 55.1381 45.3833 56.1271 42.4382 56.1271C42.1486 56.1271 41.8754 55.9741 41.7278 55.7173C41.5803 55.466 41.5803 55.1545 41.7278 54.8977L46.3941 46.6853V45.2592C46.3941 43.1555 48.1043 41.4453 50.208 41.4453H78.0253C80.1289 41.4453 81.8392 43.1555 81.8392 45.2592V46.9039C81.8392 47.3574 81.4731 47.7235 81.0196 47.7235H50.2736C49.82 47.7235 49.454 47.3574 49.454 46.9039C49.454 46.4503 49.82 46.0843 50.2736 46.0843H80.2V45.2592C80.2 44.0626 79.2274 43.0845 78.0253 43.0845H50.208C49.0114 43.0845 48.0333 44.0571 48.0333 45.2592V46.9039C48.0333 47.0459 47.9951 47.188 47.924 47.3082L43.908 54.3731C45.4434 54.1327 46.405 53.5207 47.405 52.876C48.7655 52.0017 50.3118 51.0127 53.2569 51.0127C56.202 51.0127 57.7483 52.0017 59.1089 52.876C60.3984 53.7011 61.6114 54.4824 64.0757 54.4824C66.5399 54.4824 67.7529 53.7011 69.0424 52.876C70.403 52.0017 71.9493 51.0127 74.8944 51.0127C77.8395 51.0127 79.3858 52.0017 80.7518 52.876C81.7244 53.4989 82.6533 54.0945 84.1122 54.3513L81.0523 49.7232C80.801 49.3462 80.9048 48.8381 81.2818 48.5868C81.6589 48.3354 82.167 48.4392 82.4183 48.8163L86.4016 54.8485C86.5655 55.0998 86.5819 55.4222 86.4399 55.69C86.2978 55.9577 86.0191 56.1217 85.7186 56.1217L85.7131 56.1271Z" fill="#018C3B"/>
<path d="M57.3274 38.0869C56.8739 38.0869 56.5078 37.7208 56.5078 37.2673C56.5078 36.18 56.9231 35.6063 57.2509 35.1473C57.5132 34.7812 57.688 34.5408 57.688 33.9889C57.688 33.4371 57.5132 33.1912 57.2509 32.8251C56.9176 32.3661 56.5078 31.7924 56.5078 30.705C56.5078 29.6177 56.9231 29.044 57.2509 28.585C57.5132 28.2189 57.688 27.9785 57.688 27.4212C57.688 26.9677 58.0541 26.6016 58.5076 26.6016C58.9612 26.6016 59.3272 26.9677 59.3272 27.4212C59.3272 28.5085 58.912 29.0822 58.5841 29.5412C58.3219 29.9073 58.147 30.1477 58.147 30.705C58.147 31.2624 58.3219 31.5028 58.5841 31.8689C58.9174 32.3279 59.3272 32.9016 59.3272 33.9889C59.3272 35.0763 58.912 35.65 58.5841 36.109C58.3219 36.4751 58.147 36.7155 58.147 37.2728C58.147 37.7263 57.7809 38.0924 57.3274 38.0924V38.0869Z" fill="#018C3B"/>
<path d="M63.3977 37.4908C62.9442 37.4908 62.5781 37.1247 62.5781 36.6712C62.5781 35.5839 62.9934 35.0101 63.3212 34.5512C63.5835 34.1851 63.7584 33.9447 63.7584 33.3874C63.7584 32.83 63.5835 32.5896 63.3212 32.2235C62.9879 31.7645 62.5781 31.1908 62.5781 30.1035C62.5781 29.0161 62.9934 28.4424 63.3212 27.9834C63.5835 27.6174 63.7584 27.3769 63.7584 26.8196C63.7584 26.3661 64.1244 26 64.578 26C65.0315 26 65.3976 26.3661 65.3976 26.8196C65.3976 27.9069 64.9823 28.4807 64.6545 28.9396C64.3922 29.3057 64.2173 29.5462 64.2173 30.1035C64.2173 30.6608 64.3922 30.9012 64.6545 31.2673C64.9878 31.7263 65.3976 32.3 65.3976 33.3874C65.3976 34.4747 64.9823 35.0484 64.6545 35.5074C64.3922 35.8735 64.2173 36.1139 64.2173 36.6712C64.2173 37.1247 63.8512 37.4908 63.3977 37.4908Z" fill="#018C3B"/>
<path d="M69.4641 37.7916C69.0106 37.7916 68.6445 37.4255 68.6445 36.972C68.6445 35.8901 69.0598 35.3109 69.3876 34.8519C69.6499 34.4859 69.8248 34.2454 69.8248 33.6881C69.8248 33.1308 69.6499 32.8904 69.3876 32.5243C69.0543 32.0653 68.6445 31.4916 68.6445 30.4042C68.6445 29.3169 69.0598 28.7432 69.3876 28.2842C69.6499 27.9181 69.8248 27.6777 69.8248 27.1204C69.8248 26.6669 70.1908 26.3008 70.6444 26.3008C71.0979 26.3008 71.464 26.6669 71.464 27.1204C71.464 28.2077 71.0487 28.7814 70.7209 29.2404C70.4586 29.6065 70.2837 29.8469 70.2837 30.4042C70.2837 30.9616 70.4586 31.202 70.7209 31.5681C71.0542 32.027 71.464 32.6008 71.464 33.6881C71.464 34.7754 71.0487 35.3492 70.7209 35.8081C70.4586 36.1742 70.2837 36.4147 70.2837 36.9665C70.2837 37.42 69.9176 37.7861 69.4641 37.7861V37.7916Z" fill="#018C3B"/>
</svg>
