<svg preserveAspectRatio="none" viewBox="0 0 122 122" fill="none" xmlns="http://www.w3.org/2000/svg">
<circle cx="60.5661" cy="60.5661" r="60.5661" fill="#EAF5EF"/>
<path d="M61.51 85.1572C58.322 85.1572 55.3644 84.9097 52.7161 84.4149C52.2607 84.3306 51.9571 83.892 52.0414 83.431C52.1258 82.9755 52.5643 82.6719 53.0254 82.7563C55.5725 83.2286 58.4232 83.4704 61.51 83.4704C64.372 83.4704 67.0653 83.2398 69.5111 82.7843C69.9722 82.6944 70.4108 83.0037 70.4951 83.4591C70.5795 83.9145 70.2759 84.3587 69.8204 84.4431C67.2733 84.9154 64.4788 85.1572 61.51 85.1572Z" fill="#018C3B"/>
<path d="M71.445 90.2812H51.0795C49.1341 90.2812 47.5541 88.7013 47.5541 86.7558V82.9998C35.9038 79.1539 30 69.3085 30 53.728C30 53.2613 30.3767 52.8846 30.8434 52.8846H64.9114L75.6283 33.5425C77.3713 30.4612 81.2903 29.3704 84.366 31.1078C85.856 31.9512 86.9299 33.3232 87.3854 34.9707C87.8464 36.6181 87.6328 38.3499 86.7893 39.8399L80.2108 51.3721C79.9802 51.7769 79.463 51.9175 79.0581 51.687C78.6533 51.4564 78.5127 50.9391 78.7433 50.5343L85.3218 39.0077C85.9403 37.9113 86.0977 36.6406 85.7604 35.4204C85.423 34.2059 84.6302 33.1939 83.5338 32.5754C81.2678 31.2934 78.3778 32.0974 77.0958 34.3634L66.1427 54.1328C65.9966 54.4027 65.7098 54.5658 65.4062 54.5658H31.6868C31.8892 69.1961 37.3658 78.0125 48.42 81.5042C48.6337 81.5098 48.8305 81.5998 48.9823 81.7459C49.1453 81.9034 49.2353 82.1227 49.2353 82.3476V86.7502C49.2353 87.7623 50.0562 88.5888 51.0739 88.5888H71.4394C72.4515 88.5888 73.2723 87.7679 73.2723 86.7502V82.2295C73.2723 82.2014 73.2723 82.1677 73.2723 82.1396C73.2723 81.6785 73.6435 81.3018 74.1101 81.2962H74.3126C85.0576 77.6021 90.6128 68.6113 90.8264 54.5658H70.2867C69.82 54.5658 69.4433 54.1891 69.4433 53.7224C69.4433 53.2557 69.82 52.879 70.2867 52.879H91.6755C92.1422 52.879 92.5189 53.2557 92.5189 53.7224C92.5189 69.0049 86.615 78.8053 74.9648 82.8536V86.7502C74.9648 88.6956 73.3848 90.2756 71.445 90.2756V90.2812Z" fill="#018C3B"/>
<path d="M62.4772 52.1036C60.1943 52.1036 54.5997 51.7213 51.9008 48.1734C48.516 43.7202 51.1249 36.2757 51.2373 35.9609C51.3498 35.646 51.6366 35.4266 51.9683 35.4042C51.9683 35.4042 60.1156 34.7801 63.5567 39.3064C66.9416 43.7539 64.3326 51.204 64.2202 51.5189C64.1077 51.8337 63.821 52.053 63.4892 52.0755C63.4892 52.0755 63.1069 52.1036 62.4715 52.1036H62.4772ZM52.6543 37.0629C52.1538 38.7553 50.8775 44.0406 53.239 47.15C55.4769 50.0963 60.4417 50.4112 62.4715 50.4112C62.5896 50.4112 62.702 50.4112 62.7976 50.4112C63.2924 48.7188 64.5744 43.4334 62.2072 40.324C59.8345 37.2034 54.4142 37.0292 52.6486 37.0629H52.6543Z" fill="#018C3B"/>
<path d="M62.7825 51.5858C62.5126 51.5858 62.254 51.4565 62.0909 51.2204L55.04 41.0433C54.7757 40.6609 54.8713 40.1324 55.2537 39.8681C55.636 39.6039 56.159 39.6995 56.4288 40.0818L63.4797 50.2589C63.744 50.6412 63.6484 51.1698 63.266 51.434C63.1198 51.5352 62.9512 51.5858 62.7881 51.5858H62.7825Z" fill="#018C3B"/>
</svg>
