<svg preserveAspectRatio="none" viewBox="0 0 122 122" fill="none" xmlns="http://www.w3.org/2000/svg">
<circle cx="60.5661" cy="60.5661" r="60.5661" fill="#EAF5EF"/>
<path d="M82.7746 91.0007H39.6174C35.9692 91.0007 33 88.0315 33 84.3833V80.5452C33 78.0824 34.3523 75.9303 36.3548 74.7909C34.3523 73.6516 33 71.4994 33 69.0366V65.1985C33 62.7356 34.3523 60.5835 36.3548 59.4442C34.3523 58.3048 33 56.1527 33 53.6899V49.8518C33 46.2036 35.9692 43.2344 39.6174 43.2344H82.7746C86.4229 43.2344 89.3921 46.2036 89.3921 49.8518V53.6899C89.3921 56.1527 88.0398 58.3048 86.0373 59.4442C88.0398 60.5835 89.3921 62.7356 89.3921 65.1985V69.0366C89.3921 71.4994 88.0398 73.6516 86.0373 74.7909C88.0398 75.9303 89.3921 78.0824 89.3921 80.5452V84.3833C89.3921 88.0315 86.4229 91.0007 82.7746 91.0007ZM40.4806 74.7909C40.4806 75.2685 40.095 75.654 39.6174 75.654C36.9187 75.654 34.7263 77.8464 34.7263 80.5452V84.3833C34.7263 87.082 36.9187 89.2744 39.6174 89.2744H82.7746C85.4734 89.2744 87.6658 87.082 87.6658 84.3833V80.5452C87.6658 77.8464 85.4734 75.654 82.7746 75.654C82.297 75.654 81.9115 75.2685 81.9115 74.7909C81.9115 74.3133 82.297 73.9278 82.7746 73.9278C85.4734 73.9278 87.6658 71.7354 87.6658 69.0366V65.1985C87.6658 62.4997 85.4734 60.3073 82.7746 60.3073C82.297 60.3073 81.9115 59.9218 81.9115 59.4442C81.9115 58.9666 82.297 58.581 82.7746 58.581C85.4734 58.581 87.6658 56.3886 87.6658 53.6899V49.8518C87.6658 47.153 85.4734 44.9607 82.7746 44.9607H39.6174C36.9187 44.9607 34.7263 47.153 34.7263 49.8518V53.6899C34.7263 56.3886 36.9187 58.581 39.6174 58.581C40.095 58.581 40.4806 58.9666 40.4806 59.4442C40.4806 59.9218 40.095 60.3073 39.6174 60.3073C36.9187 60.3073 34.7263 62.4997 34.7263 65.1985V69.0366C34.7263 71.7354 36.9187 73.9278 39.6174 73.9278C40.095 73.9278 40.4806 74.3133 40.4806 74.7909Z" fill="#018C3B"/>
<path d="M55.8443 42.6678C53.6117 42.6678 52.0753 42.3801 51.1431 41.7989C48.4156 40.0784 47.5984 36.459 49.319 33.7315C50.395 32.0224 52.2479 31.0039 54.2677 31.0039C55.3725 31.0039 56.4485 31.3146 57.3865 31.9073C59.9184 33.507 62.0014 40.3431 62.2259 41.1142C62.2949 41.3501 62.2604 41.6091 62.128 41.822C61.9957 42.0349 61.777 42.173 61.5353 42.2133C61.4145 42.2306 58.6007 42.6736 55.8386 42.6736L55.8443 42.6678ZM54.2734 32.7245C52.8464 32.7245 51.5401 33.4437 50.7806 34.6464C49.5664 36.5683 50.1418 39.1232 52.0638 40.3374C52.4205 40.5618 53.3873 40.9415 55.8386 40.9415C57.5016 40.9415 59.2221 40.769 60.2694 40.6366C59.3775 37.9321 57.7951 34.1976 56.4658 33.3632C55.8041 32.9489 55.0445 32.7245 54.2677 32.7245H54.2734Z" fill="#018C3B"/>
<path d="M66.7384 42.6697C63.9763 42.6697 61.1625 42.2267 61.0417 42.2094C60.7942 42.1691 60.5813 42.0252 60.449 41.8181C60.3166 41.6052 60.2821 41.352 60.3511 41.1103C60.5813 40.3392 62.6586 33.5031 65.1905 31.9034C66.1285 31.3107 67.2045 31 68.3093 31C70.3291 31 72.182 32.0185 73.258 33.7276C74.9786 36.4551 74.1614 40.0746 71.4339 41.7951C70.5075 42.382 68.9711 42.6639 66.7384 42.6639V42.6697ZM62.3019 40.6385C63.3491 40.7651 65.0754 40.9434 66.7327 40.9434C69.184 40.9434 70.1507 40.5637 70.5075 40.3392C72.4294 39.1251 73.0048 36.5759 71.7907 34.6482C71.0311 33.4456 69.7249 32.7263 68.2978 32.7263C67.521 32.7263 66.7614 32.945 66.0997 33.365C64.7704 34.2052 63.188 37.934 62.2961 40.6385H62.3019Z" fill="#018C3B"/>
<path d="M79.179 59.7614H43.2147C42.7371 59.7614 42.3516 59.3759 42.3516 58.8983C42.3516 58.4207 42.7371 58.0352 43.2147 58.0352H79.179C79.6567 58.0352 80.0422 58.4207 80.0422 58.8983C80.0422 59.3759 79.6567 59.7614 79.179 59.7614Z" fill="#018C3B"/>
<path d="M60.91 87.7358C60.4324 87.7358 60.0469 87.3503 60.0469 86.8727V39.9061C60.0469 39.4285 60.4324 39.043 60.91 39.043C61.3876 39.043 61.7732 39.4285 61.7732 39.9061V86.8727C61.7732 87.3503 61.3876 87.7358 60.91 87.7358Z" fill="#018C3B"/>
</svg>
