<svg preserveAspectRatio="none" viewBox="0 0 40 41" fill="none" xmlns="http://www.w3.org/2000/svg">
<path d="M8.55601 5.25204C9.23476 5.25204 10.0493 5.52354 10.6375 6.42852C12.2665 8.87196 13.8503 11.1797 14.71 12.7181C15.0268 13.2611 15.2983 14.7543 14.348 15.8403C13.5335 16.7905 12.7643 17.0168 12.357 17.6955C12.0403 18.148 11.7235 19.234 12.2665 20.4104C12.9453 21.8584 13.805 23.0349 15.615 24.8901C17.4703 26.7 18.6468 27.5598 20.0948 28.2385C20.5473 28.4647 20.9998 28.5552 21.407 28.5552C22.0405 28.5552 22.5383 28.3742 22.8098 28.148C23.4885 27.6955 23.7148 26.9715 24.665 26.157C25.208 25.6593 25.8868 25.4783 26.475 25.4783C27.018 25.4783 27.5158 25.6141 27.742 25.7498C29.3258 26.6095 31.5882 28.1932 34.0317 29.8222C35.7512 30.9534 35.1178 32.7634 34.8915 33.3064C34.6653 33.8494 33.3983 35.7498 30.7738 37.1073C30.0498 37.4693 29.0542 37.6955 27.923 37.6955C24.2577 37.6955 18.511 35.4331 11.7688 28.6457C2.85453 19.7317 1.76851 12.6276 3.35226 9.59594C4.75501 6.92626 6.61027 5.70453 7.15327 5.47829C7.42477 5.43304 7.96776 5.25204 8.55601 5.25204ZM8.55601 2.53711C7.51526 2.53711 6.61026 2.8086 6.06726 3.08009C4.98126 3.53258 2.62828 5.2068 0.908777 8.46472C-1.21797 12.4919 -0.131994 20.7272 9.823 30.6819C18.3752 39.234 24.846 40.5009 27.923 40.5009C29.5067 40.5009 30.8643 40.1842 32.0408 39.596C35.2535 37.9217 36.9277 35.5688 37.4255 34.4376C38.5567 31.8132 37.8327 29.0982 35.6155 27.605C35.2535 27.3335 34.8462 27.1073 34.4842 26.8358C32.448 25.4783 30.5475 24.1661 29.0995 23.3969C28.3755 22.9896 27.4253 22.7634 26.475 22.7634C25.0723 22.7634 23.8505 23.2159 22.855 24.1208C22.2215 24.7091 21.8143 25.2521 21.4975 25.614C21.4523 25.6593 21.407 25.7498 21.3617 25.795C21.3165 25.795 21.2713 25.7498 21.226 25.7498C20.1853 25.2521 19.1897 24.6186 17.5155 22.9444C15.8413 21.2249 15.2078 20.2747 14.71 19.1887C14.71 19.1435 14.6648 19.0982 14.6648 19.053C14.71 19.0077 14.8005 18.9625 14.8458 18.9172C15.253 18.6005 15.796 18.1932 16.339 17.5597C18.0133 15.6593 17.968 12.9444 17.063 11.3154C16.2485 9.91268 14.9815 7.96698 13.624 5.97603C13.3525 5.61404 13.1263 5.2068 12.8548 4.84481C11.9045 3.35159 10.3208 2.53711 8.55601 2.53711Z" fill="white"/>
<path d="M39.959 17.7851H37.244C37.244 9.77602 30.728 3.26018 22.7188 3.21493V0.5C32.2212 0.5 39.959 8.23756 39.959 17.7851Z" fill="white"/>
<path d="M32.7626 17.7858H30.0476C30.0476 15.8401 29.2784 13.9849 27.8756 12.5822C26.4729 11.1795 24.6176 10.4102 22.6719 10.4102V7.69531C25.3416 7.69531 27.8756 8.73604 29.7761 10.6365C31.7219 12.5369 32.7626 15.0709 32.7626 17.7858Z" fill="white"/>
</svg>
