<svg xmlns="http://www.w3.org/2000/svg" width="32" height="32" viewBox="0 0 32 32" fill="none">
  <path d="M15.5235 9.57709C15.0521 9.01138 14.2114 8.93495 13.6457 9.40637C13.08 9.87779 13.0035 10.7185 13.475 11.2842L15.5235 9.57709ZM18.9187 15.734L19.943 16.5876C20.355 16.0931 20.355 15.3749 19.943 14.8804L18.9187 15.734ZM13.475 20.1838C13.0035 20.7495 13.08 21.5902 13.6457 22.0616C14.2114 22.5331 15.0521 22.4566 15.5235 21.8909L13.475 20.1838ZM13.475 11.2842L17.8944 16.5876L19.943 14.8804L15.5235 9.57709L13.475 11.2842ZM17.8944 14.8804L13.475 20.1838L15.5235 21.8909L19.943 16.5876L17.8944 14.8804ZM16 5.33333C21.891 5.33333 26.6667 10.109 26.6667 16H29.3333C29.3333 8.6362 23.3638 2.66667 16 2.66667V5.33333ZM26.6667 16C26.6667 21.891 21.891 26.6667 16 26.6667V29.3333C23.3638 29.3333 29.3333 23.3638 29.3333 16H26.6667ZM16 26.6667C10.109 26.6667 5.33333 21.891 5.33333 16H2.66667C2.66667 23.3638 8.6362 29.3333 16 29.3333V26.6667ZM5.33333 16C5.33333 10.109 10.109 5.33333 16 5.33333V2.66667C8.6362 2.66667 2.66667 8.6362 2.66667 16H5.33333Z" fill="white"/>
</svg>