<svg preserveAspectRatio="none" viewBox="0 0 50 50" fill="none" xmlns="http://www.w3.org/2000/svg">
<rect width="50" height="50" rx="3.6" fill="#283446"/>
<path d="M34.7094 33.29L30.9994 29.61C32.4395 27.8144 33.1369 25.5353 32.9482 23.2413C32.7595 20.9473 31.6991 18.8128 29.9849 17.2767C28.2708 15.7405 26.0332 14.9195 23.7323 14.9825C21.4315 15.0455 19.2421 15.9876 17.6146 17.6152C15.987 19.2427 15.0448 21.4321 14.9819 23.7329C14.9189 26.0338 15.7399 28.2714 17.2761 29.9855C18.8122 31.6997 20.9467 32.7601 23.2407 32.9488C25.5347 33.1375 27.8138 32.4401 29.6094 31L33.2894 34.68C33.3824 34.7738 33.493 34.8482 33.6148 34.8989C33.7367 34.9497 33.8674 34.9758 33.9994 34.9758C34.1314 34.9758 34.2621 34.9497 34.384 34.8989C34.5059 34.8482 34.6165 34.7738 34.7094 34.68C34.8897 34.4936 34.9904 34.2444 34.9904 33.985C34.9904 33.7257 34.8897 33.4765 34.7094 33.29ZM23.9994 31C22.6149 31 21.2616 30.5895 20.1104 29.8203C18.9593 29.0511 18.0621 27.9579 17.5323 26.6788C17.0024 25.3997 16.8638 23.9923 17.1339 22.6344C17.404 21.2765 18.0707 20.0292 19.0497 19.0503C20.0286 18.0713 21.2759 17.4046 22.6338 17.1345C23.9917 16.8644 25.3991 17.0031 26.6782 17.5329C27.9573 18.0627 29.0505 18.9599 29.8197 20.111C30.5889 21.2622 30.9994 22.6156 30.9994 24C30.9994 25.8565 30.2619 27.637 28.9492 28.9498C27.6364 30.2625 25.8559 31 23.9994 31Z" fill="white"/>
</svg>
