<svg preserveAspectRatio="none" viewBox="0 0 81 70" fill="none" xmlns="http://www.w3.org/2000/svg">
<mask id="mask0_907_4030" style="mask-type:alpha" maskUnits="userSpaceOnUse" x="0" y="0" width="81" height="70">
<rect x="0.335938" width="80" height="70" fill="#D9D9D9"/>
</mask>
<g mask="url(#mask0_907_4030)">
<path d="M52.6138 55.4935C59.1314 55.4935 64.415 50.2405 64.415 43.7607C64.415 37.2808 59.1314 32.0278 52.6138 32.0278C46.0961 32.0278 40.8125 37.2808 40.8125 43.7607C40.8125 50.2405 46.0961 55.4935 52.6138 55.4935Z" stroke="#00CD56" stroke-width="2" stroke-linecap="round" stroke-linejoin="round"/>
<path d="M62.7068 49.8608L70.9152 58.0216C72.0068 59.107 72.0068 60.8701 70.9152 61.9555C69.8235 63.0408 68.0501 63.0408 66.9584 61.9555L58.75 53.7947" stroke="#00CD56" stroke-width="2" stroke-linecap="round" stroke-linejoin="round"/>
<path d="M47.5361 59.9174V64.6481C47.5361 66.6906 45.8732 68.3438 43.8188 68.3438C41.7644 68.3438 40.1016 66.686 40.1016 64.6481V54.77" stroke="white" stroke-width="2" stroke-linecap="round" stroke-linejoin="round"/>
<path d="M40.0972 54.7698V64.6479C40.0972 66.6904 38.4343 68.3436 36.3799 68.3436C34.3255 68.3436 32.6627 66.6858 32.6627 64.6479V26.8574C32.6627 25.8774 31.9441 25.0439 30.9722 24.8928L11.9759 21.9664C10.4236 21.7283 9.28125 20.4002 9.28125 18.8432C9.28125 16.9839 10.8842 15.5276 12.7452 15.6924L28.7473 17.1029C31.2624 17.3228 33.7866 17.4372 36.3108 17.4372H43.9204C46.4492 17.4372 48.9735 17.3273 51.4931 17.1029L67.463 15.6924C69.324 15.5276 70.9269 16.9839 70.9269 18.8432C70.9269 20.4048 69.7846 21.7283 68.2323 21.9664L49.236 24.8928C48.2641 25.0439 47.5455 25.8774 47.5455 26.8574V28.1946" stroke="white" stroke-width="2" stroke-linecap="round" stroke-linejoin="round"/>
<path d="M40.101 12.9818C43.1513 12.9818 45.624 10.5234 45.624 7.49089C45.624 4.45836 43.1513 2 40.101 2C37.0508 2 34.5781 4.45836 34.5781 7.49089C34.5781 10.5234 37.0508 12.9818 40.101 12.9818Z" stroke="white" stroke-width="2" stroke-linecap="round" stroke-linejoin="round"/>
</g>
</svg>
