<svg preserveAspectRatio="none" viewBox="0 0 61 60" fill="none" xmlns="http://www.w3.org/2000/svg">
<mask id="mask0_485_13844" style="mask-type:alpha" maskUnits="userSpaceOnUse" x="0" y="0" width="61" height="60">
<rect x="0.25" width="60" height="60" fill="#D9D9D9"/>
</mask>
<g mask="url(#mask0_485_13844)">
<path d="M43.7372 15.5563C45.9002 14.2838 46.8853 12.3311 47.0807 10.7242C47.1808 9.90048 47.0697 9.20193 46.8405 8.74004C46.6163 8.28816 46.3188 8.11623 45.9993 8.13315L45.999 8.13317C43.41 8.26874 41.2487 8.16962 30.1328 6.75647C24.644 6.05869 21.266 6.87912 19.1363 8.0791C17.0102 9.27712 16.0616 10.8892 15.4944 11.9328L15.3874 12.1297L15.1691 12.1809C13.7465 12.514 12.7453 13.2005 12.0411 14.6106C11.3134 16.0679 10.8919 18.3204 10.7604 21.8108L10.7604 21.8109C10.6313 25.2112 11.7236 28.9192 12.9795 32.3058C13.4088 33.4633 13.8519 34.5702 14.2689 35.6117C14.4615 36.0929 14.6486 36.5602 14.8262 37.0121C15.3817 38.4261 15.8479 39.6988 16.0617 40.715L16.0617 40.7151C16.4033 42.34 16.4771 44.837 16.4504 47.1983C16.4234 49.5739 16.2935 51.8626 16.212 53.0957L16.212 53.0966C16.1978 53.3058 16.3671 53.4991 16.6071 53.4991H31.9469C32.1634 53.4991 32.3311 53.335 32.3414 53.1322C32.3415 53.1321 32.3415 53.132 32.3415 53.1319L32.8408 53.157M43.7372 15.5563L33.9902 47.7685C33.1525 48.9533 32.9101 51.7494 32.8408 53.157M43.7372 15.5563H42.9693L43.4443 16.3202L43.4443 16.3202L43.4443 16.3203L43.4444 16.3203L43.4448 16.321L43.4472 16.325L43.4578 16.3423C43.4674 16.358 43.4818 16.3817 43.5004 16.413C43.5376 16.4755 43.5917 16.5677 43.6576 16.6845C43.7897 16.9183 43.9687 17.249 44.1557 17.6352C44.5347 18.4182 44.9254 19.3875 45.0473 20.2288C45.1161 20.7041 45.2127 21.1912 45.3123 21.68C45.3253 21.7439 45.3384 21.8078 45.3514 21.8718C45.4393 22.3011 45.5275 22.7329 45.6041 23.1753C45.7796 24.1896 45.8876 25.23 45.7743 26.3099L45.7743 26.3101C45.7104 26.9219 45.8884 27.6322 46.154 28.3293C46.4245 29.0394 46.8104 29.7972 47.2229 30.5254C47.7579 31.4699 48.3754 32.4253 48.8515 33.162C49.0947 33.5382 49.301 33.8574 49.4407 34.0891L43.7372 15.5563ZM32.8408 53.157C32.817 53.6306 32.4252 53.9991 31.9469 53.9991H16.6071C16.0897 53.9991 15.6785 53.5727 15.7131 53.0628C15.8755 50.6052 16.2304 43.9483 15.5724 40.818M32.8408 53.157L15.5724 40.818M15.5724 40.818C15.3042 39.5434 14.6098 37.8087 13.8077 35.8052C12.1694 31.7127 10.082 26.4983 10.2607 21.792L15.5724 40.818ZM45.9668 41.2171C45.9492 41.299 45.8953 41.4294 45.731 41.601L49.4408 34.0892C49.717 34.5477 49.7658 34.8331 49.7475 34.9972C49.732 35.1355 49.6611 35.2581 49.4757 35.3843C49.2767 35.5197 48.9799 35.6326 48.5944 35.7272C48.2143 35.8205 47.7882 35.8869 47.3496 35.9501C46.802 36.029 46.3851 36.272 46.1799 36.7075C45.9959 37.0979 46.0395 37.5344 46.1103 37.874C46.1685 38.1536 46.2644 38.4467 46.3441 38.6902C46.3633 38.7488 46.3815 38.8046 46.3981 38.8567C46.4437 39 46.4775 39.1164 46.4972 39.2115C46.5145 39.2953 46.5144 39.3333 46.5144 39.3409C46.5144 39.3426 46.5144 39.3428 46.5146 39.3415C46.4874 39.5014 46.3771 39.6371 46.2181 39.7497C46.1422 39.8034 46.0672 39.8429 46.0111 39.8688C45.9836 39.8815 45.9618 39.8903 45.9486 39.8954L45.936 39.9001L45.9357 39.9002L45.9349 39.9005L45.0489 40.1912L45.7811 40.7644C45.7803 40.7637 45.7801 40.7636 45.7806 40.7639C45.7808 40.7641 45.7811 40.7644 45.7816 40.7648C45.7823 40.7654 45.7833 40.7663 45.7846 40.7675C45.7861 40.7688 45.7879 40.7704 45.79 40.7724C45.8006 40.7821 45.8178 40.7989 45.8377 40.8218C45.8792 40.8696 45.9223 40.932 45.9489 41.0017C45.9738 41.0667 45.984 41.1364 45.9668 41.2171Z" fill="white" stroke="white"/>
</g>
</svg>
