<svg preserveAspectRatio="none" viewBox="0 0 61 60" fill="none" xmlns="http://www.w3.org/2000/svg">
<mask id="mask0_485_13873" style="mask-type:alpha" maskUnits="userSpaceOnUse" x="0" y="0" width="61" height="60">
<rect x="0.25" width="60" height="60" fill="#D9D9D9"/>
</mask>
<g mask="url(#mask0_485_13873)">
<path d="M38.6005 20.9148C35.3056 17.4225 33.128 13.0787 32.2996 8.33554C32.1856 7.56888 31.5262 7 30.7529 7C29.9795 7 29.2916 7.56888 29.1757 8.33554C28.3739 13.0787 26.1963 17.4225 22.8748 20.9148C18.9491 25.091 14.25 31.3674 14.25 37.7833C14.25 49.7108 22.7589 54 30.7509 54C38.743 54 47.25 49.741 47.25 37.7833C47.25 31.3674 42.5509 25.091 38.5986 20.9148H38.6005ZM39.4841 39.407C39.4841 39.8139 39.1515 40.1417 38.743 40.1417H33.6506V45.19C33.6506 45.595 33.3181 45.9246 32.9095 45.9246H28.5905C28.1819 45.9246 27.8494 45.5969 27.8494 45.19V40.1417H22.757C22.3485 40.1417 22.0159 39.8139 22.0159 39.407V35.1254C22.0159 34.7204 22.3485 34.3908 22.757 34.3908H27.8494V29.3425C27.8494 28.9375 28.18 28.6078 28.5905 28.6078H32.9095C33.3181 28.6078 33.6506 28.9356 33.6506 29.3425V34.3908H38.743C39.1515 34.3908 39.4841 34.7204 39.4841 35.1254V39.407Z" fill="white"/>
</g>
</svg>
