<svg preserveAspectRatio="none" viewBox="0 0 61 60" fill="none" xmlns="http://www.w3.org/2000/svg">
<mask id="mask0_485_13829" style="mask-type:alpha" maskUnits="userSpaceOnUse" x="0" y="0" width="61" height="60">
<rect x="0.75" width="60" height="60" fill="#D9D9D9"/>
</mask>
<g mask="url(#mask0_485_13829)">
<path d="M22.3533 7.42288C22.623 6.01329 25.0233 5.65038 26.0221 6.83643C26.6679 7.60171 27.6167 8.49059 28.6488 8.62997C31.9247 9.07441 38.6263 8.85087 44.9683 6.17634C46.2467 5.63723 47.8247 6.40251 47.7681 7.54648C47.7015 8.90873 47.2754 10.5208 47.6483 11.9777C48.2209 14.2105 52.7252 17.3189 44.7619 19.2071C35.2338 21.4661 30.3433 21.6581 27.6034 18.1552C25.1731 15.0467 21.854 19.3281 20.8086 21.0375C18.9443 24.0907 13.6243 20.7719 11.6801 18.1867C9.73583 15.6016 10.7712 11.4649 15.4353 13.8896C20.0995 16.3143 22.4465 12.7562 22.3966 11.0284C22.37 10.1632 22.1236 8.63786 22.3533 7.42288Z" fill="white"/>
<path d="M24.4654 23.4549C24.8516 22.0637 27.2785 21.8271 28.1741 23.0631C28.75 23.8599 29.6256 24.7988 30.641 24.9907C33.8702 25.6087 40.5785 25.7429 47.1336 23.4128C48.4553 22.9447 49.9634 23.7915 49.8102 24.9302C49.6271 26.2872 49.0645 27.8704 49.3109 29.3457C49.6904 31.6047 53.9218 34.9446 45.8119 36.4042C36.1141 38.1504 31.2169 38.082 28.7833 34.4397C26.6227 31.2076 22.9473 35.3023 21.7588 36.9512C19.6348 39.8966 14.6111 36.3042 12.8932 33.6192C11.1754 30.9341 12.5636 26.8658 17.0114 29.5351C21.4591 32.2043 24.1058 28.7777 24.199 27.0499C24.2457 26.1873 24.1291 24.6515 24.4654 23.4523V23.4549Z" fill="white"/>
<path d="M25.4619 39.1178C26.0012 37.7581 28.4448 37.6898 29.2005 38.9836C29.6899 39.8173 30.4556 40.8114 31.4444 41.0744C34.5937 41.9106 41.2587 42.505 48.0469 40.6352C49.4151 40.2591 50.8234 41.2058 50.5471 42.3288C50.2175 43.6674 49.4817 45.2084 49.565 46.6917C49.6948 48.9691 53.5433 52.5851 45.3036 53.4845C35.4493 54.5575 30.5788 54.1551 28.5547 50.3603C26.7569 46.9941 22.6454 50.8205 21.2804 52.3826C18.8435 55.1728 14.2326 51.2465 12.8144 48.4563C11.3962 45.6634 13.2272 41.7081 17.3654 44.6693C21.5002 47.6331 24.5164 44.4011 24.7994 42.6864C24.9425 41.8291 24.9925 40.2907 25.4585 39.1204L25.4619 39.1178Z" fill="white"/>
</g>
</svg>
