<svg preserveAspectRatio="none" viewBox="0 0 60 60" fill="none" xmlns="http://www.w3.org/2000/svg">
<mask id="mask0_485_13861" style="mask-type:alpha" maskUnits="userSpaceOnUse" x="0" y="0" width="60" height="60">
<rect width="60" height="60" fill="#D9D9D9"/>
</mask>
<g mask="url(#mask0_485_13861)">
<path d="M50.7259 7.43573C45.0259 4.5654 38.007 6.18034 33.5682 10.6656L30.508 13.6572L27.149 10.3081C20.2496 3.48877 8.37147 4.80373 3.45248 14.2551C1.05377 18.8595 1.77297 24.3639 4.53231 28.6704H16.9503L20.6102 19.2191C20.8493 18.5616 21.5108 18.202 22.23 18.1424C22.9492 18.1424 23.5488 18.6212 23.79 19.2787L29.49 35.5473L32.849 23.4044C33.0283 22.6873 33.6279 22.2086 34.3492 22.149C35.0684 22.0894 35.7299 22.5086 36.0287 23.1065L38.6088 28.6684H44.4881C45.4484 28.6684 46.1676 29.445 46.1676 30.3429C46.1676 31.2408 45.3886 32.0174 44.4881 32.0174H37.5289C36.8695 32.0174 36.2698 31.6579 35.9689 31.0004L34.9489 28.7875L31.4085 41.7071C31.2292 42.4242 30.5677 42.9029 29.8485 42.9625H29.7888C29.0696 42.9625 28.4081 42.4837 28.169 41.8263L22.1702 24.7789L19.7715 31.0004C19.5325 31.6579 18.871 32.077 18.1518 32.077H7.35141L28.5894 53.1925C29.6095 54.2692 31.289 54.2692 32.3688 53.1925L54.6269 31.0004C61.586 24.2406 60.2053 12.2785 50.728 7.43367L50.7259 7.43573Z" fill="white"/>
</g>
</svg>
