<svg preserveAspectRatio="none" viewBox="0 0 100 100" fill="none" xmlns="http://www.w3.org/2000/svg">
<path d="M50.0001 0.00390625C22.4277 0.00390625 0 22.4316 0 50.0039C0 77.5763 22.4277 100.004 50.0001 100.004C77.5725 100.004 100 77.5763 100 50.0039C100 22.4316 77.567 0.00390625 50.0001 0.00390625Z" fill="#E3F3EA"/>
<path d="M47.7682 41.8779L57.5622 30.8311C57.5622 30.8311 52.0945 25.2521 57.5622 21.1541C63.0299 17.0561 68.1524 23.2031 66.6713 28.1028C71.7938 25.5973 77.1502 30.2688 75.0956 35.6195C73.0466 40.9703 66.6713 38.9214 65.4185 37.6686C57.5622 46.6663 50.7303 55.0906 50.7303 55.0906L52.2114 46.2098L46.1758 47.8022L47.7682 41.8779Z" fill="#F8BFA2"/>
<path d="M41.7326 48.3708C41.7326 48.3708 33.3305 68.0145 33.3083 68.0701C31.9441 67.9588 28.7537 67.2739 26.6323 69.6626C24.5945 71.9566 24.0766 75.9042 26.5153 78.0646C28.698 80.0022 34.2381 80.6759 35.8138 77.5189C34.7893 82.4131 40.825 86.8563 45.1513 82.53C49.4776 78.2038 45.6078 73.304 42.8739 72.2795L48.453 59.9799L47.2002 50.8708L41.9608 54.4009L41.7326 48.3652V48.3708Z" fill="#F8BFA2"/>
<path d="M66.7756 49.0515L81.3247 43.1328L79.838 48.0771L89.4371 47.4981C89.5819 47.487 89.6264 47.6874 89.4984 47.7431L74.6877 54.2854L76.6587 48.968L66.8313 49.2965C66.6865 49.2965 66.6476 49.1016 66.7812 49.0515H66.7756Z" fill="#F3829B"/>
<path d="M65.8038 60.8819L80.8817 65.2694L76.6446 68.226L84.5288 73.7271C84.6457 73.8106 84.5621 73.9943 84.4229 73.9553L68.7493 69.8964L73.5989 66.9509L65.6869 61.1046C65.57 61.0211 65.659 60.8373 65.7982 60.8819H65.8038Z" fill="#F3829B"/>
<path d="M55.7202 64.0284L65.7313 76.1331L60.5643 76.1999L63.9997 85.1809C64.0498 85.3146 63.8772 85.4203 63.7826 85.309L53.0977 73.1431L58.7658 73.427L55.503 64.1509C55.4585 64.0172 55.6311 63.917 55.7202 64.0284Z" fill="#F3829B"/>
<path d="M41.6588 35.7102L40.4784 20.0477L36.7089 23.5833L32.9561 14.7303C32.9004 14.5966 32.7055 14.6412 32.7111 14.786L33.4461 30.9608L37.3325 26.8239L41.4137 35.7715C41.475 35.8995 41.6699 35.8494 41.6588 35.7102Z" fill="#F3829B"/>
<path d="M31.4968 41.8506L20.8565 30.3027L20.0937 35.4085L11.6582 30.7982C11.5302 30.7314 11.4077 30.8874 11.5023 30.9932L22.1149 43.2203L22.5937 37.5688L31.3465 42.0511C31.4745 42.1179 31.597 41.9564 31.4968 41.8506Z" fill="#F3829B"/>
<path d="M33.1737 52.2797L17.8785 48.7051L20.1169 53.3599L10.5456 54.2842C10.4008 54.2953 10.3897 54.5013 10.5233 54.5347L26.1748 58.6884L23.3964 53.7441L33.157 52.5358C33.2962 52.5191 33.3073 52.3187 33.1681 52.2853L33.1737 52.2797Z" fill="#F3829B"/>
</svg>
