<svg preserveAspectRatio="none" viewBox="0 0 100 100" fill="none" xmlns="http://www.w3.org/2000/svg">
<path d="M50 0.00390625C22.4276 0.00390625 0 22.4316 0 50.0039C0 77.5763 22.4276 100.004 50 100.004C77.5724 100.004 100 77.5763 100 50.0039C100 22.4316 77.5724 0.00390625 50 0.00390625Z" fill="#E3F3EA"/>
<mask id="mask0_918_10119" style="mask-type:luminance" maskUnits="userSpaceOnUse" x="0" y="0" width="100" height="101">
<path d="M50 0.00390625C22.4276 0.00390625 0 22.4316 0 50.0039C0 77.5763 22.4276 100.004 50 100.004C77.5724 100.004 100 77.5763 100 50.0039C100 22.4316 77.5724 0.00390625 50 0.00390625Z" fill="white"/>
</mask>
<g mask="url(#mask0_918_10119)">
<path d="M58.5187 22.2433C58.8974 23.3735 56.8873 24.9994 54.0032 24.9994C51.119 24.9994 44.2203 24.8713 42.7169 23.2455C41.2136 21.6141 38.4519 17.7277 39.7102 17.1041C41.453 16.2299 44.4764 22.1208 48.4853 22.2433C52.4998 22.3713 58.1401 21.113 58.5187 22.2433Z" fill="#E45E87"/>
<path d="M53.1228 42.6833C54.8767 42.5552 54.5036 49.0753 53.1228 53.3403C51.7419 57.6054 49.7375 76.0352 50.6172 90.0775C51.4969 104.12 52.8722 123.557 52.3711 130.451C51.909 136.792 51.341 143.975 51.2519 145.094C50.3165 142.294 49.2308 138.936 48.3176 135.089C48.1506 134.387 47.978 133.591 47.7998 132.717L47.8555 132.706C47.8555 132.706 49.4869 128.819 48.2341 116.152C46.9813 103.491 46.3521 77.2824 46.9813 68.1287C47.6105 58.975 51.3689 42.8002 53.1228 42.6777V42.6833Z" fill="white"/>
<path d="M51.251 145.112C52.7098 149.488 53.7788 152.495 53.1664 153.82C52.1641 155.997 45.3044 158.168 44.6418 155.496C43.9681 152.818 41.9636 148.475 42.4647 144.627C42.9659 140.78 44.4692 139.276 40.9614 121.554C37.4481 103.837 34.4414 80.7631 34.4414 73.5693C34.4414 66.3755 35.6162 44.3154 35.2766 35.2842C34.937 26.253 34.9425 25.5905 36.2788 24.2486C39.9592 20.5682 42.1307 26.9212 46.6463 26.7542C51.1619 26.5871 55.6719 28.5971 53.4949 33.6083C51.3234 38.625 47.4759 44.1428 45.8055 52.6673C44.1351 61.1918 41.9581 81.7598 42.2922 89.6105C42.604 96.9101 45.5049 121.359 47.7933 132.712C47.9715 133.586 48.144 134.382 48.3111 135.084C49.2242 138.931 50.31 142.289 51.2454 145.089V145.1L51.251 145.112Z" fill="white"/>
<path d="M39.0801 7.19914C39.5812 7.82831 39.7093 14.0978 37.8273 15.8517C35.9454 17.6056 33.941 18.7359 33.1893 24.3762C32.4376 30.0165 31.9365 34.4096 30.9342 34.5321C29.6926 34.688 28.0501 25.1278 29.4309 19.61C30.8118 14.0922 38.5846 6.56996 39.0857 7.19914H39.0801Z" fill="white"/>
<path d="M80.5754 -7.33658C80.2692 -7.16955 68.1589 -0.443529 63.699 2.85269C59.1834 6.19901 58.5152 12.0509 57.8471 14.3894C57.1789 16.7335 52.3293 19.9073 48.1534 19.5732C43.9718 19.2391 42.3015 14.5565 41.9618 10.5476C41.6333 6.53312 47.8137 3.35379 50.3248 3.19232C52.8248 3.02528 63.3093 -7.11945 71.8227 -15.6328C74.9073 -13.6785 78.1311 -10.9724 80.581 -7.33658H80.5754Z" fill="white"/>
<path d="M81.4234 -6.00791C87.7764 4.85513 89.4467 17.7282 89.4467 17.7282C89.4467 17.7282 82.5926 18.8974 74.5636 23.079C66.5402 27.2549 59.8532 37.6224 63.0269 55.8463C66.2062 74.0701 63.1995 92.9621 60.0202 110.679C56.8465 128.402 57.0135 151.977 61.195 163.012C65.371 174.048 54.0013 175.217 47.3198 174.048C40.6327 172.873 30.4322 170.701 21.2395 172.706C12.0469 174.71 3.8509 171.537 0.844211 169.36C-2.16247 167.188 -2.83064 165.345 1.17827 165.345C5.18719 165.345 22.7429 161.503 31.1059 157.99C39.4634 154.477 40.4656 149.126 35.4489 126.392C30.4322 103.652 26.5903 79.2483 27.4255 70.7182C28.2607 62.1937 29.6026 48.981 26.7574 37.4442C23.9121 25.9075 26.7574 14.5434 34.6193 8.02332C42.4756 1.50327 55.5158 -10.117 61.7852 -20.1504C61.7852 -20.1504 66.6126 -18.9644 71.8298 -15.6515C63.3164 -7.13816 52.8375 3.00657 50.332 3.1736C47.8264 3.34064 41.6404 6.51998 41.9689 10.5289C42.303 14.5434 43.9734 19.2204 48.1605 19.5545C52.3365 19.883 57.1861 16.7093 57.8543 14.3708C58.5224 12.0322 59.1961 6.18029 63.7062 2.83397C68.1661 -0.467813 80.2764 -7.19383 80.5826 -7.3553C80.8777 -6.92657 81.1617 -6.47555 81.4234 -6.01898V-6.00791ZM54.0013 25.0055C56.8855 25.0055 58.8899 23.3741 58.5169 22.2493C58.1383 21.119 52.4979 22.3774 48.4834 22.2493C44.469 22.1213 41.4511 16.236 39.7084 17.1101C38.4556 17.7393 41.2117 21.6258 42.7151 23.2516C44.2184 24.883 51.1171 25.0055 54.0013 25.0055ZM53.5002 33.6135C55.6772 28.5968 51.1616 26.5924 46.6516 26.7594C42.136 26.9264 39.9645 20.5679 36.2841 24.2538C34.9422 25.5957 34.9423 26.2583 35.2819 35.2895C35.6215 44.3206 34.4467 66.3863 34.4467 73.5745C34.4467 80.7627 37.4534 103.836 40.9667 121.559C44.4801 139.276 42.9712 140.785 42.4701 144.632C41.9689 148.48 43.9734 152.823 44.6471 155.501C45.3153 158.174 52.1694 156.002 53.1717 153.825C53.7841 152.5 52.7151 149.499 51.2563 145.117V145.106C51.3454 143.987 51.9133 136.798 52.3754 130.462C52.8765 123.563 51.4957 104.131 50.6215 90.089C49.7418 76.0467 51.7518 57.6113 53.1271 53.3518C54.5079 49.0868 54.881 42.5668 53.1271 42.6948C51.3732 42.8229 47.6092 58.9977 46.9856 68.1458C46.3565 77.2995 46.9856 103.508 48.2384 116.169C49.4912 128.831 47.8598 132.723 47.8598 132.723L47.8042 132.734C45.5158 121.381 42.6149 96.9264 42.3031 89.6324C41.969 81.7761 44.146 61.2137 45.8164 52.6892C47.4868 44.1647 51.3342 38.6469 53.5057 33.6302L53.5002 33.6135ZM37.8264 15.8518C39.7084 14.0979 39.5803 7.82845 39.0792 7.19927C38.5781 6.5701 30.8053 14.0979 29.4244 19.6101C28.0436 25.128 29.6861 34.6881 30.9277 34.5322C31.93 34.4042 32.4311 30.0166 33.1828 24.3763C33.9344 18.736 35.9389 17.6057 37.8208 15.8518H37.8264Z" fill="#F8BFA2"/>
<path d="M24.5535 70.8032C24.1304 70.8032 23.7852 70.458 23.7852 70.0349V9.52814C23.7852 9.10498 24.1304 8.75977 24.5535 8.75977C24.9767 8.75977 25.3219 9.10498 25.3219 9.52814V70.0349C25.3219 70.458 24.9767 70.8032 24.5535 70.8032Z" fill="#9BC4AC"/>
<path d="M34.7723 70.8032C34.3491 70.8032 34.0039 70.458 34.0039 70.0349V9.52814C34.0039 9.10498 34.3491 8.75977 34.7723 8.75977C35.1954 8.75977 35.5407 9.10498 35.5407 9.52814V70.0349C35.5407 70.458 35.1954 70.8032 34.7723 70.8032Z" fill="#9BC4AC"/>
<path d="M44.9793 70.8032C44.5562 70.8032 44.2109 70.458 44.2109 70.0349V9.52814C44.2109 9.10498 44.5562 8.75977 44.9793 8.75977C45.4025 8.75977 45.7477 9.10498 45.7477 9.52814V70.0349C45.7477 70.458 45.4025 70.8032 44.9793 70.8032Z" fill="#9BC4AC"/>
<path d="M55.1941 70.8032C54.7709 70.8032 54.4258 70.458 54.4258 70.0349V9.52814C54.4258 9.10498 54.7709 8.75977 55.1941 8.75977C55.6173 8.75977 55.9625 9.10498 55.9625 9.52814V70.0349C55.9625 70.458 55.6173 70.8032 55.1941 70.8032Z" fill="#9BC4AC"/>
<path d="M65.4051 70.8032C64.9819 70.8032 64.6367 70.458 64.6367 70.0349V9.52814C64.6367 9.10498 64.9819 8.75977 65.4051 8.75977C65.8283 8.75977 66.1735 9.10498 66.1735 9.52814V70.0349C66.1735 70.458 65.8283 70.8032 65.4051 70.8032Z" fill="#9BC4AC"/>
<path d="M75.2322 60.9762H14.7254C14.3022 60.9762 13.957 60.631 13.957 60.2078C13.957 59.7847 14.3022 59.4395 14.7254 59.4395H75.2322C75.6553 59.4395 76.0005 59.7847 76.0005 60.2078C76.0005 60.631 75.6553 60.9762 75.2322 60.9762Z" fill="#9BC4AC"/>
<path d="M75.2322 50.7575H14.7254C14.3022 50.7575 13.957 50.4122 13.957 49.9891C13.957 49.5659 14.3022 49.2207 14.7254 49.2207H75.2322C75.6553 49.2207 76.0005 49.5659 76.0005 49.9891C76.0005 50.4122 75.6553 50.7575 75.2322 50.7575Z" fill="#9BC4AC"/>
<path d="M75.2322 40.5485H14.7254C14.3022 40.5485 13.957 40.2033 13.957 39.7801C13.957 39.3569 14.3022 39.0117 14.7254 39.0117H75.2322C75.6553 39.0117 76.0005 39.3569 76.0005 39.7801C76.0005 40.2033 75.6553 40.5485 75.2322 40.5485Z" fill="#9BC4AC"/>
<path d="M75.2322 30.3356H14.7254C14.3022 30.3356 13.957 29.9904 13.957 29.5672C13.957 29.144 14.3022 28.7988 14.7254 28.7988H75.2322C75.6553 28.7988 76.0005 29.144 76.0005 29.5672C76.0005 29.9904 75.6553 30.3356 75.2322 30.3356Z" fill="#9BC4AC"/>
<path d="M75.2322 20.1227H14.7254C14.3022 20.1227 13.957 19.7775 13.957 19.3543C13.957 18.9312 14.3022 18.5859 14.7254 18.5859H75.2322C75.6553 18.5859 76.0005 18.9312 76.0005 19.3543C76.0005 19.7775 75.6553 20.1227 75.2322 20.1227Z" fill="#9BC4AC"/>
</g>
</svg>
