<svg preserveAspectRatio="none" viewBox="0 0 100 100" fill="none" xmlns="http://www.w3.org/2000/svg">
<path d="M50 0.00390625C22.4276 0.00390625 0 22.4316 0 50.0039C0 77.5763 22.4276 100.004 50 100.004C77.5724 100.004 100 77.5763 100 50.0039C100 22.4316 77.5669 0.00390625 50 0.00390625Z" fill="#E3F3EA"/>
<path d="M85.8826 40.4121C85.8826 40.4121 85.2702 49.5157 84.6521 53.5246C84.0341 57.5335 93.2936 74.1983 83.8838 78.2128C74.474 82.2217 68.9171 75.5903 59.357 78.0569C49.7857 80.5234 38.377 78.8253 30.6599 79.1371C23.8837 79.4099 20.5597 76.8208 19.5352 74.5157H19.5519C22.9427 74.3542 24.3347 71.5758 24.3347 71.5758C28.3492 70.9578 52.4138 60.6237 57.6588 57.0769C62.9037 53.5302 65.0641 39.9556 65.0641 39.9556C68.6109 38.1014 85.8882 40.4177 85.8882 40.4177L85.8826 40.4121Z" fill="#F8BFA2"/>
<path d="M24.3285 71.5762C24.3285 71.5762 22.9365 74.3545 19.5456 74.5104H19.5289C19.3897 74.1986 19.2895 73.8869 19.2394 73.5862C18.7772 71.1196 20.3196 72.1998 24.3285 71.5817V71.5762Z" fill="#F2AF95"/>
<path d="M62.761 39.9617L31.1797 50.9027L36.0906 34.7891L62.761 39.9617Z" fill="#4E6388"/>
<path d="M62.7602 39.961L36.0898 34.7883L46.3404 30.2227L62.7602 39.961Z" fill="#6C85BF"/>
<path d="M62.7632 39.9609C62.7632 39.9609 61.0705 46.52 59.0661 50.3952C55.4803 57.3106 52.2176 60.3228 52.212 60.3284L31.1875 50.9019L62.7688 39.9609H62.7632Z" fill="#6C85BF"/>
<path d="M62.7616 39.9616L46.3417 30.2233L32.6836 20.7132C32.6836 20.7132 42.6669 19.5941 47.8673 22.6564C53.0678 25.7188 62.7616 39.9616 62.7616 39.9616Z" fill="#4E6388"/>
<path d="M31.1787 50.9023L52.2032 60.3288C52.2032 60.3288 30.6108 71.2698 25.8112 69.9892C21.0117 68.7085 12.9883 56.0861 12.9883 56.0861L31.1732 50.9023H31.1787Z" fill="#4E6388"/>
<path d="M46.3417 30.223L36.0912 34.7886L32.6836 20.7129L46.3417 30.223Z" fill="#6C85BF"/>
<path d="M36.0909 34.7891L31.18 50.9083L12.9951 56.092C12.9951 56.092 11.5363 54.1933 11.9483 49.4717C12.3659 44.7501 13.4517 42.0608 13.4517 42.0608L36.0909 34.7946V34.7891Z" fill="#6C85BF"/>
<path d="M21.6301 29.4045C26.4297 24.1094 32.6769 20.7129 32.6769 20.7129L36.0845 34.7831L13.4453 42.0492C13.4453 42.0492 16.825 34.694 21.6301 29.3989V29.4045Z" fill="#4E6388"/>
<path d="M13.0508 56.1137L17.5887 54.705L22.1265 53.3074L26.67 51.921L31.2134 50.5402L31.102 50.6515L32.2824 46.6871L33.474 42.7284L35.8626 34.8108V34.9277L34.1867 27.8397L32.5441 20.7462C32.5163 20.6237 32.5887 20.5012 32.7112 20.4734C32.778 20.4567 32.8392 20.4733 32.8949 20.5067L39.6822 25.362L43.0731 27.7952L46.4584 30.2395H46.4473L50.4785 32.6782L54.5096 35.1281L58.5352 37.5892L62.5553 40.0557L58.4796 37.6838L54.4094 35.3063L50.3448 32.9177L46.2802 30.5234H46.2691V30.5179L42.8559 28.1181L39.4484 25.7072L32.6388 20.8798L32.9896 20.6459L34.6599 27.734L36.3025 34.8275C36.3136 34.8665 36.308 34.9054 36.3025 34.9444L33.8804 42.8508L32.6611 46.8041L31.4361 50.7518C31.4194 50.8074 31.3749 50.8464 31.3248 50.8631L26.7646 52.1883L22.2045 53.5079L17.6387 54.8163L13.0675 56.1137H13.0508Z" fill="#BBC7E2"/>
<path d="M13.3281 42.1945C13.7958 42.0275 14.2636 41.8549 14.7368 41.6878L16.1455 41.1923L17.5542 40.6967L18.9684 40.2123L21.797 39.2491L24.631 38.3025C25.5776 37.9852 26.5186 37.6733 27.4651 37.3671L30.3047 36.4428L33.15 35.5297L35.9952 34.6276L35.9729 34.6388C36.8081 34.2602 37.6489 33.8816 38.4896 33.5086C39.3304 33.1299 40.1712 32.7624 41.0119 32.3894C41.8527 32.0163 42.699 31.6544 43.5397 31.2869L44.8036 30.7412L46.0732 30.2012L44.8371 30.8192L43.601 31.4261C42.7769 31.8325 41.9529 32.239 41.1233 32.6399C40.2936 33.0408 39.4696 33.4417 38.64 33.837C37.8104 34.2324 36.9807 34.6277 36.1511 35.0174C36.1455 35.0174 36.14 35.023 36.1288 35.023L33.2948 35.964L30.4551 36.8938L27.6099 37.807C26.6633 38.1132 25.7112 38.4139 24.7647 38.7146L21.9139 39.6054L19.0575 40.4851L17.6266 40.9194L16.1956 41.3426L14.7647 41.7658C14.2859 41.9105 13.807 42.0442 13.3281 42.1834V42.1945Z" fill="#BBC7E2"/>
<path d="M31.4141 51.1035C31.4141 51.1035 32.7337 51.6102 34.6824 52.4231C35.1724 52.6236 35.6958 52.8462 36.2526 53.0857C36.8094 53.3251 37.3996 53.5701 38.0009 53.8373C38.6078 54.1046 39.2314 54.3719 39.8661 54.6503C40.5009 54.9342 41.1412 55.2182 41.7871 55.5022C42.4274 55.7917 43.0677 56.0868 43.7025 56.3708C44.3372 56.6547 44.9496 56.9498 45.551 57.2227C46.7481 57.7795 47.8617 58.3084 48.8138 58.7706C50.7181 59.6893 51.9708 60.3407 51.9708 60.3407C51.9708 60.3407 50.6512 59.8396 48.7024 59.0211C47.7281 58.6146 46.5922 58.1358 45.384 57.6068C44.7771 57.3396 44.1535 57.0779 43.5187 56.7884C42.884 56.5044 42.2436 56.2204 41.5978 55.9364C40.9574 55.6469 40.3172 55.3518 39.6824 55.0679C39.0532 54.7839 38.4352 54.4888 37.8338 54.216C37.2325 53.9376 36.659 53.6648 36.1134 53.4086C35.5677 53.1525 35.0499 52.9019 34.5766 52.6736C32.6724 51.7549 31.4196 51.1035 31.4196 51.1035H31.4141Z" fill="#BBC7E2"/>
</svg>
