<svg preserveAspectRatio="none" viewBox="0 0 100 100" fill="none" xmlns="http://www.w3.org/2000/svg">
<path d="M50 0.00390625C22.4276 0.00390625 0 22.4316 0 50.0039C0 77.5763 22.4276 100.004 50 100.004C77.5724 100.004 100 77.5763 100 50.0039C100 22.4316 77.5669 0.00390625 50 0.00390625Z" fill="#E3F3EA"/>
<path d="M30.4224 65.4609C30.2331 65.4609 30.0494 65.3662 29.938 65.1991C29.8434 65.0544 20.4781 50.3551 24.8712 35.1435C29.9102 17.6936 44.7932 15.5444 44.9436 15.5221C45.2554 15.4831 45.5449 15.7003 45.5895 16.0177C45.6284 16.335 45.4113 16.6246 45.0939 16.6636C44.9491 16.6803 30.8011 18.7571 25.9792 35.4609C21.7309 50.1714 30.8122 64.4252 30.9013 64.57C31.0739 64.8372 30.9959 65.1936 30.7286 65.3662C30.634 65.4275 30.5226 65.4609 30.4168 65.4609H30.4224Z" fill="#F597AF"/>
<path d="M24.0829 64.1133C23.888 64.1133 23.6931 64.0131 23.5873 63.8293C23.4927 63.6734 14.2944 47.855 19.8902 32.0309C25.9314 14.9429 39.7956 12.4707 39.9348 12.4429C40.2466 12.3928 40.5417 12.6043 40.5974 12.9162C40.6475 13.228 40.4359 13.5287 40.1241 13.5788C39.9904 13.601 26.7889 15.9897 20.9815 32.4095C15.5695 47.7157 24.4949 63.0833 24.584 63.2336C24.7455 63.5064 24.6564 63.8627 24.3836 64.0242C24.2889 64.0799 24.1887 64.1022 24.0885 64.1022L24.0829 64.1133Z" fill="#F597AF"/>
<path d="M17.5495 62.0017C17.3435 62.0017 17.1486 61.8904 17.0428 61.7011C16.9593 61.5452 8.53501 45.7322 14.1252 29.9249C20.1664 12.848 33.2455 9.98611 33.3791 9.95827C33.6909 9.89702 33.9972 10.0974 34.0584 10.4092C34.1252 10.721 33.9192 11.0273 33.613 11.0886C33.4905 11.1164 21.0239 13.8781 15.2165 30.3091C9.79334 45.6432 17.9782 60.9995 18.0617 61.1554C18.212 61.4338 18.1119 61.7845 17.8279 61.9349C17.7388 61.9794 17.6442 62.0073 17.5551 62.0073L17.5495 62.0017Z" fill="#F597AF"/>
<mask id="mask0_918_10176" style="mask-type:luminance" maskUnits="userSpaceOnUse" x="0" y="0" width="100" height="101">
<path d="M50 0.00390625C22.4276 0.00390625 0 22.4316 0 50.0039C0 77.5763 22.4276 100.004 50 100.004C77.5724 100.004 100 77.5763 100 50.0039C100 22.4316 77.5669 0.00390625 50 0.00390625Z" fill="white"/>
</mask>
<g mask="url(#mask0_918_10176)">
<path d="M70.8726 2.15234C65.2545 11.1445 44.1186 18.8338 37.0752 24.6802C30.0318 30.5265 27.4872 40.7158 30.0318 51.0554C32.5819 61.3951 40.8224 75.9608 40.0763 83.6C39.3247 91.2448 42.7712 113.121 47.2701 133.5C51.7634 153.878 50.867 158.678 43.3726 161.824C35.8781 164.97 20.1431 168.416 16.5463 168.416C12.9494 168.416 13.5507 170.064 16.2456 172.013C18.9404 173.962 26.2846 176.807 34.5251 175.009C42.7657 173.21 51.9082 175.159 57.9049 176.206C63.9015 177.253 74.0908 176.206 70.3436 166.317C66.5964 156.429 66.446 135.298 69.2968 119.413C72.142 103.528 74.8425 86.5956 71.9917 70.2593C69.1465 53.923 75.1376 44.6357 82.3314 40.8885C89.5251 37.1412 98.7957 34.914 98.7957 34.914C98.7957 34.914 94.1688 24.5521 88.4728 14.8138C82.7768 5.0755 70.867 2.15234 70.867 2.15234H70.8726Z" fill="#F8BFA2"/>
</g>
</svg>
