<svg preserveAspectRatio="none" viewBox="0 0 100 100" fill="none" xmlns="http://www.w3.org/2000/svg">
<path d="M50.0001 0.00390625C22.4277 0.00390625 0 22.4316 0 50.0039C0 77.5763 22.4277 100.004 50.0001 100.004C77.5725 100.004 100 77.5763 100 50.0039C100 22.4316 77.567 0.00390625 50.0001 0.00390625Z" fill="#E3F3EA"/>
<mask id="mask0_918_10190" style="mask-type:luminance" maskUnits="userSpaceOnUse" x="0" y="0" width="100" height="101">
<path d="M50.0001 0.00390625C22.4277 0.00390625 0 22.4316 0 50.0039C0 77.5763 22.4277 100.004 50.0001 100.004C77.5725 100.004 100 77.5763 100 50.0039C100 22.4316 77.567 0.00390625 50.0001 0.00390625Z" fill="white"/>
</mask>
<g mask="url(#mask0_918_10190)">
<path d="M62.7772 24.3144C68.7294 28.7298 70.2662 35.2665 66.4298 42.3712C65.7784 43.5794 65.0156 44.4536 64.186 45.0549C60.8006 47.5215 56.2795 45.5115 53.2227 43.9525C52.6325 43.6518 52.1035 43.3734 51.6414 43.1395C50.2494 42.4435 48.9243 43.0839 47.382 43.9859C45.088 45.3277 42.3263 47.2487 38.1949 46.213C37.8831 46.1351 37.5879 46.0349 37.3151 45.9235C31.5244 43.4903 34.1247 32.9113 37.4265 19.7041C40.8842 5.8734 31.4688 -5.26801 31.4688 -5.26801L38.9632 -10.8359C38.9632 -10.8359 44.726 -0.847084 49.9098 9.33666C55.0935 19.5204 59.4421 21.8478 62.7772 24.32V24.3144Z" fill="#F8BFA2"/>
<path d="M65.5925 46.8376V47.6227C65.5925 48.4468 65.0357 50.0559 64.2618 52.0047L64.1894 51.9712L63.1649 50.1784L60.4755 51.9712L59.8353 50.3064L54.8408 54.4044L52.7918 50.6906L52.7695 49.7886C61.5669 49.6105 64.9244 47.3666 65.5981 46.832L65.5925 46.8376Z" fill="#D39882"/>
<path d="M65.5948 46.0847V46.8364C64.9211 47.3653 61.5636 49.6148 52.7663 49.793C52.1984 49.8041 51.6082 49.8097 50.9957 49.7986C39.5982 49.6705 37.293 45.9567 37.293 45.9567L37.3097 45.9177C37.5825 46.0346 37.8777 46.1348 38.1895 46.2072C42.3209 47.2428 45.0881 45.3219 47.3766 43.98L47.4099 44.0357C48.8186 43.7796 53.1727 44.0357 53.1727 44.0357L53.2173 43.9467C56.2741 45.5057 60.7953 47.5157 64.1806 45.0491L65.5893 46.0847H65.5948Z" fill="#A56149"/>
<path d="M64.1874 51.9749L64.2598 52.0083C63.5972 53.6787 62.7731 55.5941 62.0103 57.4872C60.3455 61.5852 59.193 70.6776 57.4001 85.7889C55.6072 100.9 54.3266 119.213 54.3266 119.213L46.5148 117.805C46.5148 117.805 46.6428 105.639 46.7709 92.9604C46.8989 80.2822 45.2341 69.397 44.3377 65.0429C43.4413 60.6888 36.5259 53.7734 36.0137 53.1331C35.6629 52.6932 36.0972 49.5974 36.6094 47.6152L36.654 47.6264L39.4713 51.3401L42.2887 50.0596L46.7709 52.6208L49.076 51.084L50.3567 52.4927L52.7899 50.6999L54.8388 54.4137L59.8333 50.3157L60.4736 51.9805L63.1629 50.1876L64.1874 51.9805V51.9749Z" fill="#F8BFA2"/>
<path d="M52.7675 49.7933L52.7898 50.6953L50.3566 52.4882L49.076 51.0795L46.7709 52.6163L42.2887 50.055L39.4713 51.3356L36.654 47.6218L36.6094 47.6107C36.8432 46.7087 37.0993 46.0406 37.2998 45.957C37.2998 45.957 39.605 49.6709 51.0025 49.7989C51.615 49.8045 52.2052 49.7989 52.7731 49.7933H52.7675Z" fill="#D39882"/>
<path d="M46.5141 117.8L40.7513 118.441C40.7513 118.441 37.9339 78.4852 37.4217 69.5209C36.9094 60.5565 35.5007 61.4529 34.3482 60.0442C33.1956 58.6355 34.3482 53.5131 36.013 53.1289C36.5252 53.7692 43.4406 60.6846 44.337 65.0387C44.337 65.0387 43.0564 67.9841 42.9284 76.5643C42.8003 85.1445 46.5141 117.8 46.5141 117.8Z" fill="#F2AF95"/>
</g>
</svg>
