<svg preserveAspectRatio="none" viewBox="0 0 100 100" fill="none" xmlns="http://www.w3.org/2000/svg">
<path d="M50 0.00390625C22.4276 0.00390625 0 22.4316 0 50.0039C0 77.5763 22.4276 100.004 50 100.004C77.5724 100.004 100 77.5763 100 50.0039C100 22.4316 77.5724 0.00390625 50 0.00390625Z" fill="#E3F3EA"/>
<mask id="mask0_918_10149" style="mask-type:luminance" maskUnits="userSpaceOnUse" x="0" y="0" width="100" height="101">
<path d="M50 0.00390625C22.4276 0.00390625 0 22.4316 0 50.0039C0 77.5763 22.4276 100.004 50 100.004C77.5724 100.004 100 77.5763 100 50.0039C100 22.4316 77.5724 0.00390625 50 0.00390625Z" fill="white"/>
</mask>
<g mask="url(#mask0_918_10149)">
<path d="M56.8766 60.5479C57.7007 60.0356 59.5437 60.6536 58.5136 63.7271C57.4891 66.8062 56.9769 70.186 57.2831 73.7773C57.5949 77.3686 56.1584 82.8085 56.0526 90.4978C55.9524 97.8252 55.7631 104.122 55.7464 104.713C55.0671 104.746 54.3822 104.757 53.6918 104.757C53.213 104.757 52.7286 104.757 52.2553 104.735C52.8733 83.7216 52.9735 72.1403 51.743 69.2728C50.8076 67.0846 49.9891 64.8407 50.4179 63.5267C50.557 63.1202 50.8187 62.7973 51.2307 62.6024C52.9735 61.7839 56.0526 61.0657 56.8711 60.5534L56.8766 60.5479Z" fill="white"/>
<path d="M59.849 55.8256C60.1608 58.2866 57.4882 59.829 52.2599 60.6475C50.9515 60.8479 50.1552 61.8056 49.6708 63.2866C48.2065 67.7354 49.5706 76.9281 48.5684 84.8512C47.3045 94.8679 46.692 103.409 46.6252 104.267C43.702 103.877 40.8512 103.231 38.1062 102.373C39.7488 84.2332 38.212 83.8212 38.4181 76.6441C38.6185 69.4615 38.8245 66.1819 37.5939 62.0784C36.3634 57.9748 36.6753 56.2321 39.0305 54.2833C41.3913 52.3345 41.5361 49.9848 44.153 49.4614C45.6953 49.1496 47.6998 52.9693 51.5695 53.4704C52.6553 53.6096 53.7632 53.6652 54.7989 53.7209C57.4436 53.8657 59.6263 54.0439 59.849 55.8145V55.8256Z" fill="white"/>
<path d="M41.2877 33.5713C42.3122 34.696 39.9514 37.1626 40.6697 40.3419C41.3879 43.5212 40.7755 46.6002 39.3334 46.8062C37.9024 47.0123 34.7176 44.0335 34.9236 40.4477C35.1296 36.8564 39.3612 31.4667 41.2821 33.5769L41.2877 33.5713Z" fill="#EFEDF1"/>
<path d="M84.1056 10.3262C87.168 12.5311 89.9854 15.0589 92.4965 17.8707C68.031 30.5377 61.7002 39.9475 61.0822 46.7014C60.5922 52.0968 57.8862 53.1937 54.8406 52.9932C54.0611 52.9487 53.2593 52.815 52.4686 52.648C48.5711 51.8295 40.5699 44.8529 42.0064 39.7248C43.443 34.6023 48.159 32.9542 51.6446 31.5233C55.0466 30.1201 82.6635 11.3117 84.1056 10.3317V10.3262Z" fill="white"/>
<path d="M50.4223 63.5212C49.9936 64.8352 50.8121 67.0791 51.7475 69.2673C52.978 72.1404 52.8722 83.7161 52.2597 104.729C50.3555 104.679 48.4736 104.529 46.625 104.273C46.6862 103.421 47.3043 94.8743 48.5682 84.8575C49.5704 76.9344 48.2063 67.7417 49.6706 63.293L50.4279 63.5212H50.4223Z" fill="#F8BFA2"/>
<path d="M56.8784 60.5476C56.0544 61.0599 52.9809 61.7782 51.2381 62.5966C50.8261 62.7915 50.5644 63.1144 50.4252 63.5209L49.668 63.2926C50.1524 61.8116 50.9542 60.8538 52.2571 60.6534C57.4909 59.8293 60.158 58.2926 59.8462 55.8316C59.6235 54.061 57.4408 53.8828 54.796 53.7381L54.8295 52.9975C57.8807 53.1923 60.5811 52.1011 61.0711 46.7058C61.6891 39.9519 68.0143 30.542 92.4854 17.875C97.5968 23.5654 101.466 30.3861 103.677 37.914C102.057 38.6378 69.6179 53.2592 67.0232 60.8595C64.3562 68.6601 73.9942 76.0431 66.6112 102.914L66.6669 103.137C63.1535 104.033 59.501 104.579 55.7426 104.718C55.7593 104.128 55.9486 97.8305 56.0488 90.5031C56.1546 82.8138 57.5912 77.3795 57.2794 73.7826C56.9731 70.1913 57.4853 66.8115 58.5098 63.7325C59.5399 60.6534 57.6913 60.0409 56.8728 60.5532L56.8784 60.5476Z" fill="#F8BFA2"/>
<path d="M39.3371 46.8009C40.7736 46.5949 41.3917 43.5158 40.6734 40.3365C39.9551 37.1572 42.3104 34.6962 41.2914 33.5659C39.3705 31.4557 35.1389 36.851 34.9329 40.4368C34.7324 44.0281 37.9117 47.0014 39.3426 46.7954L39.3371 46.8009ZM42.0041 39.724C40.5676 44.8521 48.5688 51.8288 52.4663 52.6473C53.257 52.8143 54.0587 52.9479 54.8383 52.9925L54.8048 53.733C53.7692 53.6773 52.6611 53.6216 51.5754 53.4824C47.7057 52.9813 45.7012 49.1617 44.1589 49.4735C41.542 49.9969 41.3917 52.3466 39.0365 54.2953C36.6757 56.2441 36.3694 57.9869 37.5999 62.0904C38.8304 66.194 38.6244 69.4735 38.4239 76.6562C38.2179 83.8332 39.7603 84.2452 38.1122 102.386C37.522 102.202 36.9373 102.001 36.3582 101.795C36.1467 101.088 35.6511 98.7274 35.0331 91.2162C34.2146 81.1661 37.7001 74.3956 35.6511 61.2664C33.6021 48.1372 31.7592 41.3666 34.0142 35.6205C36.1745 30.1194 66.1745 4.86884 68.7191 2.73633C74.3037 4.41227 79.493 7.00136 84.1144 10.3254C82.6779 11.3054 55.0554 30.1194 51.6533 31.5169C48.1678 32.9479 43.4518 34.596 42.0153 39.7185L42.0041 39.724Z" fill="#F8BFA2"/>
<path d="M39.8739 47.402C43.4717 47.402 46.3884 44.4853 46.3884 40.8875C46.3884 37.2897 43.4717 34.373 39.8739 34.373C36.276 34.373 33.3594 37.2897 33.3594 40.8875C33.3594 44.4853 36.276 47.402 39.8739 47.402Z" fill="#F3829B"/>
<path d="M39.8734 50.0925C34.7955 50.0925 30.6641 45.9612 30.6641 40.8832C30.6641 35.8053 34.7955 31.6738 39.8734 31.6738C44.9514 31.6738 49.0828 35.8053 49.0828 40.8832C49.0828 45.9612 44.9514 50.0925 39.8734 50.0925ZM39.8734 32.5758C35.291 32.5758 31.5661 36.3063 31.5661 40.8887C31.5661 45.4711 35.2966 49.1961 39.8734 49.1961C44.4503 49.1961 48.1808 45.4655 48.1808 40.8887C48.1808 36.3119 44.4503 32.5758 39.8734 32.5758Z" fill="#F597AF"/>
<path d="M39.873 52.7928C33.3084 52.7928 27.9688 47.4531 27.9688 40.8885C27.9688 34.324 33.3084 28.9844 39.873 28.9844C46.4376 28.9844 51.7772 34.324 51.7772 40.8885C51.7772 47.4531 46.4376 52.7928 39.873 52.7928ZM39.873 29.8808C33.8039 29.8808 28.8652 34.8195 28.8652 40.8885C28.8652 46.9576 33.8039 51.8963 39.873 51.8963C45.942 51.8963 50.8807 46.9576 50.8807 40.8885C50.8807 34.8195 45.942 29.8808 39.873 29.8808Z" fill="#F597AF"/>
<path d="M34.516 24.8314L29.4102 16.1511L32.6897 16.6355L31.4313 10.5999C31.4146 10.5108 31.5316 10.4607 31.5817 10.5386L37.1106 19.3303L33.5527 18.5731L34.6718 24.7814C34.6885 24.8704 34.5661 24.915 34.5215 24.837L34.516 24.8314Z" fill="#F3829B"/>
<path d="M29.4207 52.5263L23.1067 60.377L22.3995 57.1421L17.199 60.4606C17.1211 60.5107 17.032 60.4161 17.0877 60.3437L23.3516 52.0586L23.9029 55.6555L29.3093 52.4094C29.3872 52.3648 29.4708 52.4595 29.4151 52.5319L29.4207 52.5263Z" fill="#F3829B"/>
<path d="M20.4446 35.9667L10.3944 35.3097L12.6383 32.871L6.93675 30.5213C6.85323 30.4879 6.88107 30.3598 6.97015 30.3654L17.3488 30.7328L14.7207 33.2496L20.4835 35.8108C20.567 35.8498 20.5336 35.9723 20.4446 35.9667Z" fill="#F3829B"/>
</g>
</svg>
