<svg preserveAspectRatio="none" viewBox="0 0 122 122" fill="none" xmlns="http://www.w3.org/2000/svg">
<circle cx="60.5661" cy="60.5661" r="60.5661" fill="#EAF5EF"/>
<path d="M39.5341 90.9938C39.0326 90.9938 38.6037 90.6111 38.5509 90.103L35.8719 63.8671C35.8191 63.3261 36.215 62.8378 36.7561 62.785C37.3038 62.7388 37.7855 63.1281 37.8383 63.6692L40.5173 89.905C40.5701 90.4461 40.1741 90.9344 39.6331 90.9872C39.6001 90.9872 39.5671 90.9872 39.5341 90.9872V90.9938Z" fill="#018C3B"/>
<path d="M28.2181 88.7432C27.7166 88.7432 27.2877 88.3671 27.2349 87.8524C27.0831 86.3677 26.905 84.8764 26.7136 83.2862C26.0801 77.9612 25.3609 71.9235 25.0112 62.217C24.6219 51.2502 34.4999 46.7236 41.039 43.7344C42.4115 43.1076 43.5993 42.5665 44.5363 42.0386C48.6604 39.7291 50.1583 36.1461 50.6136 34.7142C50.7059 34.4305 50.7389 34.2589 50.7455 34.2325C50.8577 33.698 51.379 33.3615 51.9135 33.4737C52.448 33.5859 52.7911 34.1071 52.6855 34.6416C52.6855 34.6416 52.6327 34.8858 52.5007 35.3081C51.9795 36.9643 50.244 41.1148 45.5063 43.7674C44.4967 44.3349 43.2166 44.9222 41.8639 45.5358C35.4435 48.4722 26.6476 52.4973 26.9907 62.151C27.3339 71.7717 28.0465 77.7698 28.68 83.0552C28.8713 84.6521 29.0495 86.1566 29.2078 87.6478C29.2606 88.1889 28.8713 88.6772 28.3237 88.7366C28.2907 88.7366 28.2576 88.7366 28.2181 88.7366V88.7432Z" fill="#018C3B"/>
<path d="M80.9997 90.9938C80.9601 90.9938 80.9205 90.9938 80.8743 90.9872C80.3332 90.9212 79.9439 90.4263 80.0165 89.8853L83.2432 63.6494C83.3092 63.1083 83.8041 62.7256 84.3452 62.7916C84.8863 62.8576 85.2756 63.3524 85.2096 63.8935L81.9829 90.1294C81.9235 90.6309 81.4946 91.0004 80.9997 91.0004V90.9938Z" fill="#018C3B"/>
<path d="M95.0736 87.641C95.0736 87.641 95.0405 87.641 95.0208 87.641C94.4731 87.6146 94.0574 87.1461 94.0838 86.5984C94.0838 86.4664 94.7568 73.3947 95.1989 61.0488C95.5289 51.857 87.8415 48.7689 81.6653 46.2878C80.0156 45.628 78.4584 45.0011 77.2377 44.3149C71.3584 41.0222 70.1178 36.5285 70.0716 36.3372C69.933 35.8093 70.2498 35.2683 70.7777 35.1297C71.3055 34.9911 71.8466 35.3012 71.9852 35.8291C71.9984 35.8819 73.1136 39.7355 78.2076 42.586C79.3162 43.2063 80.8207 43.8068 82.4109 44.4468C88.8049 47.0137 97.5612 50.5307 97.1851 61.1148C96.743 73.4739 96.0765 86.5654 96.0699 86.6974C96.0435 87.2253 95.608 87.6344 95.0802 87.6344L95.0736 87.641Z" fill="#018C3B"/>
<path d="M60.732 89.3834C60.1843 89.3834 59.7422 88.9413 59.7422 88.3936V82.897C59.7422 82.3493 60.1843 81.9072 60.732 81.9072C61.2797 81.9072 61.7218 82.3493 61.7218 82.897V88.3936C61.7218 88.9413 61.2797 89.3834 60.732 89.3834Z" fill="#018C3B"/>
<path d="M60.732 80.5868C60.1843 80.5868 59.7422 80.1447 59.7422 79.5971V49.4615C59.7422 48.9138 60.1843 48.4717 60.732 48.4717C61.2797 48.4717 61.7218 48.9138 61.7218 49.4615V79.5971C61.7218 80.1447 61.2797 80.5868 60.732 80.5868Z" fill="#018C3B"/>
<path d="M48.0135 75.6449C47.7298 75.6449 47.4526 75.5261 47.2547 75.2952C46.905 74.8795 46.9577 74.2526 47.3735 73.9029C49.2277 72.339 54.104 67.5682 54.3745 64.2888C54.4207 63.7411 54.8958 63.3518 55.4435 63.3848C55.9912 63.431 56.3937 63.906 56.3475 64.4537C55.9516 69.2179 48.9505 75.1632 48.647 75.414C48.4622 75.5723 48.2378 75.6449 48.0135 75.6449Z" fill="#018C3B"/>
<path d="M33.1717 89.7463C32.6834 89.7463 32.2545 89.3834 32.1885 88.8819C32.1687 88.7301 30.3014 73.8702 29.9978 66.4204C29.7273 59.6569 32.05 54.4044 36.3654 52.0092C49.7671 44.5858 55.6926 40.8444 55.6926 29.9898C55.6926 29.4421 56.1347 29 56.6824 29C57.2301 29 57.6722 29.4421 57.6722 29.9898C57.6722 41.9398 51.067 46.1299 37.3222 53.7446C33.6798 55.7637 31.7332 60.3498 31.9774 66.3412C32.2743 73.7118 34.1351 88.486 34.1549 88.6311C34.2209 89.1722 33.8382 89.6671 33.2971 89.7397C33.2575 89.7397 33.2113 89.7463 33.1717 89.7463Z" fill="#018C3B"/>
</svg>
