<svg preserveAspectRatio="none" viewBox="0 0 122 122" fill="none" xmlns="http://www.w3.org/2000/svg">
<circle cx="60.5661" cy="60.5661" r="60.5661" fill="#EAF5EF"/>
<path d="M47.8567 59.6743H42.8259C42.2946 59.6743 41.8658 59.2455 41.8658 58.7142V54.2851H37.4366C36.9054 54.2851 36.4766 53.8562 36.4766 53.325V48.2878C36.4766 47.7565 36.9054 47.3277 37.4366 47.3277H41.8658V42.8986C41.8658 42.3673 42.2946 41.9385 42.8259 41.9385H47.8567C48.3879 41.9385 48.8168 42.3673 48.8168 42.8986V47.3277H53.2459C53.7772 47.3277 54.206 47.7565 54.206 48.2878V53.325C54.206 53.8562 53.7772 54.2851 53.2459 54.2851H48.8168V58.7142C48.8168 59.2455 48.3879 59.6743 47.8567 59.6743ZM43.7796 57.7542H46.8902V53.325C46.8902 52.7938 47.319 52.3649 47.8503 52.3649H52.2795V49.2479H47.8503C47.319 49.2479 46.8902 48.819 46.8902 48.2878V43.8586H43.7796V48.2878C43.7796 48.819 43.3507 49.2479 42.8195 49.2479H38.3903V52.3649H42.8195C43.3507 52.3649 43.7796 52.7938 43.7796 53.325V57.7542Z" fill="#018C3B"/>
<path d="M64.1497 64.0913C63.8489 64.0913 63.5481 63.9505 63.3625 63.6817C63.0552 63.2464 63.164 62.6512 63.5993 62.3439C65.4874 61.019 66.1979 60.2702 66.4667 59.8797C68.022 57.5628 67.2348 43.5648 66.902 37.5867C66.7931 35.6345 66.7099 34.2264 66.7099 33.548C66.7099 33.0167 67.1388 32.5879 67.67 32.5879C68.2013 32.5879 68.6301 33.0167 68.6301 33.548C68.6301 34.1752 68.7133 35.6346 68.8157 37.4843C69.4046 47.9172 69.827 58.318 68.0604 60.955C67.5356 61.7359 66.4411 62.7024 64.7002 63.9249C64.5338 64.0401 64.3417 64.0977 64.1497 64.0977V64.0913Z" fill="#018C3B"/>
<path d="M46.2183 90.5696C44.503 90.5696 42.6532 90.3392 40.5859 89.7632C39.6386 89.5008 38.8193 89.0271 38.0193 88.5727C36.6944 87.811 35.5423 87.1582 33.9549 87.4078C33.3021 87.5102 32.6172 87.6766 31.894 87.8494C30.313 88.2271 28.6809 88.6239 27.0104 88.4831C26.0503 88.4063 25.2118 87.8942 24.6486 87.0558C23.9893 86.0765 23.8229 84.79 24.1941 83.6187C24.7254 81.9417 26.4215 80.9176 27.9704 80.0856C29.4874 79.2727 31.7724 78.5815 33.7949 77.9734C34.5758 77.7366 35.3118 77.519 35.9199 77.3077C37.488 76.7765 39.0241 75.97 40.5155 75.1956L40.9443 74.9716C41.514 74.6771 42.2308 74.3059 43.0501 73.8835C46.6856 72.0145 52.7661 68.8783 57.8161 65.9532C58.2705 65.6844 58.8594 65.8444 59.1282 66.3052C59.397 66.7661 59.237 67.3485 58.7762 67.6174C53.6878 70.568 47.5753 73.7106 43.927 75.5924C43.1077 76.0148 42.3972 76.3797 41.8276 76.6805L41.4051 76.9045C39.8498 77.7174 38.2433 78.5559 36.5343 79.1319C35.9135 79.3431 35.1582 79.5736 34.3518 79.8168C32.4188 80.3992 30.2298 81.0585 28.8793 81.7817C28.0024 82.2554 26.3639 83.1258 26.0247 84.2075C25.8327 84.8156 25.9159 85.5004 26.2423 85.9933C26.4087 86.2365 26.6967 86.5373 27.1704 86.5757C28.5337 86.6845 30.0122 86.3325 31.4459 85.9868C32.1756 85.814 32.9308 85.6284 33.6605 85.5132C35.9135 85.1612 37.5392 86.0893 38.9729 86.9085C39.7026 87.3246 40.3875 87.715 41.1043 87.9134C46.5448 89.4303 50.2827 88.3295 54.603 87.0494C55.7231 86.7165 56.8752 86.3773 58.1041 86.0701C60.4211 85.4876 62.2965 85.2316 64.1078 84.982C64.8951 84.8732 65.6695 84.7644 66.4504 84.6363C69.209 84.1755 71.9485 84.9308 74.5983 85.6605C76.352 86.1405 78.0034 86.5949 79.6291 86.7101C85.8504 87.1389 88.7754 87.171 93.051 83.4587C95.2976 81.5065 96.0336 76.7957 94.9136 71.4577C94.7151 70.5168 94.3759 69.3647 94.0175 68.1422C93.3326 65.8124 92.5581 63.1754 92.5389 61.172C92.5069 57.3637 94.6191 35.0963 94.7087 34.149C94.7599 33.6177 95.2272 33.2273 95.752 33.2849C96.2769 33.3361 96.6673 33.8034 96.6161 34.3282C96.5969 34.5586 94.4271 57.4405 94.4591 61.1528C94.4719 62.8874 95.208 65.39 95.8608 67.5917C96.232 68.8526 96.5841 70.0432 96.7953 71.0544C98.069 77.1478 97.1217 82.4538 94.3119 84.8924C89.4859 89.0911 85.9144 89.0591 79.5011 88.6111C77.6897 88.4831 75.8592 87.9838 74.099 87.4974C71.5388 86.7933 69.1194 86.1277 66.7768 86.5181C65.9768 86.6525 65.1895 86.7613 64.3766 86.8701C62.6165 87.1133 60.7923 87.363 58.5778 87.9198C57.3873 88.2206 56.2544 88.5535 55.1535 88.8799C52.2668 89.7312 49.4826 90.5568 46.2311 90.5568L46.2183 90.5696Z" fill="#018C3B"/>
<path d="M64.9254 82.9854C64.4069 82.9854 64.0869 82.9662 64.0229 82.9662C63.4916 82.9342 63.0948 82.4797 63.1268 81.9485C63.1588 81.4172 63.6068 81.0204 64.1445 81.0524C64.2277 81.0524 72.7532 81.5132 79.6978 76.6744C85.8231 72.4053 85.7783 69.8707 85.7271 67.1825C85.7143 66.5744 85.7015 65.9472 85.7527 65.2943C86.5783 54.6567 87.5384 32.146 87.5448 31.922C87.5704 31.3907 88.0184 30.9875 88.5433 31.0003C89.0745 31.0195 89.4842 31.4675 89.465 31.9988C89.4586 32.2228 88.4985 54.7718 87.6664 65.4415C87.6216 66.0048 87.6344 66.5552 87.6408 67.144C87.6984 70.0691 87.756 73.391 80.7923 78.249C74.5773 82.5821 67.4216 82.9918 64.919 82.9918L64.9254 82.9854Z" fill="#018C3B"/>
<path d="M59.5311 81.046C59.051 81.046 58.6414 80.6875 58.5774 80.2011C58.5134 79.6763 58.891 79.1962 59.4159 79.1322C59.5247 79.1194 70.1879 77.7881 76.6333 73.8774C78.4062 72.8021 80.7168 70.4467 81.3697 68.5201C83.4754 62.3116 83.405 46.3295 82.637 33.4453C82.605 32.914 83.0082 32.4596 83.5394 32.4276C84.0707 32.3956 84.5251 32.7988 84.5571 33.3301C84.8259 37.8424 86.0228 60.7819 83.1938 69.1346C82.3617 71.5924 79.7055 74.255 77.6318 75.5159C70.828 79.6442 60.1007 80.982 59.6463 81.0396C59.6079 81.0396 59.5695 81.046 59.5311 81.046Z" fill="#018C3B"/>
<path d="M55.4589 78.4151C55.0044 78.4151 54.6076 78.095 54.518 77.6342C54.4156 77.1157 54.7612 76.6101 55.2796 76.5141C64.426 74.7667 79.6336 70.9585 81.4834 68.1806C81.7778 67.739 82.3731 67.6174 82.8147 67.9118C83.2563 68.2062 83.378 68.8015 83.0835 69.2431C80.1777 73.6019 58.1471 77.9158 55.6445 78.3958C55.5869 78.4086 55.5229 78.4151 55.4653 78.4151H55.4589Z" fill="#018C3B"/>
</svg>
