<svg preserveAspectRatio="none" viewBox="0 0 122 122" fill="none" xmlns="http://www.w3.org/2000/svg">
<circle cx="60.5661" cy="60.5661" r="60.5661" fill="#EAF5EF"/>
<path d="M54.8044 37.7963C51.0001 37.7963 47.9062 34.7025 47.9062 30.8981C47.9062 27.0938 51.0001 24 54.8044 24C58.6088 24 61.7026 27.0938 61.7026 30.8981C61.7026 34.7025 58.6088 37.7963 54.8044 37.7963ZM54.8044 25.6784C51.9288 25.6784 49.5846 28.0225 49.5846 30.8981C49.5846 33.7738 51.9232 36.1179 54.8044 36.1179C57.6856 36.1179 60.0242 33.7794 60.0242 30.8981C60.0242 28.0169 57.68 25.6784 54.8044 25.6784Z" fill="#018C3B"/>
<path d="M60.9876 97.9887C58.4029 97.9887 56.2938 95.8851 56.2938 93.2948V67.5203H53.3174V93.2948C53.3174 95.8795 51.2139 97.9887 48.6235 97.9887C46.0332 97.9887 43.9296 95.8851 43.9296 93.2948V61.3719C43.9296 61.2823 43.9296 61.1984 43.9408 61.1145V61.0809C43.9352 61.0082 43.9296 60.9355 43.9296 60.8627V56.1297L39.012 64.1412C37.7588 66.1721 35.0846 66.8042 33.0537 65.551C31.0229 64.2978 30.3907 61.6236 31.6439 59.5928L42.3799 42.0984C42.3799 42.0984 42.4023 42.0592 42.4191 42.0425C43.4373 40.6494 44.6625 39.3906 48.383 39.3123C53.7986 39.1948 58.1624 39.2004 61.3625 39.3234L61.6087 39.3346C64.2437 39.413 66.1347 40.3417 67.2201 42.104L69.7264 46.1881C69.967 46.5853 69.8439 47.1 69.4523 47.3405C69.0607 47.5811 68.5404 47.458 68.2998 47.0664L65.7934 42.9823C65.0102 41.718 63.6283 41.0746 61.5639 41.013L61.301 41.0018C58.1344 40.8787 53.8042 40.8788 48.4221 40.9963C45.25 41.0634 44.5003 42.048 43.7954 43.0103L33.0761 60.4767C32.3096 61.7243 32.6957 63.3579 33.9377 64.13C35.1797 64.8965 36.8189 64.5105 37.5854 63.2684L44.0527 52.7282C44.2485 52.4093 44.6346 52.2582 44.9982 52.3589C45.3619 52.4596 45.608 52.7897 45.608 53.1646V60.8683C45.608 60.9019 45.608 60.9355 45.608 60.969V61.0865C45.6136 61.1145 45.6136 61.1481 45.6136 61.1816C45.6136 61.1816 45.6136 61.2376 45.6136 61.2432C45.6136 61.288 45.608 61.3383 45.608 61.3831V93.306C45.608 94.9676 46.9619 96.3214 48.6235 96.3214C50.2851 96.3214 51.639 94.9676 51.639 93.306V66.6924C51.639 66.228 52.0139 65.8532 52.4782 65.8532H57.133C57.5973 65.8532 57.9721 66.228 57.9721 66.6924V93.306C57.9721 94.9676 59.326 96.3214 60.9876 96.3214C62.6492 96.3214 64.0031 94.9676 64.0031 93.306V61.3831C64.0031 61.3383 64.0031 61.288 63.9975 61.2432C63.9975 61.2432 63.9975 61.1872 63.9975 61.1816C63.9975 61.1481 63.9975 61.1201 63.9975 61.0865V60.969C64.0087 60.9355 64.0087 60.9019 64.0087 60.8683V53.1646C64.0087 52.7897 64.2605 52.4596 64.6186 52.3589C64.9766 52.2582 65.3626 52.4037 65.5641 52.7282L72.0314 63.274C72.7979 64.5161 74.4371 64.9021 75.6791 64.1356C76.9211 63.3691 77.3072 61.7299 76.5407 60.4879L69.7992 49.4945C69.5586 49.0973 69.6817 48.5826 70.0733 48.342C70.4649 48.1014 70.9852 48.2245 71.2258 48.6161L77.9673 59.6039C79.2205 61.6348 78.5883 64.3034 76.5575 65.5622C74.5266 66.8154 71.8524 66.1832 70.5992 64.1524L65.6815 56.1409V60.8739C65.6815 60.9467 65.6815 61.0194 65.6703 61.0921V61.1257C65.6703 61.232 65.6815 61.3103 65.6815 61.3831V93.306C65.6815 95.8907 63.5779 97.9998 60.9876 97.9998V97.9887Z" fill="#018C3B"/>
<path d="M58.1308 30.9033C58.1308 29.0682 56.6426 27.5801 54.8076 27.5801C52.9725 27.5801 51.4844 29.0682 51.4844 30.9033C51.4844 32.7383 52.9725 34.2265 54.8076 34.2265C56.6426 34.2265 58.1308 32.7383 58.1308 30.9033Z" fill="#018C3B"/>
<path d="M54.8079 62.1278C54.3436 62.1278 53.9688 61.753 53.9688 61.2886V44.3929C53.9688 43.9286 54.3436 43.5537 54.8079 43.5537C55.2723 43.5537 55.6471 43.9286 55.6471 44.3929V61.2886C55.6471 61.753 55.2723 62.1278 54.8079 62.1278Z" fill="#018C3B"/>
<path d="M73.6342 62.189C73.3545 62.189 73.086 62.0491 72.9237 61.7973C72.8398 61.6631 64.4703 48.4486 62.1933 46.1716C59.5582 43.5365 49.1522 43.5365 46.5171 46.1716C45.2583 47.4304 38.998 56.8965 36.693 60.4379C36.4412 60.8239 35.9209 60.9358 35.5293 60.684C35.1433 60.4323 35.0314 59.912 35.2831 59.5203C36.1391 58.2 43.7198 46.5912 45.3311 44.9799C48.6207 41.6903 60.0953 41.6903 63.3849 44.9799C65.7962 47.3856 73.9979 60.3428 74.3504 60.8966C74.5965 61.2882 74.479 61.8085 74.0874 62.0547C73.9475 62.1442 73.7909 62.1834 73.6398 62.1834L73.6342 62.189Z" fill="#018C3B"/>
<path d="M61.1921 92.2487C60.7277 92.2487 60.3529 91.8739 60.3529 91.4095V66.9387C60.3529 64.3875 58.2773 62.3063 55.7205 62.3063H53.8967C51.3455 62.3063 49.2643 64.3819 49.2643 66.9387V91.4095C49.2643 91.8739 48.8895 92.2487 48.4251 92.2487C47.9608 92.2487 47.5859 91.8739 47.5859 91.4095V66.9387C47.5859 63.4588 50.4168 60.6279 53.8967 60.6279H55.7205C59.2004 60.6279 62.0313 63.4588 62.0313 66.9387V91.4095C62.0313 91.8739 61.6564 92.2487 61.1921 92.2487Z" fill="#018C3B"/>
<path d="M84.9592 89.423H79.7674C79.3031 89.423 78.9282 89.0481 78.9282 88.5838V83.8675H74.2064C73.742 83.8675 73.3672 83.4927 73.3672 83.0283V77.8309C73.3672 77.3666 73.742 76.9917 74.2064 76.9917H78.9282V72.2699C78.9282 71.8055 79.3031 71.4307 79.7674 71.4307H84.9592C85.4236 71.4307 85.7984 71.8055 85.7984 72.2699V76.9917H90.5203C90.9846 76.9917 91.3595 77.3666 91.3595 77.8309V83.0283C91.3595 83.4927 90.9846 83.8675 90.5203 83.8675H85.7984V88.5838C85.7984 89.0481 85.4236 89.423 84.9592 89.423ZM80.6066 87.7446H84.12V83.0283C84.12 82.564 84.4949 82.1891 84.9592 82.1891H89.6811V78.6701H84.9592C84.4949 78.6701 84.12 78.2953 84.12 77.8309V73.1091H80.6066V77.8309C80.6066 78.2953 80.2318 78.6701 79.7674 78.6701H75.0456V82.1891H79.7674C80.2318 82.1891 80.6066 82.564 80.6066 83.0283V87.7446Z" fill="#018C3B"/>
</svg>
